{
.appVersion = "3112";
DisplayStrings = (
"abcdefghijklmnopqrstuvwxyz\012ABCDEFGHIJKLMNOPQRSTUVWXYZ\0120123456789\012!@#$%^&*()&",
"Suzy/space mishandled/space the/space rogue/space axe,/space requiring/space five/space backwards/space jumps\012\012SUZY/space MISHANDLED/space THE/space ROGUE/space AXE,/space REQUIRING/space FIVE/space BACKWARDS/space JUMPS\012\012vexed/space mermaids/space long/space to/space befriend/space/endash/space or/space quickly/space hijack/space/endash/space cuddly,/space wheezy/space pomeranians\012\012",
"league\012mono."
);
copyright = "Copyright © 2020 by Tyler Finck. All rights reserved.";
customParameters = (
{
name = "Enforce Compatibility Check";
value = 1;
},
{
name = panose;
value = (
2,
11,
0,
9,
3,
0,
0,
0,
0,
3
);
},
{
name = "Use Typo Metrics";
value = 1;
},
{
name = fsType;
value = (
);
},
{
name = "Use Line Breaks";
value = 1;
},
{
name = licenseURL;
value = "http://scripts.sil.org/OFL";
},
{
name = license;
value = "This Font Software is licensed under the SIL Open Font License, Version 1.1. This license is available with a FAQ at: http://scripts.sil.org/OFL";
},
{
name = vendorID;
value = ETCO;
},
{
name = Axes;
value = (
{
Name = Weight;
Tag = wght;
},
{
Name = Width;
Tag = wdth;
}
);
},
{
name = "Variable Font Family Name";
value = "League Mono Variable";
}
);
date = "2020-04-30 15:44:47 +0000";
designer = "Tyler Finck";
designerURL = "https://www.tyfromtheinternet.com";
disablesNiceNames = 1;
familyName = "League Mono";
featurePrefixes = (
{
automatic = 1;
code = "languagesystem DFLT dflt;

languagesystem latn dflt;
languagesystem latn AZE;
languagesystem latn CRT;
languagesystem latn KAZ;
languagesystem latn TAT;
languagesystem latn TRK;
languagesystem latn ROM;
languagesystem latn MOL;
languagesystem latn CAT;
";
name = Languagesystems;
}
);
features = (
{
automatic = 1;
code = "feature locl;
feature ordn;
feature pnum;
feature tnum;
feature case;
feature ss01;
";
name = aalt;
},
{
automatic = 1;

glyphs = (
{
color = 4;
glyphname = A;
lastChange = "2022-02-14 19:02:58 +0000";
layers = (
{
anchors = (
{
name = bottom;
position = "{452, 0}";
},
{
name = ogonek;
position = "{746, 0}";
},
{
name = top;
position = "{452, 1400}";
}
);
layerId = "2E286313-D5BF-4FB4-A4B7-BD9BC13B574E";
paths = (
{
closed = 1;
nodes = (
"250 406 LINE",
"654 406 LINE",
"654 470 LINE",
"250 470 LINE"
);
},
{
closed = 1;
nodes = (
"746 0 LINE",
"520 1400 LINE",
"384 1400 LINE",
"158 0 LINE",
"226 0 LINE",
"440 1336 LINE",
"464 1336 LINE",
"678 0 LINE"
);
}
);
width = 900;
},
{
anchors = (
{
name = bottom;
position = "{1050, 0}";
},
{
name = ogonek;
position = "{1828, 0}";
},
{
name = top;
position = "{1050, 1400}";
}
);
layerId = "E338D14E-1DA5-418D-88BC-8956EEA80AB9";
paths = (
{
closed = 1;
nodes = (
"532 508 LINE",
"1568 508 LINE",
"1568 572 LINE",
"532 572 LINE"
);
},
{
closed = 1;
nodes = (
"1828 0 LINE",
"1208 1400 LINE",
"892 1400 LINE",
"272 0 LINE",
"354 0 LINE",
"948 1336 LINE",
"1152 1336 LINE",
"1746 0 LINE"
);
}
);
width = 2100;
},
{
anchors = (
{
name = bottom;
position = "{440, 0}";
},
{
name = ogonek;
position = "{854, 0}";
},
{
name = top;
position = "{440, 1400}";
}
);
layerId = "C5C974ED-4386-41E8-AA57-C40E24C26BBD";
paths = (
{
closed = 1;
nodes = (
"204 264 LINE",
"674 264 LINE",
"674 508 LINE",
"204 508 LINE"
);
},
{
closed = 1;
nodes = (
"854 0 LINE",
"678 1400 LINE",
"200 1400 LINE",
"24 0 LINE",
"370 0 LINE",
"462 1196 LINE",
"416 1196 LINE",
"508 0 LINE"
);
}
);
width = 900;
},
{
anchors = (
{
name = bottom;
position = "{1034, 0}";
},
{
name = ogonek;
position = "{1974, 0}";
},
{
name = top;
position = "{1034, 1400}";
}
);
layerId = "DF71BB49-08D0-48AB-8F46-D55A70C0C2BD";
paths = (
{
closed = 1;
nodes = (
"459 362 LINE",
"1605 362 LINE",
"1605 670 LINE",
"459 670 LINE"
);
},
{
closed = 1;
nodes = (
"1974 0 LINE",
"1412 1400 LINE",
"652 1400 LINE",
"90 0 LINE",
"539 0 LINE",
"948 1092 LINE",
"1117 1092 LINE",
"1525 0 LINE"
);
}
);
width = 2100;
}
);
leftKerningGroup = A;
rightKerningGroup = A;
unicode = 0041;
},
{
glyphname = AE;
lastChange = "2022-02-14 18:55:51 +0000";
layers = (
{
anchors = (
{
name = bottom;
position = "{450, 0}";
},
{
name = top;
position = "{450, 1400}";
}
);
layerId = "2E286313-D5BF-4FB4-A4B7-BD9BC13B574E";
paths = (
{
closed = 1;
nodes = (
"580 0 LINE",
"580 1400 LINE",
"510 1400 LINE",
"510 0 LINE"
);
},
{
closed = 1;
nodes = (
"558 0 LINE",
"868 0 LINE",
"868 64 LINE",
"558 64 LINE"
);
},
{
closed = 1;
nodes = (
"558 656 LINE",
"828 656 LINE",
"828 720 LINE",
"558 720 LINE"
);
},
{
closed = 1;
nodes = (
"558 1336 LINE",
"868 1336 LINE",
"868 1400 LINE",
"558 1400 LINE"
);
},
{
closed = 1;
nodes = (
"44 0 LINE",
"116 0 LINE",
"518 1400 LINE",
"444 1400 LINE"
);
},
{
closed = 1;
nodes = (
"458 1336 LINE",
"526 1336 LINE",
"552 1400 LINE",
"482 1400 LINE"
);
},
{
closed = 1;
nodes = (
"184 418 LINE",
"530 418 LINE",
"536 482 LINE",
"210 482 LINE"
);
}
);
width = 900;
},
{
anchors = (
{
name = bottom;
position = "{1050, 0}";
},
{
name = top;
position = "{1171, 1400}";
}
);
layerId = "E338D14E-1DA5-418D-88BC-8956EEA80AB9";
paths = (
{
closed = 1;
nodes = (
"1212 0 LINE",
"1212 1400 LINE",
"1142 1400 LINE",
"1142 0 LINE"
);
},
{
closed = 1;
nodes = (
"1208 0 LINE",
"2026 0 LINE",
"2026 64 LINE",
"1208 64 LINE"
);
},
{
closed = 1;
nodes = (
"1208 656 LINE",
"1838 656 LINE",
"1838 720 LINE",
"1208 720 LINE"
);
},
{
closed = 1;
nodes = (
"1208 1336 LINE",
"2026 1336 LINE",
"2026 1400 LINE",
"1208 1400 LINE"
);
},
{
closed = 1;
nodes = (
"142 0 LINE",
"224 0 LINE",
"994 1400 LINE",
"910 1400 LINE"
);
},
{
closed = 1;
nodes = (
"894 1336 LINE",
"1138 1336 LINE",
"1200 1400 LINE",
"952 1400 LINE"
);
},
{
closed = 1;
nodes = (
"400 488 LINE",
"1172 488 LINE",
"1186 552 LINE",
"460 552 LINE"
);
}
);
width = 2100;
},
{
anchors = (
{
name = bottom;
position = "{450, 0}";
},
{
name = top;
position = "{450, 1400}";
}
);
layerId = "C5C974ED-4386-41E8-AA57-C40E24C26BBD";
paths = (
{
closed = 1;
nodes = (
"682 0 LINE",
"682 1400 LINE",
"374 1400 LINE",
"374 0 LINE"
);
},
{
closed = 1;
nodes = (
"490 0 LINE",
"824 0 LINE",
"824 224 LINE",
"490 224 LINE"
);
},
{
closed = 1;
nodes = (
"490 576 LINE",
"812 576 LINE",
"812 800 LINE",
"490 800 LINE"
);
},
{
closed = 1;
nodes = (
"490 1176 LINE",
"824 1176 LINE",
"824 1400 LINE",
"490 1400 LINE"
);
},
{
closed = 1;
nodes = (
"-72 0 LINE",
"256 0 LINE",
"442 1400 LINE",
"180 1400 LINE"
);
},
{
closed = 1;
nodes = (
"250 1176 LINE",
"460 1176 LINE",
"484 1400 LINE",
"272 1400 LINE"
);
},
{
closed = 1;
nodes = (
"250 228 LINE",
"442 228 LINE",
"474 452 LINE",
"274 452 LINE"
);
}
);
width = 900;
},
{
anchors = (
{
name = bottom;
position = "{1050, 0}";
},
{
name = top;
position = "{1050, 1400}";
}
);
layerId = "DF71BB49-08D0-48AB-8F46-D55A70C0C2BD";
paths = (
{
closed = 1;
nodes = (
"1351 0 LINE",
"1351 1400 LINE",
"958 1400 LINE",
"958 0 LINE"
);
},
{
closed = 1;
nodes = (
"1116 0 LINE",
"1967 0 LINE",
"1967 281 LINE",
"1116 281 LINE"
);
},
{
closed = 1;
nodes = (
"1116 547 LINE",
"1817 547 LINE",
"1817 829 LINE",
"1116 829 LINE"
);
},
{
closed = 1;
nodes = (
"1116 1119 LINE",
"1967 1119 LINE",
"1967 1400 LINE",
"1116 1400 LINE"
);
},
{
closed = 1;
nodes = (
"-15 0 LINE",
"414 0 LINE",
"1102 1400 LINE",
"709 1400 LINE"
);
},
{
closed = 1;
nodes = (
"728 1119 LINE",
"1049 1119 LINE",
"1108 1400 LINE",
"783 1400 LINE"
);
},
{
closed = 1;
nodes = (
"490 271 LINE",
"1053 271 LINE",
"1102 552 LINE",
"547 552 LINE"
);
}
);
width = 2100;
}
);
unicode = 00C6;
},
{
color = 4;
glyphname = B;
lastChange = "2022-02-14 18:30:27 +0000";
layers = (
{
anchors = (
{
name = bottom;
position = "{420, 0}";
},
{
name = top;
position = "{420, 1400}";
}
);
layerId = "2E286313-D5BF-4FB4-A4B7-BD9BC13B574E";
paths = (
{
closed = 1;
nodes = (
"464 0 LINE SMOOTH",
"642 0 OFFCURVE",
"764 123 OFFCURVE",
"764 380 CURVE SMOOTH",
"764 593 OFFCURVE",
"631 718 OFFCURVE",
"554 738 CURVE",
"619 761 OFFCURVE",
"734 874 OFFCURVE",
"734 1068 CURVE SMOOTH",
"734 1340 OFFCURVE",
"582 1400 OFFCURVE",
"434 1400 CURVE SMOOTH",
"210 1400 LINE",
"210 0 LINE"
);
},
{
closed = 1;
nodes = (
"276 690 LINE",
"462 690 LINE SMOOTH",
"576 690 OFFCURVE",
"696 574 OFFCURVE",
"696 380 CURVE SMOOTH",
"696 157 OFFCURVE",
"600 64 OFFCURVE",
"470 64 CURVE SMOOTH",
"276 64 LINE"
);
},
{
closed = 1;
nodes = (
"276 1336 LINE",
"456 1336 LINE SMOOTH",
"552 1336 OFFCURVE",
"662 1276 OFFCURVE",
"662 1068 CURVE SMOOTH",
"662 880 OFFCURVE",
"542 754 OFFCURVE",
"422 754 CURVE SMOOTH",
"276 754 LINE"
);
}
);
width = 900;
},
{
anchors = (
{
name = bottom;
position = "{1050, 0}";
},
{
name = top;
position = "{1050, 1400}";
}
);
layerId = "E338D14E-1DA5-418D-88BC-8956EEA80AB9";
paths = (
{
closed = 1;
nodes = (
"1188 0 LINE SMOOTH",
"1536 0 OFFCURVE",
"1762 110 OFFCURVE",
"1762 380 CURVE SMOOTH",
"1762 660 OFFCURVE",
"1482 730 OFFCURVE",
"1434 732 CURVE",
"1480 744 OFFCURVE",
"1690 816 OFFCURVE",
"1690 1064 CURVE SMOOTH",
"1690 1316 OFFCURVE",
"1518 1400 OFFCURVE",
"1184 1400 CURVE SMOOTH",
"446 1400 LINE",
"446 0 LINE"
);
},
{
closed = 1;
nodes = (
"516 690 LINE",
"1288 690 LINE SMOOTH",
"1488 690 OFFCURVE",
"1686 594 OFFCURVE",
"1686 380 CURVE SMOOTH",
"1686 156 OFFCURVE",
"1496 64 OFFCURVE",
"1198 64 CURVE SMOOTH",
"516 64 LINE"
);
},
{
closed = 1;
nodes = (
"516 1336 LINE",
"1176 1336 LINE SMOOTH",
"1508 1336 OFFCURVE",
"1614 1252 OFFCURVE",
"1614 1064 CURVE SMOOTH",
"1614 866 OFFCURVE",
"1448 754 OFFCURVE",
"1238 754 CURVE SMOOTH",
"516 754 LINE"
);
}
);
width = 2100;
},
{
anchors = (
{
name = bottom;
position = "{426, 0}";
},
{
name = top;
position = "{426, 1400}";
}
);
layerId = "C5C974ED-4386-41E8-AA57-C40E24C26BBD";
paths = (
{
closed = 1;
nodes = (
"486 0 LINE SMOOTH",
"698 0 OFFCURVE",
"856 130 OFFCURVE",
"856 402 CURVE SMOOTH",
"856 714 OFFCURVE",
"638 740 OFFCURVE",
"620 742 CURVE",
"638 744 OFFCURVE",
"834 774 OFFCURVE",
"834 1056 CURVE SMOOTH",
"834 1318 OFFCURVE",
"621 1400 OFFCURVE",
"452 1400 CURVE SMOOTH",
"60 1400 LINE",
"60 0 LINE"
);
},
{
closed = 1;
nodes = (
"414 600 LINE",
"416 600 LINE SMOOTH",
"482 600 OFFCURVE",
"512 546 OFFCURVE",
"512 424 CURVE SMOOTH",
"512 290 OFFCURVE",
"486 244 OFFCURVE",
"422 244 CURVE SMOOTH",
"414 244 LINE"
);
},
{
closed = 1;
nodes = (
"414 1156 LINE",
"416 1156 LINE SMOOTH",
"456 1156 OFFCURVE",
"496 1132 OFFCURVE",
"496 1010 CURVE SMOOTH",
"496 884 OFFCURVE",
"464 844 OFFCURVE",
"416 844 CURVE SMOOTH",
"414 844 LINE"
);
}
);
width = 900;
},
{
anchors = (
{
name = bottom;
position = "{1058, 0}";
},
{
name = top;
position = "{1058, 1400}";
}
);
layerId = "DF71BB49-08D0-48AB-8F46-D55A70C0C2BD";
paths = (
{
closed = 1;
nodes = (
"1237 0 LINE SMOOTH",
"1601 0 OFFCURVE",
"1935 139 OFFCURVE",
"1935 400 CURVE SMOOTH",
"1935 637 OFFCURVE",
"1697 735 OFFCURVE",
"1525 744 CURVE",
"1640 754 OFFCURVE",
"1812 841 OFFCURVE",
"1812 1048 CURVE SMOOTH",
"1812 1342 OFFCURVE",
"1471 1400 OFFCURVE",
"1192 1400 CURVE SMOOTH",
"246 1400 LINE",
"246 0 LINE"
);
},
{
closed = 1;
nodes = (
"668 577 LINE",
"1279 577 LINE SMOOTH",
"1386 577 OFFCURVE",
"1499 561 OFFCURVE",
"1499 431 CURVE SMOOTH",
"1499 318 OFFCURVE",
"1389 293 OFFCURVE",
"1278 293 CURVE SMOOTH",
"668 293 LINE"
);
},
{
closed = 1;
nodes = (
"668 1107 LINE",
"1119 1107 LINE SMOOTH",
"1270 1107 OFFCURVE",
"1387 1088 OFFCURVE",
"1387 991 CURVE SMOOTH",
"1387 877 OFFCURVE",
"1253 867 OFFCURVE",
"1119 867 CURVE SMOOTH",
"668 867 LINE"
);
}
);
width = 2100;
}
);
leftKerningGroup = H;
rightKerningGroup = B;
unicode = 0042;
},
{
color = 4;
glyphname = C;
lastChange = "2022-02-14 18:30:27 +0000";
layers = (
{
anchors = (
{
name = bottom;
position = "{458, 0}";
},
{
name = top;
position = "{458, 1400}";
}
);
layerId = "2E286313-D5BF-4FB4-A4B7-BD9BC13B574E";
paths = (
{
closed = 1;
nodes = (
"642 -22 OFFCURVE",
"725 164 OFFCURVE",
"750 258 CURVE",
"690 292 LINE",
"671 208 OFFCURVE",
"594 44 OFFCURVE",
"466 44 CURVE SMOOTH",
"314 44 OFFCURVE",
"182 250 OFFCURVE",
"182 696 CURVE SMOOTH",
"182 1142 OFFCURVE",
"314 1346 OFFCURVE",
"466 1346 CURVE SMOOTH",
"594 1346 OFFCURVE",
"671 1182 OFFCURVE",
"690 1078 CURVE",
"750 1110 LINE",
"721 1224 OFFCURVE",
"642 1412 OFFCURVE",
"466 1412 CURVE SMOOTH",
"260 1412 OFFCURVE",
"112 1186 OFFCURVE",
"112 696 CURVE SMOOTH",
"112 206 OFFCURVE",
"252 -22 OFFCURVE",
"458 -22 CURVE SMOOTH"
);
}
);
width = 900;
},
{
anchors = (
{
name = bottom;
position = "{1116, 0}";
},
{
name = top;
position = "{1116, 1400}";
}
);
layerId = "E338D14E-1DA5-418D-88BC-8956EEA80AB9";
paths = (
{
closed = 1;
nodes = (
"1454 -22 OFFCURVE",
"1666 104 OFFCURVE",
"1782 224 CURVE",
"1726 276 LINE",
"1638 170 OFFCURVE",
"1432 44 OFFCURVE",
"1126 44 CURVE SMOOTH",
"664 44 OFFCURVE",
"342 290 OFFCURVE",
"342 696 CURVE SMOOTH",
"342 1102 OFFCURVE",
"678 1346 OFFCURVE",
"1140 1346 CURVE SMOOTH",
"1450 1346 OFFCURVE",
"1624 1216 OFFCURVE",
"1726 1094 CURVE",
"1782 1144 LINE",
"1662 1276 OFFCURVE",
"1474 1412 OFFCURVE",
"1130 1412 CURVE SMOOTH",
"636 1412 OFFCURVE",
"266 1146 OFFCURVE",
"266 696 CURVE SMOOTH",
"266 246 OFFCURVE",
"622 -22 OFFCURVE",
"1116 -22 CURVE SMOOTH"
);
}
);
width = 2100;
},
{
anchors = (
{
name = bottom;
position = "{468, 0}";
},
{
name = top;
position = "{468, 1400}";
}
);
layerId = "C5C974ED-4386-41E8-AA57-C40E24C26BBD";
paths = (
{
closed = 1;
nodes = (
"707 -22 OFFCURVE",
"820 234 OFFCURVE",
"836 430 CURVE",
"552 526 LINE",
"548 412 OFFCURVE",
"532 230 OFFCURVE",
"468 230 CURVE SMOOTH",
"404 230 OFFCURVE",
"384 360 OFFCURVE",
"384 696 CURVE SMOOTH",
"384 1030 OFFCURVE",
"402 1160 OFFCURVE",
"468 1160 CURVE SMOOTH",
"532 1160 OFFCURVE",
"548 984 OFFCURVE",
"552 870 CURVE",
"836 974 LINE",
"820 1170 OFFCURVE",
"707 1412 OFFCURVE",
"466 1412 CURVE SMOOTH",
"228 1412 OFFCURVE",
"50 1238 OFFCURVE",
"50 696 CURVE SMOOTH",
"50 152 OFFCURVE",
"228 -22 OFFCURVE",
"466 -22 CURVE SMOOTH"
);
}
);
width = 900;
},
{
anchors = (
{
name = bottom;
position = "{1050, 0}";
},
{
name = top;
position = "{1050, 1400}";
}
);
layerId = "DF71BB49-08D0-48AB-8F46-D55A70C0C2BD";
paths = (
{
closed = 1;
nodes = (
"1502 -22 OFFCURVE",
"1787 105 OFFCURVE",
"1876 180 CURVE",
"1611 441 LINE",
"1550 382 OFFCURVE",
"1350 275 OFFCURVE",
"1072 275 CURVE SMOOTH",
"788 275 OFFCURVE",
"531 374 OFFCURVE",
"531 696 CURVE SMOOTH",
"531 1016 OFFCURVE",
"797 1115 OFFCURVE",
"1081 1115 CURVE SMOOTH",
"1357 1115 OFFCURVE",
"1553 992 OFFCURVE",
"1611 918 CURVE",
"1908 1157 LINE",
"1805 1255 OFFCURVE",
"1504 1412 OFFCURVE",
"1100 1412 CURVE SMOOTH",
"686 1412 OFFCURVE",
"93 1293 OFFCURVE",
"93 696 CURVE SMOOTH",
"93 104 OFFCURVE",
"676 -22 OFFCURVE",
"1091 -22 CURVE SMOOTH"
);
}
);
width = 2100;
}
);
leftKerningGroup = O;
rightKerningGroup = C;
unicode = 0043;
},
{
color = 4;
glyphname = D;
lastChange = "2022-02-14 18:30:27 +0000";
layers = (
{
anchors = (
{
name = bottom;
position = "{374, 0}";
},
{
name = center;
position = "{196, 700}";
},
{
name = top;
position = "{424, 1400}";
}
);
layerId = "2E286313-D5BF-4FB4-A4B7-BD9BC13B574E";
paths = (
{
closed = 1;
nodes = (
"354 0 LINE SMOOTH",
"524 0 OFFCURVE",
"738 100 OFFCURVE",
"738 700 CURVE SMOOTH",
"738 1300 OFFCURVE",
"524 1400 OFFCURVE",
"354 1400 CURVE SMOOTH",
"170 1400 LINE",
"170 0 LINE"
);
},
{
closed = 1;
nodes = (
"236 1336 LINE",
"340 1336 LINE SMOOTH",
"524 1336 OFFCURVE",
"668 1172 OFFCURVE",
"668 700 CURVE SMOOTH",
"668 228 OFFCURVE",
"524 64 OFFCURVE",
"340 64 CURVE SMOOTH",
"236 64 LINE"
);
}
);
width = 900;
},
{
anchors = (
{
name = bottom;
position = "{1050, 0}";
},
{
name = center;
position = "{582, 700}";
},
{
name = top;
position = "{1050, 1400}";
}
);
layerId = "E338D14E-1DA5-418D-88BC-8956EEA80AB9";
paths = (
{
closed = 1;
nodes = (
"970 0 LINE SMOOTH",
"1496 0 OFFCURVE",
"1824 180 OFFCURVE",
"1824 700 CURVE SMOOTH",
"1824 1220 OFFCURVE",
"1496 1400 OFFCURVE",
"970 1400 CURVE SMOOTH",
"386 1400 LINE",
"386 0 LINE"
);
},
{
closed = 1;
nodes = (
"456 1336 LINE",
"960 1336 LINE SMOOTH",
"1474 1336 OFFCURVE",
"1752 1162 OFFCURVE",
"1752 700 CURVE SMOOTH",
"1752 238 OFFCURVE",
"1474 64 OFFCURVE",
"960 64 CURVE SMOOTH",
"456 64 LINE"
);
}
);
width = 2100;
},
{
anchors = (
{
name = bottom;
position = "{364, 0}";
},
{
name = center;
position = "{178, 700}";
},
{
name = top;
position = "{386, 1400}";
}
);
layerId = "C5C974ED-4386-41E8-AA57-C40E24C26BBD";
paths = (
{
closed = 1;
nodes = (
"388 0 LINE SMOOTH",
"620 0 OFFCURVE",
"854 114 OFFCURVE",
"854 700 CURVE SMOOTH",
"854 1286 OFFCURVE",
"620 1400 OFFCURVE",
"388 1400 CURVE SMOOTH",
"68 1400 LINE",
"68 0 LINE"
);
},
{
closed = 1;
nodes = (
"392 1156 LINE",
"420 1156 LINE SMOOTH",
"486 1156 OFFCURVE",
"520 1004 OFFCURVE",
"520 700 CURVE SMOOTH",
"520 396 OFFCURVE",
"486 244 OFFCURVE",
"420 244 CURVE SMOOTH",
"392 244 LINE"
);
}
);
width = 900;
},
{
anchors = (
{
name = bottom;
position = "{1037, 0}";
},
{
name = center;
position = "{558, 700}";
},
{
name = top;
position = "{999, 1400}";
}
);
layerId = "DF71BB49-08D0-48AB-8F46-D55A70C0C2BD";
paths = (
{
closed = 1;
nodes = (
"986 0 LINE SMOOTH",
"1636 0 OFFCURVE",
"1982 199 OFFCURVE",
"1982 700 CURVE SMOOTH",
"1982 1201 OFFCURVE",
"1636 1400 OFFCURVE",
"986 1400 CURVE SMOOTH",
"248 1400 LINE",
"248 0 LINE"
);
},
{
closed = 1;
nodes = (
"668 1092 LINE",
"1028 1092 LINE SMOOTH",
"1409 1092 OFFCURVE",
"1552 953 OFFCURVE",
"1552 700 CURVE SMOOTH",
"1552 447 OFFCURVE",
"1409 308 OFFCURVE",
"1028 308 CURVE SMOOTH",
"668 308 LINE"
);
}
);
width = 2100;
}
);
leftKerningGroup = H;
rightKerningGroup = O;
unicode = 0044;
},
{
glyphname = Eth;
lastChange = "2022-02-14 18:44:09 +0000";
layers = (
{
anchors = (
{
name = _center;
position = "{195.882, 700}";
}
);
components = (
{
alignment = -1;
name = D;
}
);
layerId = "2E286313-D5BF-4FB4-A4B7-BD9BC13B574E";
paths = (
{
closed = 1;
nodes = (
"-23 668 LINE",
"415 668 LINE",
"415 732 LINE",
"-23 732 LINE"
);
}
);
width = 900;
},
{
anchors = (
{
name = _center;
position = "{581.674, 700}";
}
);
components = (
{
alignment = -1;
name = D;
}
);
layerId = "E338D14E-1DA5-418D-88BC-8956EEA80AB9";
paths = (
{
closed = 1;
nodes = (
"115 668 LINE",
"1048 668 LINE",
"1048 732 LINE",
"115 732 LINE"
);
}
);
width = 2100;
},
{
anchors = (
{
name = _center;
position = "{184.351, 700}";
}
);
components = (
{
alignment = -1;
name = D;
}
);
layerId = "C5C974ED-4386-41E8-AA57-C40E24C26BBD";
paths = (
{
closed = 1;
nodes = (
"-74 600 LINE",
"441 600 LINE",
"441 800 LINE",
"-74 800 LINE"
);
}
);
width = 900;
},
{
anchors = (
{
name = _center;
position = "{526.49, 700}";
}
);
components = (
{
alignment = -1;
name = D;
}
);
layerId = "DF71BB49-08D0-48AB-8F46-D55A70C0C2BD";
paths = (
{
closed = 1;
nodes = (
"-21 576 LINE",
"988 576 LINE",
"988 824 LINE",
"-21 824 LINE"
);
}
);
width = 2100;
}
);
unicode = 00D0;
},
{
color = 4;
glyphname = E;
lastChange = "2022-02-14 18:34:50 +0000";
layers = (
{
anchors = (
{
name = bottom;
position = "{450, 0}";
},
{
name = ogonek;
position = "{706, 0}";
},
{
name = top;
position = "{469, 1400}";
},
{
name = topleft;
position = "{110, 1400}";
}
);
layerId = "2E286313-D5BF-4FB4-A4B7-BD9BC13B574E";
paths = (
{
closed = 1;
nodes = (
"706 1400 LINE",
"218 1400 LINE",
"218 0 LINE",
"706 0 LINE",
"706 64 LINE",
"284 64 LINE",
"284 656 LINE",
"618 656 LINE",
"618 720 LINE",
"284 720 LINE",
"284 1336 LINE",
"706 1336 LINE"
);
}
);
width = 900;
},
{
anchors = (
{
name = bottom;
position = "{1120, 0}";
},
{
name = ogonek;
position = "{1744, 0}";
},
{
name = top;
position = "{1118, 1400}";
},
{
name = topleft;
position = "{70, 1400}";
}
);
layerId = "E338D14E-1DA5-418D-88BC-8956EEA80AB9";
paths = (
{
closed = 1;
nodes = (
"1744 1400 LINE",
"434 1400 LINE",
"434 0 LINE",
"1744 0 LINE",
"1744 64 LINE",
"504 64 LINE",
"504 656 LINE",
"1594 656 LINE",
"1594 720 LINE",
"504 720 LINE",
"504 1336 LINE",
"1744 1336 LINE"
);
}
);
width = 2100;
},
{
anchors = (
{
name = bottom;
position = "{449, 0}";
},
{
name = ogonek;
position = "{761, 0}";
},
{
name = top;
position = "{451, 1400}";
},
{
name = topleft;
position = "{89, 1400}";
}
);
layerId = "C5C974ED-4386-41E8-AA57-C40E24C26BBD";
paths = (
{
closed = 1;
nodes = (
"761 1400 LINE",
"125 1400 LINE",
"125 0 LINE",
"761 0 LINE",
"761 244 LINE",
"451 244 LINE",
"451 566 LINE",
"675 566 LINE",
"675 810 LINE",
"451 810 LINE",
"451 1156 LINE",
"761 1156 LINE"
);
}
);
width = 900;
},
{
anchors = (
{
name = bottom;
position = "{1132, 0}";
},
{
name = ogonek;
position = "{1832, 0}";
},
{
name = top;
position = "{1099, 1400}";
},
{
name = topleft;
position = "{55, 1400}";
}
);
layerId = "DF71BB49-08D0-48AB-8F46-D55A70C0C2BD";
paths = (
{
closed = 1;
nodes = (
"1832 1400 LINE",
"321 1400 LINE",
"321 0 LINE",
"1832 0 LINE",
"1832 308 LINE",
"744 308 LINE",
"744 534 LINE",
"1685 534 LINE",
"1685 842 LINE",
"744 842 LINE",
"744 1092 LINE",
"1832 1092 LINE"
);
}
);
width = 2100;
}
);
leftKerningGroup = H;
rightKerningGroup = E;
unicode = 0045;
},
{
glyphname = Schwa;
lastChange = "2020-04-30 20:35:06 +0000";
layers = (
{
layerId = "C5C974ED-4386-41E8-AA57-C40E24C26BBD";
paths = (
{
closed = 1;
nodes = (
"566 768 LINE",
"30 768 LINE",
"30 158 OFFCURVE",
"196 -22 OFFCURVE",
"438 -22 CURVE SMOOTH",
"670 -22 OFFCURVE",
"850 156 OFFCURVE",
"850 696 CURVE SMOOTH",
"850 1227 OFFCURVE",
"670 1410 OFFCURVE",
"434 1410 CURVE SMOOTH",
"218 1410 OFFCURVE",
"98 1276 OFFCURVE",
"68 1160 CURVE",
"350 1032 LINE",
"362 1106 OFFCURVE",
"396 1154 OFFCURVE",
"434 1154 CURVE SMOOTH",
"494 1154 OFFCURVE",
"517 1095 OFFCURVE",
"516 704 CURVE SMOOTH",
"515 292 OFFCURVE",
"492 226 OFFCURVE",
"432 226 CURVE SMOOTH",
"372 226 OFFCURVE",
"358 292 OFFCURVE",
"358 554 CURVE",
"566 554 LINE"
);
}
);
width = 900;
},
{
layerId = "2E286313-D5BF-4FB4-A4B7-BD9BC13B574E";
paths = (
{
closed = 1;
nodes = (
"708 727 LINE",
"144 727 LINE",
"144 204 OFFCURVE",
"248 -22 OFFCURVE",
"438 -22 CURVE SMOOTH",
"590 -22 OFFCURVE",
"750 134 OFFCURVE",
"750 723 CURVE SMOOTH",
"750 1245 OFFCURVE",
"622 1413 OFFCURVE",
"444 1413 CURVE SMOOTH",
"268 1413 OFFCURVE",
"182 1263 OFFCURVE",
"160 1207 CURVE",
"222 1173 LINE",
"238 1225 OFFCURVE",
"292 1347 OFFCURVE",
"444 1347 CURVE SMOOTH",
"612 1347 OFFCURVE",
"684 1173 OFFCURVE",
"684 723 CURVE SMOOTH",
"684 186 OFFCURVE",
"572 44 OFFCURVE",
"442 44 CURVE SMOOTH",
"290 44 OFFCURVE",
"214 236 OFFCURVE",
"214 663 CURVE",
"708 663 LINE"
);
}
);
width = 900;
},
{
layerId = "E338D14E-1DA5-418D-88BC-8956EEA80AB9";
paths = (
{
closed = 1;
nodes = (
"1670 732 LINE",
"356 732 LINE",
"356 225 OFFCURVE",
"632 -22 OFFCURVE",
"1022 -22 CURVE SMOOTH",
"1400 -22 OFFCURVE",
"1734 191 OFFCURVE",
"1734 720 CURVE SMOOTH",
"1734 1204 OFFCURVE",
"1422 1410 OFFCURVE",
"1026 1410 CURVE SMOOTH",
"684 1410 OFFCURVE",
"452 1278 OFFCURVE",
"372 1204 CURVE",
"434 1150 LINE",
"500 1220 OFFCURVE",
"700 1344 OFFCURVE",
"1026 1344 CURVE SMOOTH",
"1420 1344 OFFCURVE",
"1658 1140 OFFCURVE",
"1658 728 CURVE SMOOTH",
"1658 229 OFFCURVE",
"1368 44 OFFCURVE",
"1022 44 CURVE SMOOTH",
"642 44 OFFCURVE",
"442 293 OFFCURVE",
"442 668 CURVE",
"1670 668 LINE"
);
}
);
width = 2100;
},
{
layerId = "DF71BB49-08D0-48AB-8F46-D55A70C0C2BD";
paths = (
{
closed = 1;
nodes = (
"1477 788 LINE",
"201 788 LINE",
"201 163 OFFCURVE",
"561 -22 OFFCURVE",
"1022 -22 CURVE SMOOTH",
"1508 -22 OFFCURVE",
"1869 221 OFFCURVE",
"1869 683 CURVE SMOOTH",
"1869 1179 OFFCURVE",
"1487 1406 OFFCURVE",
"1012 1406 CURVE SMOOTH",
"609 1406 OFFCURVE",
"335 1237 OFFCURVE",
"247 1140 CURVE",
"607 959 LINE",
"712 1050 OFFCURVE",
"846 1082 OFFCURVE",
"1012 1082 CURVE SMOOTH",
"1259 1082 OFFCURVE",
"1431 1034 OFFCURVE",
"1430 702 CURVE SMOOTH",
"1429 371 OFFCURVE",
"1265 291 OFFCURVE",
"1018 291 CURVE SMOOTH",
"764 291 OFFCURVE",
"647 379 OFFCURVE",
"637 520 CURVE",
"1477 520 LINE"
);
}
);
width = 2100;
}
);
unicode = 018F;
},
{
color = 4;
glyphname = F;
lastChange = "2022-02-14 18:30:27 +0000";
layers = (
{
anchors = (
{
name = bottom;
position = "{516, 0}";
},
{
name = top;
position = "{516, 1400}";
}
);
layerId = "2E286313-D5BF-4FB4-A4B7-BD9BC13B574E";
paths = (
{
closed = 1;
nodes = (
"760 1400 LINE",
"252 1400 LINE",
"252 0 LINE",
"318 0 LINE",
"318 656 LINE",
"680 656 LINE",
"680 720 LINE",
"318 720 LINE",
"318 1336 LINE",
"760 1336 LINE"
);
}
);
width = 900;
},
{
anchors = (
{
name = bottom;
position = "{1090, 0}";
},
{
name = top;
position = "{1090, 1400}";
}
);
layerId = "E338D14E-1DA5-418D-88BC-8956EEA80AB9";
paths = (
{
closed = 1;
nodes = (
"1878 1400 LINE",
"568 1400 LINE",
"568 0 LINE",
"638 0 LINE",
"638 656 LINE",
"1738 656 LINE",
"1738 720 LINE",
"638 720 LINE",
"638 1336 LINE",
"1878 1336 LINE"
);
}
);
width = 2100;
},
{
anchors = (
{
name = bottom;
position = "{484, 0}";
},
{
name = top;
position = "{484, 1400}";
}
);
layerId = "C5C974ED-4386-41E8-AA57-C40E24C26BBD";
paths = (
{
closed = 1;
nodes = (
"788 1400 LINE",
"162 1400 LINE",
"162 0 LINE",
"488 0 LINE",
"488 546 LINE",
"724 546 LINE",
"724 790 LINE",
"488 790 LINE",
"488 1156 LINE",
"788 1156 LINE"
);
}
);
width = 900;
},
{
anchors = (
{
name = bottom;
position = "{1047, 0}";
},
{
name = top;
position = "{1047, 1400}";
}
);
layerId = "DF71BB49-08D0-48AB-8F46-D55A70C0C2BD";
paths = (
{
closed = 1;
nodes = (
"1916 1400 LINE",
"446 1400 LINE",
"446 0 LINE",
"869 0 LINE",
"869 507 LINE",
"1798 507 LINE",
"1798 815 LINE",
"869 815 LINE",
"869 1092 LINE",
"1916 1092 LINE"
);
}
);
width = 2100;
}
);
leftKerningGroup = H;
rightKerningGroup = F;
unicode = 0046;
},
{
color = 4;
glyphname = G;
lastChange = "2022-02-14 18:30:27 +0000";
layers = (
{
anchors = (
{
name = bottom;
position = "{500, 0}";
},
{
name = top;
position = "{500, 1400}";
}
);
layerId = "2E286313-D5BF-4FB4-A4B7-BD9BC13B574E";
paths = (
{
closed = 1;
nodes = (
"488 690 LINE",
"488 626 LINE",
"726 626 LINE",
"726 214 LINE",
"692 151 OFFCURVE",
"634 44 OFFCURVE",
"484 44 CURVE SMOOTH",
"322 44 OFFCURVE",
"200 270 OFFCURVE",
"200 696 CURVE SMOOTH",
"200 1122 OFFCURVE",
"340 1346 OFFCURVE",
"492 1346 CURVE SMOOTH",
"632 1346 OFFCURVE",
"688 1192 OFFCURVE",
"708 1106 CURVE",
"766 1140 LINE",
"734 1272 OFFCURVE",
"652 1412 OFFCURVE",
"492 1412 CURVE SMOOTH",
"286 1412 OFFCURVE",
"130 1166 OFFCURVE",
"130 696 CURVE SMOOTH",
"130 226 OFFCURVE",
"278 -22 OFFCURVE",
"484 -22 CURVE SMOOTH",
"680 -22 OFFCURVE",
"768 128 OFFCURVE",
"792 190 CURVE",
"792 690 LINE"
);
}
);
width = 900;
},
{
anchors = (
{
name = bottom;
position = "{1120, 0}";
},
{
name = top;
position = "{1120, 1400}";
}
);
layerId = "E338D14E-1DA5-418D-88BC-8956EEA80AB9";
paths = (
{
closed = 1;
nodes = (
"1104 680 LINE",
"1104 616 LINE",
"1788 616 LINE",
"1788 208 LINE",
"1668 120 OFFCURVE",
"1492 44 OFFCURVE",
"1130 44 CURVE SMOOTH",
"698 44 OFFCURVE",
"328 240 OFFCURVE",
"328 696 CURVE SMOOTH",
"328 1152 OFFCURVE",
"732 1346 OFFCURVE",
"1164 1346 CURVE SMOOTH",
"1462 1346 OFFCURVE",
"1656 1248 OFFCURVE",
"1768 1126 CURVE",
"1836 1170 LINE",
"1706 1308 OFFCURVE",
"1506 1412 OFFCURVE",
"1164 1412 CURVE SMOOTH",
"694 1412 OFFCURVE",
"252 1206 OFFCURVE",
"252 696 CURVE SMOOTH",
"252 186 OFFCURVE",
"660 -22 OFFCURVE",
"1130 -22 CURVE SMOOTH",
"1556 -22 OFFCURVE",
"1748 88 OFFCURVE",
"1858 170 CURVE",
"1858 680 LINE"
);
}
);
width = 2100;
},
{
anchors = (
{
name = bottom;
position = "{488, 0}";
},
{
name = top;
position = "{488, 1400}";
}
);
layerId = "C5C974ED-4386-41E8-AA57-C40E24C26BBD";
paths = (
{
closed = 1;
nodes = (
"464 746 LINE",
"464 508 LINE",
"550 508 LINE",
"550 292 LINE",
"544 266 OFFCURVE",
"520 234 OFFCURVE",
"484 234 CURVE SMOOTH",
"426 234 OFFCURVE",
"370 376 OFFCURVE",
"370 696 CURVE SMOOTH",
"370 1016 OFFCURVE",
"412 1156 OFFCURVE",
"478 1156 CURVE SMOOTH",
"532 1156 OFFCURVE",
"556 1028 OFFCURVE",
"564 944 CURVE",
"846 1058 LINE",
"805 1256 OFFCURVE",
"698 1412 OFFCURVE",
"478 1412 CURVE SMOOTH",
"262 1412 OFFCURVE",
"40 1218 OFFCURVE",
"40 696 CURVE SMOOTH",
"40 172 OFFCURVE",
"260 -22 OFFCURVE",
"484 -22 CURVE SMOOTH",
"674 -22 OFFCURVE",
"808 110 OFFCURVE",
"856 234 CURVE",
"856 746 LINE"
);
}
);
width = 900;
},
{
anchors = (
{
name = bottom;
position = "{1104, 0}";
},
{
name = top;
position = "{1104, 1400}";
}
);
layerId = "DF71BB49-08D0-48AB-8F46-D55A70C0C2BD";
paths = (
{
closed = 1;
nodes = (
"1099 775 LINE",
"1099 495 LINE",
"1536 495 LINE",
"1536 382 LINE",
"1450 331 OFFCURVE",
"1329 302 OFFCURVE",
"1079 302 CURVE SMOOTH",
"839 302 OFFCURVE",
"559 394 OFFCURVE",
"559 696 CURVE SMOOTH",
"559 998 OFFCURVE",
"814 1088 OFFCURVE",
"1091 1088 CURVE SMOOTH",
"1340 1088 OFFCURVE",
"1502 1009 OFFCURVE",
"1589 927 CURVE",
"1935 1149 LINE",
"1800 1289 OFFCURVE",
"1531 1412 OFFCURVE",
"1091 1412 CURVE SMOOTH",
"665 1412 OFFCURVE",
"130 1246 OFFCURVE",
"130 696 CURVE SMOOTH",
"130 143 OFFCURVE",
"669 -22 OFFCURVE",
"1079 -22 CURVE SMOOTH",
"1497 -22 OFFCURVE",
"1803 87 OFFCURVE",
"1945 253 CURVE",
"1945 775 LINE"
);
}
);
width = 2100;
}
);
leftKerningGroup = O;
rightKerningGroup = G;
unicode = 0047;
},
{
glyphname = G.ss01;
lastChange = "2022-02-14 18:21:36 +0000";
layers = (
{
layerId = "2E286313-D5BF-4FB4-A4B7-BD9BC13B574E";
paths = (
{
closed = 1;
nodes = (
"662 -22 OFFCURVE",
"752 170 OFFCURVE",
"752 656 CURVE SMOOTH",
"752 720 LINE",
"476 720 LINE",
"476 656 LINE",
"684 656 LINE",
"684 180 OFFCURVE",
"612 44 OFFCURVE",
"462 44 CURVE SMOOTH",
"288 44 OFFCURVE",
"222 250 OFFCURVE",
"222 696 CURVE SMOOTH",
"222 1142 OFFCURVE",
"306 1346 OFFCURVE",
"460 1346 CURVE SMOOTH",
"600 1346 OFFCURVE",
"644 1175 OFFCURVE",
"658 1106 CURVE",
"717 1144 LINE",
"697 1233 OFFCURVE",
"628 1412 OFFCURVE",
"460 1412 CURVE SMOOTH",
"278 1412 OFFCURVE",
"154 1220 OFFCURVE",
"154 696 CURVE SMOOTH",
"154 170 OFFCURVE",
"266 -22 OFFCURVE",
"462 -22 CURVE SMOOTH"
);
}
);
width = 900;
},
{
layerId = "E338D14E-1DA5-418D-88BC-8956EEA80AB9";
paths = (
{
closed = 1;
nodes = (
"1438 -22 OFFCURVE",
"1844 130 OFFCURVE",
"1844 656 CURVE SMOOTH",
"1844 720 LINE",
"1072 720 LINE",
"1072 656 LINE",
"1772 656 LINE",
"1772 180 OFFCURVE",
"1432 42 OFFCURVE",
"1100 42 CURVE SMOOTH",
"720 42 OFFCURVE",
"356 236 OFFCURVE",
"356 696 CURVE SMOOTH",
"356 1142 OFFCURVE",
"720 1348 OFFCURVE",
"1118 1348 CURVE SMOOTH",
"1416 1348 OFFCURVE",
"1632 1232 OFFCURVE",
"1730 1128 CURVE",
"1786 1176 LINE",
"1686 1284 OFFCURVE",
"1468 1412 OFFCURVE",
"1118 1412 CURVE SMOOTH",
"718 1412 OFFCURVE",
"278 1220 OFFCURVE",
"278 696 CURVE SMOOTH",
"278 170 OFFCURVE",
"702 -22 OFFCURVE",
"1100 -22 CURVE SMOOTH"
);
}
);
width = 2100;
},
{
layerId = "C5C974ED-4386-41E8-AA57-C40E24C26BBD";
paths = (
{
closed = 1;
nodes = (
"705 -22 OFFCURVE",
"820 190 OFFCURVE",
"820 613 CURVE SMOOTH",
"820 805 LINE",
"427 805 LINE",
"427 553 LINE",
"517 553 LINE",
"517 358 OFFCURVE",
"502 249 OFFCURVE",
"441 249 CURVE SMOOTH",
"372 249 OFFCURVE",
"344 317 OFFCURVE",
"344 696 CURVE SMOOTH",
"344 1060 OFFCURVE",
"381 1141 OFFCURVE",
"430 1141 CURVE SMOOTH",
"478 1141 OFFCURVE",
"511 993 OFFCURVE",
"515 935 CURVE",
"795 1054 LINE",
"767 1243 OFFCURVE",
"627 1412 OFFCURVE",
"439 1412 CURVE SMOOTH",
"197 1412 OFFCURVE",
"21 1229 OFFCURVE",
"21 696 CURVE SMOOTH",
"21 161 OFFCURVE",
"178 -22 OFFCURVE",
"441 -22 CURVE SMOOTH"
);
}
);
width = 900;
},
{
layerId = "DF71BB49-08D0-48AB-8F46-D55A70C0C2BD";
paths = (
{
closed = 1;
nodes = (
"1449 -22 OFFCURVE",
"1932 190 OFFCURVE",
"1932 647 CURVE SMOOTH",
"1932 818 LINE",
"1058 818 LINE",
"1058 527 LINE",
"1517 527 LINE",
"1483 392 OFFCURVE",
"1316 276 OFFCURVE",
"1031 276 CURVE SMOOTH",
"819 276 OFFCURVE",
"562 366 OFFCURVE",
"562 696 CURVE SMOOTH",
"562 1027 OFFCURVE",
"831 1114 OFFCURVE",
"1042 1114 CURVE SMOOTH",
"1288 1114 OFFCURVE",
"1462 1015 OFFCURVE",
"1523 938 CURVE",
"1844 1158 LINE",
"1779 1232 OFFCURVE",
"1478 1412 OFFCURVE",
"1047 1412 CURVE SMOOTH",
"608 1412 OFFCURVE",
"126 1187 OFFCURVE",
"126 696 CURVE SMOOTH",
"126 205 OFFCURVE",
"595 -22 OFFCURVE",
"1036 -22 CURVE SMOOTH"
);
}
);
width = 2100;
}
);
},
{
color = 4;
glyphname = H;
lastChange = "2022-02-14 18:30:27 +0000";
layers = (
{
anchors = (
{
name = bottom;
position = "{460, 0}";
},
{
name = center;
position = "{460, 1062}";
},
{
name = top;
position = "{460, 1400}";
},
{
name = topleft;
position = "{20, 1400}";
}
);
layerId = "2E286313-D5BF-4FB4-A4B7-BD9BC13B574E";
paths = (
{
closed = 1;
nodes = (
"652 760 LINE",
"266 760 LINE",
"266 1400 LINE",
"200 1400 LINE",
"200 0 LINE",
"266 0 LINE",
"266 696 LINE",
"652 696 LINE",
"652 0 LINE",
"718 0 LINE",
"718 1400 LINE",
"652 1400 LINE"
);
}
);
width = 900;
},
{
anchors = (
{
name = bottom;
position = "{1050, 0}";
},
{
name = center;
position = "{1050, 1132}";
},
{
name = top;
position = "{1050, 1400}";
},
{
name = topleft;
position = "{70, 1400}";
}
);
layerId = "E338D14E-1DA5-418D-88BC-8956EEA80AB9";
paths = (
{
closed = 1;
nodes = (
"1638 760 LINE",
"460 760 LINE",
"460 1400 LINE",
"390 1400 LINE",
"390 0 LINE",
"460 0 LINE",
"460 696 LINE",
"1638 696 LINE",
"1638 0 LINE",
"1706 0 LINE",
"1706 1400 LINE",
"1638 1400 LINE"
);
}
);
width = 2100;
},
{
anchors = (
{
name = bottom;
position = "{442, 0}";
},
{
name = center;
position = "{442, 1062}";
},
{
name = top;
position = "{442, 1400}";
},
{
name = topleft;
position = "{52, 1400}";
}
);
layerId = "C5C974ED-4386-41E8-AA57-C40E24C26BBD";
paths = (
{
closed = 1;
nodes = (
"486 850 LINE",
"398 850 LINE",
"398 1400 LINE",
"62 1400 LINE",
"62 0 LINE",
"398 0 LINE",
"398 606 LINE",
"486 606 LINE",
"486 0 LINE",
"822 0 LINE",
"822 1400 LINE",
"486 1400 LINE"
);
}
);
width = 900;
},
{
anchors = (
{
name = bottom;
position = "{1026, 0}";
},
{
name = center;
position = "{1026, 1132}";
},
{
name = top;
position = "{1026, 1400}";
},
{
name = topleft;
position = "{114, 1400}";
}
);
layerId = "DF71BB49-08D0-48AB-8F46-D55A70C0C2BD";
paths = (
{
closed = 1;
nodes = (
"1383 882 LINE",
"669 882 LINE",
"669 1400 LINE",
"233 1400 LINE",
"233 0 LINE",
"669 0 LINE",
"669 574 LINE",
"1383 574 LINE",
"1383 0 LINE",
"1817 0 LINE",
"1817 1400 LINE",
"1383 1400 LINE"
);
}
);
width = 2100;
}
);
leftKerningGroup = H;
rightKerningGroup = H;
unicode = 0048;
},
{
glyphname = Hbar;
lastChange = "2022-02-14 18:44:22 +0000";
layers = (
{
anchors = (
{
name = _center;
position = "{460.404, 1062}";
}
);
components = (
{
name = H;
}
);
layerId = "2E286313-D5BF-4FB4-A4B7-BD9BC13B574E";
paths = (
{
closed = 1;
nodes = (
"157 1030 LINE",
"764 1030 LINE",
"764 1094 LINE",
"157 1094 LINE"
);
}
);
width = 900;
},
{
anchors = (
{
name = _center;
position = "{1049.732, 1132}";
}
);
components = (
{
name = H;
}
);
layerId = "E338D14E-1DA5-418D-88BC-8956EEA80AB9";
paths = (
{
closed = 1;
nodes = (
"211 1100 LINE",
"1888 1100 LINE",
"1888 1164 LINE",
"211 1164 LINE"
);
}
);
width = 2100;
},
{
anchors = (
{
name = _center;
position = "{441.682, 1062}";
}
);
components = (
{
name = H;
}
);
layerId = "C5C974ED-4386-41E8-AA57-C40E24C26BBD";
paths = (
{
closed = 1;
nodes = (
"22 962 LINE",
"861 962 LINE",
"861 1162 LINE",
"22 1162 LINE"
);
}
);
width = 900;
},
{
anchors = (
{
name = _center;
position = "{1026.27, 1132}";
}
);
components = (
{
name = H;
}
);
layerId = "DF71BB49-08D0-48AB-8F46-D55A70C0C2BD";
paths = (
{
closed = 1;
nodes = (
"-19 1008 LINE",
"2073 1008 LINE",
"2073 1256 LINE",
"-19 1256 LINE"
);
}
);
width = 2100;
}
);
unicode = 0126;
},
{
color = 4;
glyphname = I;
lastChange = "2022-02-14 18:30:27 +0000";
layers = (
{
anchors = (
{
name = bottom;
position = "{440, 0}";
},
{
name = ogonek;
position = "{690, 0}";
},
{
name = top;
position = "{438, 1400}";
},
{
name = topleft;
position = "{96, 1400}";
}
);
layerId = "2E286313-D5BF-4FB4-A4B7-BD9BC13B574E";
paths = (
{
closed = 1;
nodes = (
"690 1400 LINE",
"186 1400 LINE",
"186 1336 LINE",
"404 1336 LINE",
"404 64 LINE",
"186 64 LINE",
"186 0 LINE",
"690 0 LINE",
"690 64 LINE",
"470 64 LINE",
"470 1336 LINE",
"690 1336 LINE"
);
}
);
width = 900;
},
{
anchors = (
{
name = bottom;
position = "{1050, 0}";
},
{
name = ogonek;
position = "{1698, 0}";
},
{
name = top;
position = "{1050, 1400}";
},
{
name = topleft;
position = "{70, 1400}";
}
);
layerId = "E338D14E-1DA5-418D-88BC-8956EEA80AB9";
paths = (
{
closed = 1;
nodes = (
"1698 1400 LINE",
"396 1400 LINE",
"396 1336 LINE",
"1012 1336 LINE",
"1012 64 LINE",
"396 64 LINE",
"396 0 LINE",
"1698 0 LINE",
"1698 64 LINE",
"1080 64 LINE",
"1080 1336 LINE",
"1698 1336 LINE"
);
}
);
width = 2100;
},
{
anchors = (
{
name = bottom;
position = "{454, 0}";
},
{
name = ogonek;
position = "{779, 0}";
},
{
name = top;
position = "{454, 1400}";
},
{
name = topleft;
position = "{106, 1400}";
}
);
layerId = "C5C974ED-4386-41E8-AA57-C40E24C26BBD";
paths = (
{
closed = 1;
nodes = (
"779 1400 LINE",
"127 1400 LINE",
"127 1156 LINE",
"283 1156 LINE",
"283 244 LINE",
"127 244 LINE",
"127 0 LINE",
"779 0 LINE",
"779 244 LINE",
"619 244 LINE",
"619 1156 LINE",
"779 1156 LINE"
);
}
);
width = 900;
},
{
anchors = (
{
name = bottom;
position = "{1059, 0}";
},
{
name = ogonek;
position = "{1819, 0}";
},
{
name = top;
position = "{1072, 1400}";
},
{
name = topleft;
position = "{84, 1400}";
}
);
layerId = "DF71BB49-08D0-48AB-8F46-D55A70C0C2BD";
paths = (
{
closed = 1;
nodes = (
"1819 1400 LINE",
"316 1400 LINE",
"316 1092 LINE",
"848 1092 LINE",
"848 308 LINE",
"316 308 LINE",
"316 0 LINE",
"1819 0 LINE",
"1819 308 LINE",
"1282 308 LINE",
"1282 1092 LINE",
"1819 1092 LINE"
);
}
);
width = 2100;
}
);
leftKerningGroup = H;
rightKerningGroup = H;
unicode = 0049;
},
{
color = 4;
glyphname = J;
lastChange = "2022-02-14 18:30:27 +0000";
layers = (
{
anchors = (
{
name = bottom;
position = "{364, 0}";
},
{
name = top;
position = "{460, 1400}";
}
);
layerId = "2E286313-D5BF-4FB4-A4B7-BD9BC13B574E";
paths = (
{
closed = 1;
nodes = (
"236 1400 LINE",
"236 1336 LINE",
"546 1336 LINE",
"546 382 LINE SMOOTH",
"546 150 OFFCURVE",
"511 48 OFFCURVE",
"355 48 CURVE SMOOTH",
"267 48 OFFCURVE",
"232 102 OFFCURVE",
"212 146 CURVE",
"161 92 LINE",
"191 44 OFFCURVE",
"251 -18 OFFCURVE",
"359 -18 CURVE SMOOTH",
"541 -18 OFFCURVE",
"612 106 OFFCURVE",
"612 342 CURVE SMOOTH",
"612 1400 LINE"
);
}
);
width = 900;
},
{
anchors = (
{
name = bottom;
position = "{940, 0}";
},
{
name = top;
position = "{992, 1400}";
}
);
layerId = "E338D14E-1DA5-418D-88BC-8956EEA80AB9";
paths = (
{
closed = 1;
nodes = (
"480 1400 LINE",
"480 1336 LINE",
"1452 1336 LINE",
"1452 534 LINE SMOOTH",
"1452 140 OFFCURVE",
"1211 48 OFFCURVE",
"905 48 CURVE SMOOTH",
"599 48 OFFCURVE",
"482 172 OFFCURVE",
"418 262 CURVE",
"356 208 LINE",
"432 110 OFFCURVE",
"585 -18 OFFCURVE",
"909 -18 CURVE SMOOTH",
"1245 -18 OFFCURVE",
"1526 104 OFFCURVE",
"1526 502 CURVE SMOOTH",
"1526 1400 LINE"
);
}
);
width = 2100;
},
{
anchors = (
{
name = bottom;
position = "{440, 0}";
},
{
name = top;
position = "{468, 1400}";
}
);
layerId = "C5C974ED-4386-41E8-AA57-C40E24C26BBD";
paths = (
{
closed = 1;
nodes = (
"120 1400 LINE",
"120 1156 LINE",
"412 1156 LINE",
"412 340 LINE SMOOTH",
"412 264 OFFCURVE",
"383 247 OFFCURVE",
"341 247 CURVE SMOOTH",
"301 247 OFFCURVE",
"272 282 OFFCURVE",
"244 350 CURVE",
"22 146 LINE",
"90 42 OFFCURVE",
"201 -18 OFFCURVE",
"349 -18 CURVE SMOOTH",
"533 -18 OFFCURVE",
"744 59 OFFCURVE",
"744 298 CURVE SMOOTH",
"744 1400 LINE"
);
}
);
width = 900;
},
{
anchors = (
{
name = bottom;
position = "{1043, 0}";
},
{
name = top;
position = "{1003, 1400}";
}
);
layerId = "DF71BB49-08D0-48AB-8F46-D55A70C0C2BD";
paths = (
{
closed = 1;
nodes = (
"323 1400 LINE",
"323 1092 LINE",
"1270 1092 LINE",
"1270 535 LINE SMOOTH",
"1270 353 OFFCURVE",
"1123 306 OFFCURVE",
"935 306 CURVE SMOOTH",
"725 306 OFFCURVE",
"592 437 OFFCURVE",
"516 519 CURVE",
"194 254 LINE",
"294 141 OFFCURVE",
"548 -18 OFFCURVE",
"929 -18 CURVE SMOOTH",
"1365 -18 OFFCURVE",
"1705 125 OFFCURVE",
"1705 507 CURVE SMOOTH",
"1705 1400 LINE"
);
}
);
width = 2100;
}
);
leftKerningGroup = J;
rightKerningGroup = J;
unicode = 004A;
},
{
color = 4;
glyphname = K;
lastChange = "2022-02-14 18:30:27 +0000";
layers = (
{
anchors = (
{
name = bottom;
position = "{480, 0}";
},
{
name = top;
position = "{480, 1400}";
}
);
layerId = "2E286313-D5BF-4FB4-A4B7-BD9BC13B574E";
paths = (
{
closed = 1;
nodes = (
"754 0 LINE",
"412 712 LINE",
"720 1400 LINE",
"648 1400 LINE",
"362 750 LINE",
"332 750 LINE",
"332 1400 LINE",
"266 1400 LINE",
"266 0 LINE",
"332 0 LINE",
"332 686 LINE",
"352 686 LINE",
"682 0 LINE"
);
}
);
width = 900;
},
{
anchors = (
{
name = bottom;
position = "{1090, 0}";
},
{
name = top;
position = "{1090, 1400}";
}
);
layerId = "E338D14E-1DA5-418D-88BC-8956EEA80AB9";
paths = (
{
closed = 1;
nodes = (
"1758 0 LINE",
"896 716 LINE",
"1700 1400 LINE",
"1598 1400 LINE",
"836 750 LINE",
"622 750 LINE",
"622 1400 LINE",
"554 1400 LINE",
"554 0 LINE",
"622 0 LINE",
"622 686 LINE",
"824 686 LINE",
"1656 0 LINE"
);
}
);
width = 2100;
},
{
anchors = (
{
name = bottom;
position = "{490, 0}";
},
{
name = top;
position = "{490, 1400}";
}
);
layerId = "C5C974ED-4386-41E8-AA57-C40E24C26BBD";
paths = (
{
closed = 1;
nodes = (
"884 0 LINE",
"694 706 LINE",
"856 1400 LINE",
"504 1400 LINE",
"424 830 LINE",
"412 830 LINE",
"412 1400 LINE",
"76 1400 LINE",
"76 0 LINE",
"412 0 LINE",
"412 586 LINE",
"424 586 LINE",
"530 0 LINE"
);
}
);
width = 900;
},
{
anchors = (
{
name = bottom;
position = "{1103, 0}";
},
{
name = top;
position = "{1103, 1400}";
}
);
layerId = "DF71BB49-08D0-48AB-8F46-D55A70C0C2BD";
paths = (
{
closed = 1;
nodes = (
"1907 0 LINE",
"1202 712 LINE",
"1857 1400 LINE",
"1365 1400 LINE",
"869 869 LINE",
"730 869 LINE",
"730 1400 LINE",
"296 1400 LINE",
"296 0 LINE",
"730 0 LINE",
"730 547 LINE",
"872 547 LINE",
"1412 0 LINE"
);
}
);
width = 2100;
}
);
leftKerningGroup = H;
rightKerningGroup = K;
unicode = 004B;
},
{
color = 4;
glyphname = L;
lastChange = "2022-02-14 18:30:27 +0000";
layers = (
{
anchors = (
{
name = bottom;
position = "{500, 0}";
},
{
name = center;
position = "{276, 666}";
},
{
name = top;
position = "{500, 1400}";
},
{
name = topright;
position = "{850, 1400}";
}
);
layerId = "2E286313-D5BF-4FB4-A4B7-BD9BC13B574E";
paths = (
{
closed = 1;
nodes = (
"332 1400 LINE",
"266 1400 LINE",
"266 0 LINE",
"774 0 LINE",
"774 64 LINE",
"332 64 LINE"
);
}
);
width = 900;
},
{
anchors = (
{
name = bottom;
position = "{1090, 0}";
},
{
name = center;
position = "{658, 666}";
},
{
name = top;
position = "{1090, 1400}";
},
{
name = topright;
position = "{1702, 1400}";
}
);
layerId = "E338D14E-1DA5-418D-88BC-8956EEA80AB9";
paths = (
{
closed = 1;
nodes = (
"578 1400 LINE",
"506 1400 LINE",
"506 0 LINE",
"1790 0 LINE",
"1790 64 LINE",
"578 64 LINE"
);
}
);
width = 2100;
},
{
anchors = (
{
name = bottom;
position = "{530, 0}";
},
{
name = center;
position = "{312, 700}";
},
{
name = top;
position = "{490, 1400}";
},
{
name = topright;
position = "{702, 1400}";
}
);
layerId = "C5C974ED-4386-41E8-AA57-C40E24C26BBD";
paths = (
{
closed = 1;
nodes = (
"498 1400 LINE",
"162 1400 LINE",
"162 0 LINE",
"816 0 LINE",
"816 244 LINE",
"498 244 LINE"
);
}
);
width = 900;
},
{
anchors = (
{
name = bottom;
position = "{1131, 0}";
},
{
name = center;
position = "{707, 712}";
},
{
name = top;
position = "{1077, 1400}";
},
{
name = topright;
position = "{1501, 1400}";
}
);
layerId = "DF71BB49-08D0-48AB-8F46-D55A70C0C2BD";
paths = (
{
closed = 1;
nodes = (
"803 1400 LINE",
"365 1400 LINE",
"365 0 LINE",
"1847 0 LINE",
"1847 308 LINE",
"803 308 LINE"
);
}
);
width = 2100;
}
);
leftKerningGroup = H;
rightKerningGroup = L;
unicode = 004C;
},
{
glyphname = Lslash;
lastChange = "2020-04-30 15:52:49 +0000";
layers = (
{
components = (
{
name = L;
transform = "{1, 0, 0, 1, 40, 0}";
}
);
layerId = "2E286313-D5BF-4FB4-A4B7-BD9BC13B574E";
paths = (
{
closed = 1;
nodes = (
"94 416 LINE",
"598 920 LINE",
"598 1002 LINE",
"94 496 LINE"
);
}
);
width = 900;
},
{
components = (
{
name = L;
transform = "{1, 0, 0, 1, 144, 0}";
}
);
layerId = "E338D14E-1DA5-418D-88BC-8956EEA80AB9";
paths = (
{
closed = 1;
nodes = (
"424 416 LINE",
"928 920 LINE",
"928 1002 LINE",
"424 496 LINE"
);
}
);
width = 2100;
},
{
components = (
{
alignment = -1;
name = L;
transform = "{1, 0, 0, 1, -8, 0}";
}
);
layerId = "C5C974ED-4386-41E8-AA57-C40E24C26BBD";
paths = (
{
closed = 1;
nodes = (
"-30 266 LINE",
"694 870 LINE",
"694 1152 LINE",
"-30 546 LINE"
);
}
);
width = 900;
},
{
components = (
{
alignment = -1;
name = L;
transform = "{1, 0, 0, 1, 79, 0}";
}
);
layerId = "DF71BB49-08D0-48AB-8F46-D55A70C0C2BD";
paths = (
{
closed = 1;
nodes = (
"256 212 LINE",
"1059 852 LINE",
"1059 1206 LINE",
"256 564 LINE"
);
}
);
width = 2100;
}
);
unicode = 0141;
},
{
color = 4;
glyphname = M;
lastChange = "2022-02-14 18:30:27 +0000";
layers = (
{
anchors = (
{
name = bottom;
position = "{460, 0}";
},
{
name = top;
position = "{460, 1400}";
}
);
layerId = "2E286313-D5BF-4FB4-A4B7-BD9BC13B574E";
paths = (
{
closed = 1;
nodes = (
"492 140 LINE",
"698 1344 LINE",
"698 1400 LINE",
"638 1400 LINE",
"458 290 LINE",
"432 140 LINE"
);
},
{
closed = 1;
nodes = (
"192 0 LINE",
"234 1400 LINE",
"172 1400 LINE",
"124 0 LINE"
);
},
{
closed = 1;
nodes = (
"488 140 LINE",
"460 290 LINE",
"282 1400 LINE",
"222 1400 LINE",
"222 1344 LINE",
"426 140 LINE"
);
},
{
closed = 1;
nodes = (
"796 0 LINE",
"748 1400 LINE",
"686 1400 LINE",
"728 0 LINE"
);
}
);
width = 900;
},
{
anchors = (
{
name = bottom;
position = "{1050, 0}";
},
{
name = top;
position = "{1050, 1400}";
}
);
layerId = "E338D14E-1DA5-418D-88BC-8956EEA80AB9";
paths = (
{
closed = 1;
nodes = (
"1098 80 LINE",
"1650 1278 LINE",
"1668 1400 LINE",
"1626 1400 LINE",
"1048 148 LINE",
"1018 80 LINE"
);
},
{
closed = 1;
nodes = (
"320 0 LINE",
"466 1400 LINE",
"394 1400 LINE",
"246 0 LINE"
);
},
{
closed = 1;
nodes = (
"1078 80 LINE",
"1048 148 LINE",
"474 1400 LINE",
"440 1400 LINE",
"450 1278 LINE",
"998 80 LINE"
);
},
{
closed = 1;
nodes = (
"1856 0 LINE",
"1706 1400 LINE",
"1636 1400 LINE",
"1782 0 LINE"
);
}
);
width = 2100;
},
{
anchors = (
{
name = bottom;
position = "{452, 0}";
},
{
name = top;
position = "{452, 1400}";
}
);
layerId = "C5C974ED-4386-41E8-AA57-C40E24C26BBD";
paths = (
{
closed = 1;
nodes = (
"550 222 LINE",
"620 1032 LINE",
"640 1400 LINE",
"514 1400 LINE",
"458 800 LINE",
"418 222 LINE"
);
},
{
closed = 1;
nodes = (
"290 0 LINE",
"288 1400 LINE",
"46 1400 LINE",
"16 0 LINE"
);
},
{
closed = 1;
nodes = (
"488 222 LINE",
"452 800 LINE",
"390 1400 LINE",
"262 1400 LINE",
"286 1032 LINE",
"356 222 LINE"
);
},
{
closed = 1;
nodes = (
"888 0 LINE",
"858 1400 LINE",
"616 1400 LINE",
"614 0 LINE"
);
}
);
width = 900;
},
{
anchors = (
{
name = bottom;
position = "{1039, 0}";
},
{
name = top;
position = "{1039, 1400}";
}
);
layerId = "DF71BB49-08D0-48AB-8F46-D55A70C0C2BD";
paths = (
{
closed = 1;
nodes = (
"1200 191 LINE",
"1544 945 LINE",
"1589 1400 LINE",
"1400 1400 LINE",
"1030 577 LINE",
"1009 191 LINE"
);
},
{
closed = 1;
nodes = (
"477 0 LINE",
"623 1400 LINE",
"246 1400 LINE",
"49 0 LINE"
);
},
{
closed = 1;
nodes = (
"1068 191 LINE",
"1054 577 LINE",
"677 1400 LINE",
"494 1400 LINE",
"536 945 LINE",
"879 191 LINE"
);
},
{
closed = 1;
nodes = (
"2030 0 LINE",
"1831 1400 LINE",
"1456 1400 LINE",
"1603 0 LINE"
);
}
);
width = 2100;
}
);
leftKerningGroup = M;
rightKerningGroup = M;
unicode = 004D;
},
{
color = 4;
glyphname = N;
lastChange = "2022-02-14 18:30:27 +0000";
layers = (
{
anchors = (
{
name = bottom;
position = "{460, 0}";
},
{
name = top;
position = "{460, 1400}";
}
);
layerId = "2E286313-D5BF-4FB4-A4B7-BD9BC13B574E";
paths = (
{
closed = 1;
nodes = (
"696 150 LINE",
"224 1400 LINE",
"142 1400 LINE",
"142 0 LINE",
"208 0 LINE",
"208 1254 LINE",
"680 0 LINE",
"762 0 LINE",
"762 1400 LINE",
"696 1400 LINE"
);
}
);
width = 900;
},
{
anchors = (
{
name = bottom;
position = "{1050, 0}";
},
{
name = top;
position = "{1050, 1400}";
}
);
layerId = "E338D14E-1DA5-418D-88BC-8956EEA80AB9";
paths = (
{
closed = 1;
nodes = (
"1664 94 LINE",
"442 1400 LINE",
"378 1400 LINE",
"378 0 LINE",
"444 0 LINE",
"444 1304 LINE",
"1666 0 LINE",
"1728 0 LINE",
"1728 1400 LINE",
"1664 1400 LINE"
);
}
);
width = 2100;
},
{
anchors = (
{
name = bottom;
position = "{412, 0}";
},
{
name = top;
position = "{412, 1400}";
}
);
layerId = "C5C974ED-4386-41E8-AA57-C40E24C26BBD";
paths = (
{
closed = 1;
nodes = (
"556 593 LINE",
"400 1400 LINE",
"58 1400 LINE",
"58 0 LINE",
"344 0 LINE",
"344 745 LINE",
"496 0 LINE",
"844 0 LINE",
"844 1400 LINE",
"556 1400 LINE"
);
}
);
width = 900;
},
{
anchors = (
{
name = bottom;
position = "{985, 0}";
},
{
name = top;
position = "{985, 1400}";
}
);
layerId = "DF71BB49-08D0-48AB-8F46-D55A70C0C2BD";
paths = (
{
closed = 1;
nodes = (
"1449 497 LINE",
"706 1400 LINE",
"223 1400 LINE",
"223 0 LINE",
"628 0 LINE",
"628 904 LINE",
"1379 0 LINE",
"1855 0 LINE",
"1855 1400 LINE",
"1449 1400 LINE"
);
}
);
width = 2100;
}
);
leftKerningGroup = H;
rightKerningGroup = H;
unicode = 004E;
},
{
glyphname = Eng;
lastChange = "2022-02-14 18:59:09 +0000";
layers = (
{
layerId = "2E286313-D5BF-4FB4-A4B7-BD9BC13B574E";
paths = (
{
closed = 1;
nodes = (
"660 -384 OFFCURVE",
"742 -250 OFFCURVE",
"742 -14 CURVE SMOOTH",
"742 1400 LINE",
"676 1400 LINE",
"676 200 LINE",
"228 1400 LINE",
"162 1400 LINE",
"162 0 LINE",
"228 0 LINE",
"228 1204 LINE",
"682 -14 LINE",
"676 22 LINE",
"676 -250 OFFCURVE",
"608 -318 OFFCURVE",
"476 -318 CURVE SMOOTH",
"414 -318 OFFCURVE",
"338 -298 OFFCURVE",
"314 -290 CURVE",
"300 -356 LINE",
"336 -368 OFFCURVE",
"408 -384 OFFCURVE",
"486 -384 CURVE SMOOTH"
);
}
);
width = 900;
},
{
layerId = "E338D14E-1DA5-418D-88BC-8956EEA80AB9";
paths = (
{
closed = 1;
nodes = (
"1478 -384 OFFCURVE",
"1688 -283 OFFCURVE",
"1688 -14 CURVE SMOOTH",
"1688 1400 LINE",
"1624 1400 LINE",
"1624 102 LINE",
"484 1400 LINE",
"418 1400 LINE",
"418 0 LINE",
"484 0 LINE",
"484 1296 LINE",
"1627 -5 LINE",
"1622 28 LINE",
"1622 -244 OFFCURVE",
"1453 -318 OFFCURVE",
"1242 -318 CURVE SMOOTH",
"1120 -318 OFFCURVE",
"908 -278 OFFCURVE",
"876 -270 CURVE",
"858 -336 LINE",
"906 -348 OFFCURVE",
"1102 -384 OFFCURVE",
"1246 -384 CURVE SMOOTH"
);
}
);
width = 2100;
},
{
layerId = "C5C974ED-4386-41E8-AA57-C40E24C26BBD";
paths = (
{
closed = 1;
nodes = (
"680 -384 OFFCURVE",
"830 -264 OFFCURVE",
"830 -24 CURVE SMOOTH",
"830 1400 LINE",
"522 1400 LINE",
"522 833 LINE",
"362 1400 LINE",
"50 1400 LINE",
"50 0 LINE",
"356 0 LINE",
"356 565 LINE",
"552 0 LINE",
"544 50 LINE",
"543 -25 OFFCURVE",
"535 -138 OFFCURVE",
"458 -138 CURVE SMOOTH",
"396 -138 OFFCURVE",
"342 -130 OFFCURVE",
"314 -118 CURVE",
"252 -364 LINE",
"294 -376 OFFCURVE",
"392 -384 OFFCURVE",
"474 -384 CURVE SMOOTH"
);
}
);
width = 900;
},
{
layerId = "DF71BB49-08D0-48AB-8F46-D55A70C0C2BD";
paths = (
{
closed = 1;
nodes = (
"1267 -384 OFFCURVE",
"1766 -325 OFFCURVE",
"1766 -28 CURVE SMOOTH",
"1766 1400 LINE",
"1374 1400 LINE",
"1374 488 LINE",
"638 1400 LINE",
"225 1400 LINE",
"225 0 LINE",
"617 0 LINE",
"617 831 LINE",
"1368 -10 LINE",
"1368 0 LINE",
"1368 -38 OFFCURVE",
"1314 -84 OFFCURVE",
"1044 -84 CURVE SMOOTH",
"923 -84 OFFCURVE",
"761 -50 OFFCURVE",
"724 -37 CURVE",
"641 -347 LINE",
"697 -359 OFFCURVE",
"844 -384 OFFCURVE",
"992 -384 CURVE SMOOTH"
);
}
);
width = 2100;
}
);
unicode = 014A;
},
{
color = 4;
glyphname = O;
lastChange = "2022-02-14 18:30:27 +0000";
layers = (
{
anchors = (
{
name = bottom;
position = "{456, 0}";
},
{
name = center;
position = "{456, 700}";
},
{
name = ogonek;
position = "{606, 43}";
},
{
name = top;
position = "{478, 1400}";
},
{
name = topleft;
position = "{120, 1400}";
},
{
name = topright;
position = "{623, 1320}";
}
);
layerId = "2E286313-D5BF-4FB4-A4B7-BD9BC13B574E";
paths = (
{
closed = 1;
nodes = (
"598 -22 OFFCURVE",
"766 100 OFFCURVE",
"766 696 CURVE SMOOTH",
"766 1290 OFFCURVE",
"598 1412 OFFCURVE",
"456 1412 CURVE SMOOTH",
"312 1412 OFFCURVE",
"144 1290 OFFCURVE",
"144 696 CURVE SMOOTH",
"144 100 OFFCURVE",
"312 -22 OFFCURVE",
"456 -22 CURVE SMOOTH"
);
},
{
closed = 1;
nodes = (
"350 44 OFFCURVE",
"212 158 OFFCURVE",
"212 696 CURVE SMOOTH",
"212 1232 OFFCURVE",
"350 1346 OFFCURVE",
"456 1346 CURVE SMOOTH",
"560 1346 OFFCURVE",
"698 1232 OFFCURVE",
"698 696 CURVE SMOOTH",
"698 158 OFFCURVE",
"560 44 OFFCURVE",
"456 44 CURVE SMOOTH"
);
}
);
width = 900;
},
{
anchors = (
{
name = bottom;
position = "{1036, 0}";
},
{
name = center;
position = "{1050, 700}";
},
{
name = ogonek;
position = "{1472, 73}";
},
{
name = top;
position = "{1050, 1400}";
},
{
name = topleft;
position = "{70, 1400}";
},
{
name = topright;
position = "{1449, 1320}";
}
);
layerId = "E338D14E-1DA5-418D-88BC-8956EEA80AB9";
paths = (
{
closed = 1;
nodes = (
"1448 -22 OFFCURVE",
"1866 200 OFFCURVE",
"1866 696 CURVE SMOOTH",
"1866 1190 OFFCURVE",
"1448 1412 OFFCURVE",
"1052 1412 CURVE SMOOTH",
"652 1412 OFFCURVE",
"234 1190 OFFCURVE",
"234 696 CURVE SMOOTH",
"234 200 OFFCURVE",
"652 -22 OFFCURVE",
"1052 -22 CURVE SMOOTH"
);
},
{
closed = 1;
nodes = (
"692 44 OFFCURVE",
"310 248 OFFCURVE",
"310 696 CURVE SMOOTH",
"310 1142 OFFCURVE",
"692 1346 OFFCURVE",
"1052 1346 CURVE SMOOTH",
"1408 1346 OFFCURVE",
"1790 1142 OFFCURVE",
"1790 696 CURVE SMOOTH",
"1790 248 OFFCURVE",
"1408 44 OFFCURVE",
"1052 44 CURVE SMOOTH"
);
}
);
width = 2100;
},
{
anchors = (
{
name = bottom;
position = "{440, 0}";
},
{
name = center;
position = "{440, 700}";
},
{
name = ogonek;
position = "{648, 43}";
},
{
name = top;
position = "{450, 1400}";
},
{
name = topleft;
position = "{98, 1400}";
},
{
name = topright;
position = "{593, 1320}";
}
);
layerId = "C5C974ED-4386-41E8-AA57-C40E24C26BBD";
paths = (
{
closed = 1;
nodes = (
"674 -22 OFFCURVE",
"836 128 OFFCURVE",
"836 696 CURVE SMOOTH",
"836 1262 OFFCURVE",
"674 1412 OFFCURVE",
"440 1412 CURVE SMOOTH",
"206 1412 OFFCURVE",
"42 1262 OFFCURVE",
"42 696 CURVE SMOOTH",
"42 128 OFFCURVE",
"206 -22 OFFCURVE",
"440 -22 CURVE SMOOTH"
);
},
{
closed = 1;
nodes = (
"388 234 OFFCURVE",
"386 356 OFFCURVE",
"386 696 CURVE SMOOTH",
"386 1034 OFFCURVE",
"388 1156 OFFCURVE",
"440 1156 CURVE SMOOTH",
"492 1156 OFFCURVE",
"494 1034 OFFCURVE",
"494 696 CURVE SMOOTH",
"494 356 OFFCURVE",
"492 234 OFFCURVE",
"440 234 CURVE SMOOTH"
);
}
);
width = 900;
},
{
anchors = (
{
name = bottom;
position = "{1014, 0}";
},
{
name = center;
position = "{1028, 700}";
},
{
name = ogonek;
position = "{1512, 73}";
},
{
name = top;
position = "{1012, 1400}";
},
{
name = topleft;
position = "{40, 1400}";
},
{
name = topright;
position = "{1408, 1320}";
}
);
layerId = "DF71BB49-08D0-48AB-8F46-D55A70C0C2BD";
paths = (
{
closed = 1;
nodes = (
"1579 -22 OFFCURVE",
"1947 259 OFFCURVE",
"1947 696 CURVE SMOOTH",
"1947 1131 OFFCURVE",
"1579 1412 OFFCURVE",
"1030 1412 CURVE SMOOTH",
"480 1412 OFFCURVE",
"109 1131 OFFCURVE",
"109 696 CURVE SMOOTH",
"109 259 OFFCURVE",
"480 -22 OFFCURVE",
"1030 -22 CURVE SMOOTH"
);
},
{
closed = 1;
nodes = (
"707 302 OFFCURVE",
"560 477 OFFCURVE",
"560 696 CURVE SMOOTH",
"560 913 OFFCURVE",
"707 1088 OFFCURVE",
"1030 1088 CURVE SMOOTH",
"1352 1088 OFFCURVE",
"1499 913 OFFCURVE",
"1499 696 CURVE SMOOTH",
"1499 477 OFFCURVE",
"1352 302 OFFCURVE",
"1030 302 CURVE SMOOTH"
);
}
);
width = 2100;
}
);
leftKerningGroup = O;
rightKerningGroup = O;
unicode = 004F;
},
{
glyphname = Ohorn;
lastChange = "2022-02-14 18:36:53 +0000";
layers = (
{
anchors = (
{
name = bottom;
position = "{440, 0}";
},
{
name = center;
position = "{440, 700}";
},
{
name = ogonek;
position = "{648, 43}";
},
{
name = top;
position = "{450, 1400}";
},
{
name = topleft;
position = "{98, 1400}";
},
{
name = topright;
position = "{593, 1320}";
}
);
components = (
{
name = horncomb;
transform = "{1, 0, 0, 1, 300, 179}";
}
);
layerId = "C5C974ED-4386-41E8-AA57-C40E24C26BBD";
paths = (
{
closed = 1;
nodes = (
"674 -22 OFFCURVE",
"836 128 OFFCURVE",
"836 696 CURVE SMOOTH",
"836 1262 OFFCURVE",
"674 1412 OFFCURVE",
"440 1412 CURVE SMOOTH",
"206 1412 OFFCURVE",
"42 1262 OFFCURVE",
"42 696 CURVE SMOOTH",
"42 128 OFFCURVE",
"206 -22 OFFCURVE",
"440 -22 CURVE SMOOTH"
);
},
{
closed = 1;
nodes = (
"388 234 OFFCURVE",
"386 356 OFFCURVE",
"386 696 CURVE SMOOTH",
"386 1034 OFFCURVE",
"388 1156 OFFCURVE",
"440 1156 CURVE SMOOTH",
"492 1156 OFFCURVE",
"494 1034 OFFCURVE",
"494 696 CURVE SMOOTH",
"494 356 OFFCURVE",
"492 234 OFFCURVE",
"440 234 CURVE SMOOTH"
);
}
);
width = 900;
},
{
anchors = (
{
name = bottom;
position = "{456, 0}";
},
{
name = center;
position = "{456, 700}";
},
{
name = ogonek;
position = "{606, 43}";
},
{
name = top;
position = "{478, 1400}";
},
{
name = topleft;
position = "{120, 1400}";
},
{
name = topright;
position = "{623, 1320}";
}
);
components = (
{
name = horncomb;
transform = "{1, 0, 0, 1, 282, 171}";
}
);
layerId = "2E286313-D5BF-4FB4-A4B7-BD9BC13B574E";
paths = (
{
closed = 1;
nodes = (
"598 -22 OFFCURVE",
"766 100 OFFCURVE",
"766 696 CURVE SMOOTH",
"766 1290 OFFCURVE",
"598 1412 OFFCURVE",
"456 1412 CURVE SMOOTH",
"312 1412 OFFCURVE",
"144 1290 OFFCURVE",
"144 696 CURVE SMOOTH",
"144 100 OFFCURVE",
"312 -22 OFFCURVE",
"456 -22 CURVE SMOOTH"
);
},
{
closed = 1;
nodes = (
"350 44 OFFCURVE",
"212 158 OFFCURVE",
"212 696 CURVE SMOOTH",
"212 1232 OFFCURVE",
"350 1346 OFFCURVE",
"456 1346 CURVE SMOOTH",
"560 1346 OFFCURVE",
"698 1232 OFFCURVE",
"698 696 CURVE SMOOTH",
"698 158 OFFCURVE",
"560 44 OFFCURVE",
"456 44 CURVE SMOOTH"
);
}
);
width = 900;
},
{
anchors = (
{
name = bottom;
position = "{1036, 0}";
},
{
name = center;
position = "{1050, 700}";
},
{
name = ogonek;
position = "{1472, 73}";
},
{
name = top;
position = "{1050, 1400}";
},
{
name = topleft;
position = "{70, 1400}";
},
{
name = topright;
position = "{1449, 1320}";
}
);
components = (
{
name = horncomb;
transform = "{1, 0, 0, 1, 497, 171}";
}
);
layerId = "E338D14E-1DA5-418D-88BC-8956EEA80AB9";
paths = (
{
closed = 1;
nodes = (
"1448 -22 OFFCURVE",
"1866 200 OFFCURVE",
"1866 696 CURVE SMOOTH",
"1866 1190 OFFCURVE",
"1448 1412 OFFCURVE",
"1052 1412 CURVE SMOOTH",
"652 1412 OFFCURVE",
"234 1190 OFFCURVE",
"234 696 CURVE SMOOTH",
"234 200 OFFCURVE",
"652 -22 OFFCURVE",
"1052 -22 CURVE SMOOTH"
);
},
{
closed = 1;
nodes = (
"692 44 OFFCURVE",
"310 248 OFFCURVE",
"310 696 CURVE SMOOTH",
"310 1142 OFFCURVE",
"692 1346 OFFCURVE",
"1052 1346 CURVE SMOOTH",
"1408 1346 OFFCURVE",
"1790 1142 OFFCURVE",
"1790 696 CURVE SMOOTH",
"1790 248 OFFCURVE",
"1408 44 OFFCURVE",
"1052 44 CURVE SMOOTH"
);
}
);
width = 2100;
},
{
anchors = (
{
name = bottom;
position = "{1014, 0}";
},
{
name = center;
position = "{1028, 700}";
},
{
name = ogonek;
position = "{1512, 73}";
},
{
name = top;
position = "{1012, 1400}";
},
{
name = topleft;
position = "{40, 1400}";
},
{
name = topright;
position = "{1408, 1320}";
}
);
components = (
{
name = horncomb;
transform = "{1, 0, 0, 1, 521, 182}";
}
);
layerId = "DF71BB49-08D0-48AB-8F46-D55A70C0C2BD";
paths = (
{
closed = 1;
nodes = (
"1579 -22 OFFCURVE",
"1947 259 OFFCURVE",
"1947 696 CURVE SMOOTH",
"1947 1131 OFFCURVE",
"1579 1412 OFFCURVE",
"1030 1412 CURVE SMOOTH",
"480 1412 OFFCURVE",
"109 1131 OFFCURVE",
"109 696 CURVE SMOOTH",
"109 259 OFFCURVE",
"480 -22 OFFCURVE",
"1030 -22 CURVE SMOOTH"
);
},
{
closed = 1;
nodes = (
"707 302 OFFCURVE",
"560 477 OFFCURVE",
"560 696 CURVE SMOOTH",
"560 913 OFFCURVE",
"707 1088 OFFCURVE",
"1030 1088 CURVE SMOOTH",
"1352 1088 OFFCURVE",
"1499 913 OFFCURVE",
"1499 696 CURVE SMOOTH",
"1499 477 OFFCURVE",
"1352 302 OFFCURVE",
"1030 302 CURVE SMOOTH"
);
}
);
width = 2100;
}
);
unicode = 01A0;
},
{
glyphname = Oslash;
lastChange = "2022-02-14 18:37:21 +0000";
layers = (
{
anchors = (
{
name = _center;
position = "{456, 700}";
}
);
components = (
{
name = O;
}
);
layerId = "2E286313-D5BF-4FB4-A4B7-BD9BC13B574E";
paths = (
{
closed = 1;
nodes = (
"818 1460 LINE",
"22 -60 LINE",
"102 -60 LINE",
"898 1460 LINE"
);
}
);
width = 900;
},
{
anchors = (
{
name = _center;
position = "{1050, 700}";
}
);
components = (
{
name = O;
}
);
layerId = "E338D14E-1DA5-418D-88BC-8956EEA80AB9";
paths = (
{
closed = 1;
nodes = (
"1554 1460 LINE",
"462 -60 LINE",
"546 -60 LINE",
"1638 1460 LINE"
);
}
);
width = 2100;
},
{
anchors = (
{
name = _center;
position = "{440, 700}";
}
);
components = (
{
name = O;
}
);
layerId = "C5C974ED-4386-41E8-AA57-C40E24C26BBD";
paths = (
{
closed = 1;
nodes = (
"758 1500 LINE",
"-112 -100 LINE",
"126 -100 LINE",
"998 1500 LINE"
);
}
);
width = 900;
},
{
anchors = (
{
name = _center;
position = "{1028, 700}";
}
);
components = (
{
name = O;
}
);
layerId = "DF71BB49-08D0-48AB-8F46-D55A70C0C2BD";
paths = (
{
closed = 1;
nodes = (
"1432 1514 LINE",
"240 -114 LINE",
"618 -114 LINE",
"1814 1514 LINE"
);
}
);
width = 2100;
}
);
unicode = 00D8;
},
{
glyphname = OE;
lastChange = "2020-04-30 15:52:17 +0000";
layers = (
{
anchors = (
{
name = bottom;
position = "{450, 0}";
},
{
name = top;
position = "{450, 1400}";
}
);
layerId = "2E286313-D5BF-4FB4-A4B7-BD9BC13B574E";
paths = (
{
closed = 1;
nodes = (
"402 -22 OFFCURVE",
"446 -16 OFFCURVE",
"478 0 CURVE",
"472 68 LINE",
"438 50 OFFCURVE",
"404 44 OFFCURVE",
"366 44 CURVE SMOOTH",
"256 44 OFFCURVE",
"132 158 OFFCURVE",
"132 696 CURVE SMOOTH",
"132 1232 OFFCURVE",
"256 1346 OFFCURVE",
"366 1346 CURVE SMOOTH",
"404 1346 OFFCURVE",
"438 1340 OFFCURVE",
"472 1322 CURVE",
"466 1400 LINE",
"436 1408 OFFCURVE",
"402 1412 OFFCURVE",
"366 1412 CURVE SMOOTH",
"236 1412 OFFCURVE",
"56 1290 OFFCURVE",
"56 696 CURVE SMOOTH",
"56 100 OFFCURVE",
"236 -22 OFFCURVE",
"366 -22 CURVE SMOOTH"
);
},
{
closed = 1;
nodes = (
"862 1400 LINE",
"466 1400 LINE",
"466 0 LINE",
"862 0 LINE",
"862 64 LINE",
"536 64 LINE",
"536 656 LINE",
"844 656 LINE",
"844 720 LINE",
"536 720 LINE",
"536 1336 LINE",
"862 1336 LINE"
);
}
);
width = 900;
},
{
anchors = (
{
name = bottom;
position = "{1050, 0}";
},
{
name = top;
position = "{1050, 1400}";
}
);
layerId = "E338D14E-1DA5-418D-88BC-8956EEA80AB9";
paths = (
{
closed = 1;
nodes = (
"896 -22 OFFCURVE",
"998 -16 OFFCURVE",
"1074 0 CURVE",
"1058 68 LINE",
"980 50 OFFCURVE",
"900 44 OFFCURVE",
"812 44 CURVE SMOOTH",
"556 44 OFFCURVE",
"238 158 OFFCURVE",
"238 696 CURVE SMOOTH",
"238 1232 OFFCURVE",
"556 1346 OFFCURVE",
"812 1346 CURVE SMOOTH",
"900 1346 OFFCURVE",
"980 1340 OFFCURVE",
"1058 1322 CURVE",
"1046 1400 LINE",
"968 1412 OFFCURVE",
"896 1412 OFFCURVE",
"812 1412 CURVE SMOOTH",
"508 1412 OFFCURVE",
"160 1290 OFFCURVE",
"160 696 CURVE SMOOTH",
"160 100 OFFCURVE",
"508 -22 OFFCURVE",
"812 -22 CURVE SMOOTH"
);
},
{
closed = 1;
nodes = (
"1968 1400 LINE",
"1046 1400 LINE",
"1046 0 LINE",
"1968 0 LINE",
"1968 64 LINE",
"1114 64 LINE",
"1114 656 LINE",
"1884 656 LINE",
"1884 720 LINE",
"1114 720 LINE",
"1114 1336 LINE",
"1968 1336 LINE"
);
}
);
width = 2100;
},
{
anchors = (
{
name = bottom;
position = "{408, 0}";
},
{
name = top;
position = "{408, 1400}";
}
);
layerId = "C5C974ED-4386-41E8-AA57-C40E24C26BBD";
paths = (
{
closed = 1;
nodes = (
"370 -22 OFFCURVE",
"418 -6 OFFCURVE",
"462 38 CURVE",
"354 276 LINE",
"338 240 OFFCURVE",
"334 224 OFFCURVE",
"314 224 CURVE SMOOTH",
"274 224 OFFCURVE",
"288 288 OFFCURVE",
"288 696 CURVE SMOOTH",
"288 1102 OFFCURVE",
"274 1166 OFFCURVE",
"314 1166 CURVE SMOOTH",
"336 1166 OFFCURVE",
"338 1152 OFFCURVE",
"354 1112 CURVE",
"484 1338 LINE",
"438 1390 OFFCURVE",
"376 1412 OFFCURVE",
"314 1412 CURVE SMOOTH",
"156 1412 OFFCURVE",
"-28 1310 OFFCURVE",
"-28 696 CURVE SMOOTH",
"-28 80 OFFCURVE",
"156 -22 OFFCURVE",
"314 -22 CURVE SMOOTH"
);
},
{
closed = 1;
nodes = (
"814 1400 LINE",
"334 1400 LINE",
"334 0 LINE",
"814 0 LINE",
"814 244 LINE",
"664 244 LINE",
"664 566 LINE",
"788 566 LINE",
"788 810 LINE",
"664 810 LINE",
"664 1156 LINE",
"814 1156 LINE"
);
}
);
width = 900;
},
{
anchors = (
{
name = bottom;
position = "{993, 0}";
},
{
name = top;
position = "{993, 1400}";
}
);
layerId = "DF71BB49-08D0-48AB-8F46-D55A70C0C2BD";
paths = (
{
closed = 1;
nodes = (
"854 -22 OFFCURVE",
"960 -2 OFFCURVE",
"1052 52 CURVE",
"898 350 LINE",
"844 308 OFFCURVE",
"805 288 OFFCURVE",
"741 288 CURVE SMOOTH",
"580 288 OFFCURVE",
"450 335 OFFCURVE",
"450 696 CURVE SMOOTH",
"450 1055 OFFCURVE",
"580 1102 OFFCURVE",
"741 1102 CURVE SMOOTH",
"807 1102 OFFCURVE",
"844 1085 OFFCURVE",
"898 1037 CURVE",
"1070 1316 LINE",
"973 1386 OFFCURVE",
"864 1412 OFFCURVE",
"741 1412 CURVE SMOOTH",
"400 1412 OFFCURVE",
"46 1317 OFFCURVE",
"46 696 CURVE SMOOTH",
"46 73 OFFCURVE",
"400 -22 OFFCURVE",
"741 -22 CURVE SMOOTH"
);
},
{
closed = 1;
nodes = (
"1903 1400 LINE",
"867 1400 LINE",
"867 0 LINE",
"1903 0 LINE",
"1903 308 LINE",
"1288 308 LINE",
"1288 534 LINE",
"1808 534 LINE",
"1808 842 LINE",
"1288 842 LINE",
"1288 1092 LINE",
"1903 1092 LINE"
);
}
);
width = 2100;
}
);
unicode = 0152;
},
{
color = 4;
glyphname = P;
lastChange = "2022-02-14 18:30:27 +0000";
layers = (
{
anchors = (
{
name = bottom;
position = "{286, 0}";
},
{
name = top;
position = "{286, 1400}";
}
);
layerId = "2E286313-D5BF-4FB4-A4B7-BD9BC13B574E";
paths = (
{
closed = 1;
nodes = (
"276 0 LINE",
"276 500 LINE",
"458 500 LINE SMOOTH",
"570 500 OFFCURVE",
"764 596 OFFCURVE",
"764 958 CURVE SMOOTH",
"764 1320 OFFCURVE",
"570 1400 OFFCURVE",
"458 1400 CURVE SMOOTH",
"206 1400 LINE",
"206 0 LINE"
);
},
{
closed = 1;
nodes = (
"276 1336 LINE",
"462 1336 LINE SMOOTH",
"564 1336 OFFCURVE",
"692 1266 OFFCURVE",
"692 958 CURVE SMOOTH",
"692 650 OFFCURVE",
"564 564 OFFCURVE",
"462 564 CURVE SMOOTH",
"276 564 LINE"
);
}
);
width = 900;
},
{
anchors = (
{
name = bottom;
position = "{1050, 0}";
},
{
name = top;
position = "{1050, 1400}";
}
);
layerId = "E338D14E-1DA5-418D-88BC-8956EEA80AB9";
paths = (
{
closed = 1;
nodes = (
"534 0 LINE",
"534 500 LINE",
"1148 500 LINE SMOOTH",
"1422 500 OFFCURVE",
"1812 566 OFFCURVE",
"1812 958 CURVE SMOOTH",
"1812 1360 OFFCURVE",
"1422 1400 OFFCURVE",
"1148 1400 CURVE SMOOTH",
"468 1400 LINE",
"468 0 LINE"
);
},
{
closed = 1;
nodes = (
"534 1336 LINE",
"1172 1336 LINE SMOOTH",
"1390 1336 OFFCURVE",
"1736 1306 OFFCURVE",
"1736 958 CURVE SMOOTH",
"1736 620 OFFCURVE",
"1390 564 OFFCURVE",
"1172 564 CURVE SMOOTH",
"534 564 LINE"
);
}
);
width = 2100;
},
{
anchors = (
{
name = bottom;
position = "{336, 0}";
},
{
name = top;
position = "{336, 1400}";
}
);
layerId = "C5C974ED-4386-41E8-AA57-C40E24C26BBD";
paths = (
{
closed = 1;
nodes = (
"422 0 LINE",
"422 410 LINE",
"430 410 LINE SMOOTH",
"608 410 OFFCURVE",
"826 540 OFFCURVE",
"826 928 CURVE SMOOTH",
"826 1286 OFFCURVE",
"608 1400 OFFCURVE",
"430 1400 CURVE SMOOTH",
"88 1400 LINE",
"88 0 LINE"
);
},
{
closed = 1;
nodes = (
"422 1156 LINE",
"432 1156 LINE SMOOTH",
"481 1156 OFFCURVE",
"496 1078 OFFCURVE",
"496 914 CURVE SMOOTH",
"496 720 OFFCURVE",
"481 654 OFFCURVE",
"432 654 CURVE SMOOTH",
"422 654 LINE"
);
}
);
width = 900;
},
{
anchors = (
{
name = bottom;
position = "{1118, 0}";
},
{
name = top;
position = "{1118, 1400}";
}
);
layerId = "DF71BB49-08D0-48AB-8F46-D55A70C0C2BD";
paths = (
{
closed = 1;
nodes = (
"747 0 LINE",
"747 398 LINE",
"1160 398 LINE SMOOTH",
"1433 398 OFFCURVE",
"1898 478 OFFCURVE",
"1898 898 CURVE SMOOTH",
"1898 1320 OFFCURVE",
"1431 1400 OFFCURVE",
"1160 1400 CURVE SMOOTH",
"327 1400 LINE",
"327 0 LINE"
);
},
{
closed = 1;
nodes = (
"747 1107 LINE",
"1134 1107 LINE SMOOTH",
"1336 1107 OFFCURVE",
"1476 1060 OFFCURVE",
"1476 898 CURVE SMOOTH",
"1476 735 OFFCURVE",
"1333 691 OFFCURVE",
"1134 691 CURVE SMOOTH",
"747 691 LINE"
);
}
);
width = 2100;
}
);
leftKerningGroup = H;
rightKerningGroup = P;
unicode = 0050;
},
{
glyphname = Thorn;
lastChange = "2020-04-30 15:52:17 +0000";
layers = (
{
anchors = (
{
name = bottom;
position = "{450, 0}";
},
{
name = top;
position = "{450, 1400}";
}
);
layerId = "2E286313-D5BF-4FB4-A4B7-BD9BC13B574E";
paths = (
{
closed = 1;
nodes = (
"266 1176 LINE",
"266 1400 LINE",
"196 1400 LINE",
"196 0 LINE",
"266 0 LINE",
"266 256 LINE",
"444 256 LINE SMOOTH",
"570 256 OFFCURVE",
"760 292 OFFCURVE",
"760 734 CURVE SMOOTH",
"760 1156 OFFCURVE",
"570 1176 OFFCURVE",
"444 1176 CURVE SMOOTH"
);
},
{
closed = 1;
nodes = (
"266 320 LINE",
"266 1112 LINE",
"462 1112 LINE SMOOTH",
"560 1112 OFFCURVE",
"690 1102 OFFCURVE",
"690 734 CURVE SMOOTH",
"690 346 OFFCURVE",
"560 320 OFFCURVE",
"462 320 CURVE SMOOTH"
);
}
);
width = 900;
},
{
anchors = (
{
name = bottom;
position = "{1050, 0}";
},
{
name = top;
position = "{1050, 1400}";
}
);
layerId = "E338D14E-1DA5-418D-88BC-8956EEA80AB9";
paths = (
{
closed = 1;
nodes = (
"534 1176 LINE",
"534 1400 LINE",
"468 1400 LINE",
"468 0 LINE",
"534 0 LINE",
"534 256 LINE",
"988 256 LINE SMOOTH",
"1282 256 OFFCURVE",
"1678 292 OFFCURVE",
"1678 734 CURVE SMOOTH",
"1678 1156 OFFCURVE",
"1282 1176 OFFCURVE",
"988 1176 CURVE SMOOTH"
);
},
{
closed = 1;
nodes = (
"534 320 LINE",
"534 1112 LINE",
"1032 1112 LINE SMOOTH",
"1260 1112 OFFCURVE",
"1602 1102 OFFCURVE",
"1602 734 CURVE SMOOTH",
"1602 346 OFFCURVE",
"1260 320 OFFCURVE",
"1032 320 CURVE SMOOTH"
);
}
);
width = 2100;
},
{
anchors = (
{
name = bottom;
position = "{408, 0}";
},
{
name = top;
position = "{408, 1400}";
}
);
layerId = "C5C974ED-4386-41E8-AA57-C40E24C26BBD";
paths = (
{
closed = 1;
nodes = (
"384 1176 LINE",
"384 1400 LINE",
"76 1400 LINE",
"76 0 LINE",
"384 0 LINE",
"384 256 LINE",
"392 256 LINE SMOOTH",
"508 256 OFFCURVE",
"772 292 OFFCURVE",
"772 734 CURVE SMOOTH",
"772 1156 OFFCURVE",
"508 1176 OFFCURVE",
"392 1176 CURVE SMOOTH"
);
},
{
closed = 1;
nodes = (
"384 480 LINE",
"384 952 LINE",
"370 952 LINE SMOOTH",
"458 952 OFFCURVE",
"466 942 OFFCURVE",
"466 734 CURVE SMOOTH",
"466 506 OFFCURVE",
"458 480 OFFCURVE",
"370 480 CURVE SMOOTH"
);
}
);
width = 900;
},
{
anchors = (
{
name = bottom;
position = "{993, 0}";
},
{
name = top;
position = "{993, 1400}";
}
);
layerId = "DF71BB49-08D0-48AB-8F46-D55A70C0C2BD";
paths = (
{
closed = 1;
nodes = (
"694 1176 LINE",
"694 1400 LINE",
"305 1400 LINE",
"305 0 LINE",
"694 0 LINE",
"694 256 LINE",
"917 256 LINE SMOOTH",
"1101 256 OFFCURVE",
"1694 256 OFFCURVE",
"1694 734 CURVE SMOOTH",
"1694 1176 OFFCURVE",
"1140 1176 OFFCURVE",
"917 1176 CURVE SMOOTH"
);
},
{
closed = 1;
nodes = (
"694 537 LINE",
"694 895 LINE",
"907 895 LINE SMOOTH",
"1121 895 OFFCURVE",
"1298 885 OFFCURVE",
"1298 734 CURVE SMOOTH",
"1298 563 OFFCURVE",
"1121 537 OFFCURVE",
"907 537 CURVE SMOOTH"
);
}
);
width = 2100;
}
);
unicode = 00DE;
},
{
color = 4;
glyphname = Q;
lastChange = "2022-02-14 18:30:27 +0000";
layers = (
{
anchors = (
{
name = bottom;
position = "{472, 0}";
},
{
name = top;
position = "{600, 1400}";
}
);
components = (
{
name = O;
}
);
layerId = "2E286313-D5BF-4FB4-A4B7-BD9BC13B574E";
paths = (
{
closed = 1;
nodes = (
"754 -123 LINE",
"614 107 LINE",
"562 53 LINE",
"700 -175 LINE"
);
}
);
width = 900;
},
{
anchors = (
{
name = bottom;
position = "{1050, 0}";
},
{
name = top;
position = "{1050, 1400}";
}
);
components = (
{
name = O;
}
);
layerId = "E338D14E-1DA5-418D-88BC-8956EEA80AB9";
paths = (
{
closed = 1;
nodes = (
"1735 -174 LINE",
"1517 130 LINE",
"1451 80 LINE",
"1665 -220 LINE"
);
}
);
width = 2100;
},
{
anchors = (
{
name = bottom;
position = "{476, 0}";
},
{
name = top;
position = "{476, 1400}";
}
);
components = (
{
alignment = -1;
name = O;
}
);
layerId = "C5C974ED-4386-41E8-AA57-C40E24C26BBD";
paths = (
{
closed = 1;
nodes = (
"872 -92 LINE",
"619 252 LINE",
"438 112 LINE",
"654 -247 LINE"
);
}
);
width = 900;
},
{
anchors = (
{
name = bottom;
position = "{1018, 0}";
},
{
name = top;
position = "{882, 1400}";
}
);
components = (
{
alignment = -1;
name = O;
}
);
layerId = "DF71BB49-08D0-48AB-8F46-D55A70C0C2BD";
paths = (
{
closed = 1;
nodes = (
"1876 -93 LINE",
"1456 381 LINE",
"1153 142 LINE",
"1518 -322 LINE"
);
}
);
width = 2100;
}
);
unicode = 0051;
},
{
glyphname = Q.ss01;
lastChange = "2022-02-14 18:21:45 +0000";
layers = (
{
anchors = (
{
name = bottom;
position = "{450, 0}";
},
{
name = top;
position = "{450, 1400}";
}
);
components = (
{
name = O;
transform = "{1, 0, 0, 1, -10, 0}";
}
);
layerId = "2E286313-D5BF-4FB4-A4B7-BD9BC13B574E";
paths = (
{
closed = 1;
nodes = (
"824 -132 LINE",
"808 -12 OFFCURVE",
"662 110 OFFCURVE",
"498 48 CURVE",
"512 -10 LINE",
"624 32 OFFCURVE",
"750 -46 OFFCURVE",
"764 -176 CURVE"
);
}
);
width = 900;
},
{
anchors = (
{
name = bottom;
position = "{1054, 0}";
},
{
name = top;
position = "{1054, 1400}";
}
);
components = (
{
name = O;
}
);
layerId = "E338D14E-1DA5-418D-88BC-8956EEA80AB9";
paths = (
{
closed = 1;
nodes = (
"1658 -146 LINE",
"1616 32 OFFCURVE",
"1368 94 OFFCURVE",
"1188 48 CURVE",
"1206 -10 LINE",
"1356 32 OFFCURVE",
"1556 -28 OFFCURVE",
"1602 -196 CURVE"
);
}
);
width = 2100;
},
{
anchors = (
{
name = bottom;
position = "{408, 0}";
},
{
name = top;
position = "{408, 1400}";
}
);
components = (
{
name = O;
}
);
layerId = "C5C974ED-4386-41E8-AA57-C40E24C26BBD";
paths = (
{
closed = 1;
nodes = (
"948 -130 LINE",
"936 74 OFFCURVE",
"792 290 OFFCURVE",
"440 218 CURVE",
"486 -16 LINE",
"638 16 OFFCURVE",
"708 -158 OFFCURVE",
"728 -318 CURVE"
);
}
);
width = 900;
},
{
anchors = (
{
name = bottom;
position = "{997, 0}";
},
{
name = top;
position = "{997, 1400}";
}
);
components = (
{
name = O;
transform = "{1, 0, 0, 1, -30, 0}";
}
);
layerId = "DF71BB49-08D0-48AB-8F46-D55A70C0C2BD";
paths = (
{
closed = 1;
nodes = (
"1878 -143 LINE",
"1878 78 OFFCURVE",
"1705 279 OFFCURVE",
"1271 279 CURVE",
"1144 -13 LINE",
"1435 -13 OFFCURVE",
"1526 -100 OFFCURVE",
"1526 -337 CURVE"
);
}
);
width = 2100;
}
);
leftKerningGroup = O;
rightKerningGroup = O;
},
{
color = 4;
glyphname = R;
lastChange = "2022-02-14 19:00:36 +0000";
layers = (
{
anchors = (
{
name = bottom;
position = "{400, 0}";
},
{
name = top;
position = "{400, 1400}";
}
);
layerId = "2E286313-D5BF-4FB4-A4B7-BD9BC13B574E";
paths = (
{
closed = 1;
nodes = (
"476 1336 LINE SMOOTH",
"586 1336 OFFCURVE",
"658 1216 OFFCURVE",
"658 1008 CURVE SMOOTH",
"658 798 OFFCURVE",
"592 664 OFFCURVE",
"482 664 CURVE SMOOTH",
"290 664 LINE",
"290 1336 LINE"
);
},
{
closed = 1;
nodes = (
"592 600 OFFCURVE",
"726 718 OFFCURVE",
"726 1008 CURVE SMOOTH",
"726 1296 OFFCURVE",
"604 1400 OFFCURVE",
"472 1400 CURVE SMOOTH",
"224 1400 LINE",
"224 0 LINE",
"290 0 LINE",
"290 600 LINE",
"526 600 LINE SMOOTH"
);
},
{
closed = 1;
nodes = (
"716 0 LINE",
"534 666 LINE",
"477 626 LINE",
"644 0 LINE"
);
}
);
width = 900;
},
{
anchors = (
{
name = bottom;
position = "{1050, 0}";
},
{
name = top;
position = "{1050, 1400}";
}
);
layerId = "E338D14E-1DA5-418D-88BC-8956EEA80AB9";
paths = (
{
closed = 1;
nodes = (
"1346 1336 LINE SMOOTH",
"1534 1336 OFFCURVE",
"1730 1266 OFFCURVE",
"1730 1028 CURVE SMOOTH",
"1730 788 OFFCURVE",
"1540 704 OFFCURVE",
"1364 704 CURVE SMOOTH",
"480 704 LINE",
"480 1336 LINE"
);
},
{
closed = 1;
nodes = (
"1562 640 OFFCURVE",
"1806 730 OFFCURVE",
"1806 1028 CURVE SMOOTH",
"1806 1326 OFFCURVE",
"1556 1400 OFFCURVE",
"1302 1400 CURVE SMOOTH",
"408 1400 LINE",
"408 0 LINE",
"480 0 LINE",
"480 640 LINE",
"1342 640 LINE SMOOTH"
);
},
{
closed = 1;
nodes = (
"1782 0 LINE",
"1354 666 LINE",
"1268 666 LINE",
"1696 0 LINE"
);
}
);
width = 2100;
},
{
anchors = (
{
name = bottom;
position = "{406, 0}";
},
{
name = top;
position = "{406, 1400}";
}
);
layerId = "C5C974ED-4386-41E8-AA57-C40E24C26BBD";
paths = (
{
closed = 1;
nodes = (
"432 1156 LINE",
"475 1156 OFFCURVE",
"492 1088 OFFCURVE",
"492 976 CURVE SMOOTH",
"492 838 OFFCURVE",
"475 768 OFFCURVE",
"428 768 CURVE",
"422 768 LINE",
"422 1156 LINE"
);
},
{
closed = 1;
nodes = (
"588 524 OFFCURVE",
"830 590 OFFCURVE",
"830 980 CURVE SMOOTH",
"830 1342 OFFCURVE",
"604 1400 OFFCURVE",
"424 1400 CURVE SMOOTH",
"88 1400 LINE",
"88 0 LINE",
"422 0 LINE",
"422 524 LINE",
"432 524 LINE SMOOTH"
);
},
{
closed = 1;
nodes = (
"858 0 LINE",
"719 708 LINE",
"429 590 LINE",
"518 0 LINE"
);
}
);
width = 900;
},
{
anchors = (
{
name = bottom;
position = "{1058, 0}";
},
{
name = top;
position = "{1058, 1400}";
}
);
layerId = "DF71BB49-08D0-48AB-8F46-D55A70C0C2BD";
paths = (
{
closed = 1;
nodes = (
"1286 1092 LINE SMOOTH",
"1450 1092 OFFCURVE",
"1504 1021 OFFCURVE",
"1504 928 CURVE SMOOTH",
"1504 812 OFFCURVE",
"1432 757 OFFCURVE",
"1290 757 CURVE SMOOTH",
"699 757 LINE",
"699 1092 LINE"
);
},
{
closed = 1;
nodes = (
"1538 448 OFFCURVE",
"1947 483 OFFCURVE",
"1947 933 CURVE SMOOTH",
"1947 1338 OFFCURVE",
"1583 1400 OFFCURVE",
"1236 1400 CURVE SMOOTH",
"263 1400 LINE",
"263 0 LINE",
"699 0 LINE",
"699 448 LINE",
"1214 448 LINE SMOOTH"
);
},
{
closed = 1;
nodes = (
"1996 0 LINE",
"1528 614 LINE",
"1140 509 LINE",
"1515 0 LINE"
);
}
);
width = 2100;
}
);
leftKerningGroup = H;
rightKerningGroup = R;
unicode = 0052;
},
{
color = 4;
glyphname = S;
lastChange = "2022-02-14 18:30:27 +0000";
layers = (
{
anchors = (
{
name = bottom;
position = "{470, 0}";
},
{
name = top;
position = "{482, 1400}";
}
);
layerId = "2E286313-D5BF-4FB4-A4B7-BD9BC13B574E";
paths = (
{
closed = 1;
nodes = (
"648 -22 OFFCURVE",
"789 114 OFFCURVE",
"789 330 CURVE SMOOTH",
"789 542 OFFCURVE",
"661 655 OFFCURVE",
"484 764 CURVE SMOOTH",
"339 853 OFFCURVE",
"273 964 OFFCURVE",
"273 1104 CURVE SMOOTH",
"273 1240 OFFCURVE",
"358 1346 OFFCURVE",
"482 1346 CURVE SMOOTH",
"628 1346 OFFCURVE",
"689 1218 OFFCURVE",
"705 1114 CURVE",
"769 1142 LINE",
"749 1258 OFFCURVE",
"658 1412 OFFCURVE",
"482 1412 CURVE SMOOTH",
"318 1412 OFFCURVE",
"205 1272 OFFCURVE",
"205 1104 CURVE SMOOTH",
"205 932 OFFCURVE",
"282 816 OFFCURVE",
"456 702 CURVE SMOOTH",
"660 568 OFFCURVE",
"719 474 OFFCURVE",
"719 312 CURVE SMOOTH",
"719 180 OFFCURVE",
"632 44 OFFCURVE",
"470 44 CURVE SMOOTH",
"320 44 OFFCURVE",
"258 182 OFFCURVE",
"241 284 CURVE",
"177 248 LINE",
"202 130 OFFCURVE",
"292 -22 OFFCURVE",
"470 -22 CURVE SMOOTH"
);
}
);
width = 900;
},
{
anchors = (
{
name = bottom;
position = "{1072, 0}";
},
{
name = top;
position = "{1050, 1400}";
}
);
layerId = "E338D14E-1DA5-418D-88BC-8956EEA80AB9";
paths = (
{
closed = 1;
nodes = (
"1564 -22 OFFCURVE",
"1858 96 OFFCURVE",
"1858 347 CURVE SMOOTH",
"1858 590 OFFCURVE",
"1575 681 OFFCURVE",
"1073 762 CURVE SMOOTH",
"685 825 OFFCURVE",
"432 880 OFFCURVE",
"432 1056 CURVE SMOOTH",
"432 1250 OFFCURVE",
"754 1346 OFFCURVE",
"1090 1346 CURVE SMOOTH",
"1426 1346 OFFCURVE",
"1633 1234 OFFCURVE",
"1731 1140 CURVE",
"1788 1192 LINE",
"1672 1300 OFFCURVE",
"1454 1412 OFFCURVE",
"1090 1412 CURVE SMOOTH",
"666 1412 OFFCURVE",
"352 1285 OFFCURVE",
"352 1058 CURVE SMOOTH",
"352 835 OFFCURVE",
"603 776 OFFCURVE",
"1061 696 CURVE SMOOTH",
"1543 612 OFFCURVE",
"1778 546 OFFCURVE",
"1778 344 CURVE SMOOTH",
"1778 140 OFFCURVE",
"1506 44 OFFCURVE",
"1058 44 CURVE SMOOTH",
"692 44 OFFCURVE",
"401 180 OFFCURVE",
"315 274 CURVE",
"262 218 LINE",
"360 116 OFFCURVE",
"644 -22 OFFCURVE",
"1058 -22 CURVE SMOOTH"
);
}
);
width = 2100;
},
{
anchors = (
{
name = bottom;
position = "{418, -2}";
},
{
name = top;
position = "{442, 1400}";
}
);
layerId = "C5C974ED-4386-41E8-AA57-C40E24C26BBD";
paths = (
{
closed = 1;
nodes = (
"622 -22 OFFCURVE",
"812 84 OFFCURVE",
"812 360 CURVE SMOOTH",
"812 582 OFFCURVE",
"671 730 OFFCURVE",
"549 831 CURVE SMOOTH",
"453 910 OFFCURVE",
"378 978 OFFCURVE",
"378 1056 CURVE SMOOTH",
"378 1134 OFFCURVE",
"402 1156 OFFCURVE",
"442 1156 CURVE SMOOTH",
"486 1156 OFFCURVE",
"509 1057 OFFCURVE",
"521 963 CURVE",
"808 1090 LINE",
"778 1253 OFFCURVE",
"657 1412 OFFCURVE",
"442 1412 CURVE SMOOTH",
"245 1412 OFFCURVE",
"52 1302 OFFCURVE",
"52 1048 CURVE SMOOTH",
"52 827 OFFCURVE",
"211 690 OFFCURVE",
"317 603 CURVE SMOOTH",
"412 525 OFFCURVE",
"481 440 OFFCURVE",
"481 340 CURVE SMOOTH",
"481 267 OFFCURVE",
"465 234 OFFCURVE",
"419 234 CURVE SMOOTH",
"363 234 OFFCURVE",
"332 348 OFFCURVE",
"316 450 CURVE",
"30 312 LINE",
"86 102 OFFCURVE",
"230 -22 OFFCURVE",
"426 -22 CURVE SMOOTH"
);
}
);
width = 900;
},
{
anchors = (
{
name = bottom;
position = "{1001, -3}";
},
{
name = top;
position = "{996, 1400}";
}
);
layerId = "DF71BB49-08D0-48AB-8F46-D55A70C0C2BD";
paths = (
{
closed = 1;
nodes = (
"1367 -22 OFFCURVE",
"1899 71 OFFCURVE",
"1899 420 CURVE SMOOTH",
"1899 744 OFFCURVE",
"1471 814 OFFCURVE",
"1122 854 CURVE SMOOTH",
"806 890 OFFCURVE",
"640 915 OFFCURVE",
"640 990 CURVE SMOOTH",
"640 1070 OFFCURVE",
"822 1108 OFFCURVE",
"1034 1108 CURVE SMOOTH",
"1262 1108 OFFCURVE",
"1466 1037 OFFCURVE",
"1565 990 CURVE",
"1819 1275 LINE",
"1675 1340 OFFCURVE",
"1345 1412 OFFCURVE",
"1046 1412 CURVE SMOOTH",
"666 1412 OFFCURVE",
"195 1317 OFFCURVE",
"195 990 CURVE SMOOTH",
"195 678 OFFCURVE",
"548 589 OFFCURVE",
"915 549 CURVE SMOOTH",
"1265 511 OFFCURVE",
"1453 488 OFFCURVE",
"1453 407 CURVE SMOOTH",
"1453 325 OFFCURVE",
"1249 282 OFFCURVE",
"989 282 CURVE SMOOTH",
"711 282 OFFCURVE",
"471 349 OFFCURVE",
"373 420 CURVE",
"116 131 LINE",
"243 62 OFFCURVE",
"607 -22 OFFCURVE",
"976 -22 CURVE SMOOTH"
);
}
);
width = 2100;
}
);
leftKerningGroup = S;
rightKerningGroup = S;
unicode = 0053;
},
{
glyphname = Germandbls;
lastChange = "2020-04-30 21:19:15 +0000";
layers = (
{
layerId = "C5C974ED-4386-41E8-AA57-C40E24C26BBD";
paths = (
{
closed = 1;
nodes = (
"839 1132 LINE",
"839 1400 LINE",
"36 1400 LINE",
"36 0 LINE",
"342 0 LINE",
"342 1132 LINE",
"492 1132 LINE",
"366 837 LINE",
"480 689 OFFCURVE",
"524 565 OFFCURVE",
"524 389 CURVE SMOOTH",
"524 299 OFFCURVE",
"518 244 OFFCURVE",
"475 244 CURVE SMOOTH",
"445 244 OFFCURVE",
"424 254 OFFCURVE",
"390 282 CURVE",
"354 2 LINE",
"396 -16 OFFCURVE",
"440 -21 OFFCURVE",
"490 -21 CURVE SMOOTH",
"744 -21 OFFCURVE",
"844 106 OFFCURVE",
"844 404 CURVE SMOOTH",
"844 649 OFFCURVE",
"786 719 OFFCURVE",
"693 821 CURVE"
);
}
);
width = 900;
},
{
layerId = "2E286313-D5BF-4FB4-A4B7-BD9BC13B574E";
paths = (
{
closed = 1;
nodes = (
"716 1334 LINE",
"716 1400 LINE",
"122 1400 LINE",
"122 0 LINE",
"188 0 LINE",
"188 1334 LINE",
"645 1334 LINE",
"424 862 LINE",
"549 760 OFFCURVE",
"664 663 OFFCURVE",
"664 393 CURVE SMOOTH",
"664 103 OFFCURVE",
"574 44 OFFCURVE",
"454 44 CURVE SMOOTH",
"400 44 OFFCURVE",
"346 60 OFFCURVE",
"318 70 CURVE",
"304 4 LINE",
"350 -10 OFFCURVE",
"396 -22 OFFCURVE",
"454 -22 CURVE SMOOTH",
"636 -22 OFFCURVE",
"738 96 OFFCURVE",
"738 394 CURVE SMOOTH",
"738 690 OFFCURVE",
"565 833 OFFCURVE",
"503 882 CURVE"
);
}
);
width = 900;
},
{
layerId = "E338D14E-1DA5-418D-88BC-8956EEA80AB9";
paths = (
{
closed = 1;
nodes = (
"1637 1331 LINE",
"1637 1400 LINE",
"352 1400 LINE",
"352 0 LINE",
"422 0 LINE",
"422 1330 LINE",
"1531 1330 LINE",
"1019 878 LINE",
"1235 839 OFFCURVE",
"1804 714 OFFCURVE",
"1804 404 CURVE SMOOTH",
"1804 114 OFFCURVE",
"1410 44 OFFCURVE",
"1130 44 CURVE SMOOTH",
"1002 44 OFFCURVE",
"860 72 OFFCURVE",
"800 82 CURVE",
"780 10 LINE",
"866 -4 OFFCURVE",
"994 -22 OFFCURVE",
"1130 -22 CURVE SMOOTH",
"1554 -22 OFFCURVE",
"1886 106 OFFCURVE",
"1886 404 CURVE SMOOTH",
"1886 740 OFFCURVE",
"1360 876 OFFCURVE",
"1154 915 CURVE"
);
}
);
width = 2100;
},
{
layerId = "DF71BB49-08D0-48AB-8F46-D55A70C0C2BD";
paths = (
{
closed = 1;
nodes = (
"1764 1057 LINE",
"1764 1400 LINE",
"195 1400 LINE",
"195 0 LINE",
"591 0 LINE",
"591 1056 LINE",
"1210 1056 LINE",
"780 677 LINE",
"1028 659 OFFCURVE",
"1522 594 OFFCURVE",
"1522 468 CURVE SMOOTH",
"1522 345 OFFCURVE",
"1293 315 OFFCURVE",
"1118 315 CURVE SMOOTH",
"1024 315 OFFCURVE",
"875 335 OFFCURVE",
"817 350 CURVE",
"768 7 LINE",
"848 -12 OFFCURVE",
"1012 -21 OFFCURVE",
"1139 -21 CURVE SMOOTH",
"1661 -21 OFFCURVE",
"1935 117 OFFCURVE",
"1935 415 CURVE SMOOTH",
"1935 693 OFFCURVE",
"1634 827 OFFCURVE",
"1428 827 CURVE"
);
}
);
width = 2100;
}
);
unicode = 1E9E;
},
{
color = 4;
glyphname = T;
lastChange = "2022-02-14 18:30:27 +0000";
layers = (
{
anchors = (
{
name = bottom;
position = "{452, 0}";
},
{
name = center;
position = "{452, 700}";
},
{
name = top;
position = "{452, 1400}";
}
);
layerId = "2E286313-D5BF-4FB4-A4B7-BD9BC13B574E";
paths = (
{
closed = 1;
nodes = (
"128 1400 LINE",
"128 1336 LINE",
"416 1336 LINE",
"416 0 LINE",
"482 0 LINE",
"482 1336 LINE",
"772 1336 LINE",
"772 1400 LINE"
);
}
);
width = 900;
},
{
anchors = (
{
name = bottom;
position = "{1050, 0}";
},
{
name = center;
position = "{1050, 700}";
},
{
name = top;
position = "{1050, 1400}";
}
);
layerId = "E338D14E-1DA5-418D-88BC-8956EEA80AB9";
paths = (
{
closed = 1;
nodes = (
"280 1400 LINE",
"280 1336 LINE",
"1012 1336 LINE",
"1012 0 LINE",
"1078 0 LINE",
"1078 1336 LINE",
"1814 1336 LINE",
"1814 1400 LINE"
);
}
);
width = 2100;
},
{
anchors = (
{
name = bottom;
position = "{430, 0}";
},
{
name = center;
position = "{430, 700}";
},
{
name = top;
position = "{430, 1400}";
}
);
layerId = "C5C974ED-4386-41E8-AA57-C40E24C26BBD";
paths = (
{
closed = 1;
nodes = (
"76 1400 LINE",
"76 1156 LINE",
"259 1156 LINE",
"259 0 LINE",
"595 0 LINE",
"595 1156 LINE",
"778 1156 LINE",
"778 1400 LINE"
);
}
);
width = 900;
},
{
anchors = (
{
name = bottom;
position = "{1020, 0}";
},
{
name = center;
position = "{1020, 700}";
},
{
name = top;
position = "{1020, 1400}";
}
);
layerId = "DF71BB49-08D0-48AB-8F46-D55A70C0C2BD";
paths = (
{
closed = 1;
nodes = (
"213 1400 LINE",
"213 1092 LINE",
"799 1092 LINE",
"799 0 LINE",
"1231 0 LINE",
"1231 1092 LINE",
"1819 1092 LINE",
"1819 1400 LINE"
);
}
);
width = 2100;
}
);
leftKerningGroup = T;
rightKerningGroup = T;
unicode = 0054;
},
{
glyphname = Tbar;
lastChange = "2022-02-14 18:44:32 +0000";
layers = (
{
anchors = (
{
name = _center;
position = "{452.102, 700}";
}
);
components = (
{
name = T;
}
);
layerId = "2E286313-D5BF-4FB4-A4B7-BD9BC13B574E";
paths = (
{
closed = 1;
nodes = (
"157 668 LINE",
"748 668 LINE",
"748 732 LINE",
"157 732 LINE"
);
}
);
width = 900;
},
{
anchors = (
{
name = _center;
position = "{1049.715, 700}";
}
);
components = (
{
name = T;
}
);
layerId = "E338D14E-1DA5-418D-88BC-8956EEA80AB9";
paths = (
{
closed = 1;
nodes = (
"640 668 LINE",
"1460 668 LINE",
"1460 732 LINE",
"640 732 LINE"
);
}
);
width = 2100;
},
{
anchors = (
{
name = _center;
position = "{430.405, 700}";
}
);
components = (
{
name = T;
}
);
layerId = "C5C974ED-4386-41E8-AA57-C40E24C26BBD";
paths = (
{
closed = 1;
nodes = (
"82 600 LINE",
"776 600 LINE",
"776 800 LINE",
"82 800 LINE"
);
}
);
width = 900;
},
{
anchors = (
{
name = _center;
position = "{1019.542, 700}";
}
);
components = (
{
name = T;
}
);
layerId = "DF71BB49-08D0-48AB-8F46-D55A70C0C2BD";
paths = (
{
closed = 1;
nodes = (
"538 576 LINE",
"1498 576 LINE",
"1498 824 LINE",
"538 824 LINE"
);
}
);
width = 2100;
}
);
unicode = 0166;
},
{
color = 4;
glyphname = U;
lastChange = "2022-02-14 18:39:09 +0000";
layers = (
{
anchors = (
{
name = bottom;
position = "{450, 0}";
},
{
name = ogonek;
position = "{621, 41}";
},
{
name = top;
position = "{450, 1400}";
},
{
name = topright;
position = "{698, 1400}";
}
);
layerId = "2E286313-D5BF-4FB4-A4B7-BD9BC13B574E";
paths = (
{
closed = 1;
nodes = (
"616 -22 OFFCURVE",
"740 98 OFFCURVE",
"740 416 CURVE SMOOTH",
"740 1400 LINE",
"674 1400 LINE",
"674 416 LINE SMOOTH",
"674 146 OFFCURVE",
"588 44 OFFCURVE",
"452 44 CURVE SMOOTH",
"318 44 OFFCURVE",
"228 146 OFFCURVE",
"228 420 CURVE SMOOTH",
"228 1400 LINE",
"162 1400 LINE",
"162 416 LINE SMOOTH",
"162 98 OFFCURVE",
"290 -22 OFFCURVE",
"452 -22 CURVE SMOOTH"
);
}
);
width = 900;
},
{
anchors = (
{
name = bottom;
position = "{1050, 0}";
},
{
name = ogonek;
position = "{1472, 73}";
},
{
name = top;
position = "{1050, 1400}";
},
{
name = topright;
position = "{1742, 1400}";
}
);
layerId = "E338D14E-1DA5-418D-88BC-8956EEA80AB9";
paths = (
{
closed = 1;
nodes = (
"1534 -22 OFFCURVE",
"1800 224 OFFCURVE",
"1800 698 CURVE SMOOTH",
"1800 1400 LINE",
"1732 1400 LINE",
"1732 692 LINE SMOOTH",
"1732 268 OFFCURVE",
"1496 44 OFFCURVE",
"1054 44 CURVE SMOOTH",
"614 44 OFFCURVE",
"372 268 OFFCURVE",
"372 692 CURVE SMOOTH",
"372 1400 LINE",
"304 1400 LINE",
"304 698 LINE SMOOTH",
"304 224 OFFCURVE",
"578 -22 OFFCURVE",
"1054 -22 CURVE SMOOTH"
);
}
);
width = 2100;
},
{
anchors = (
{
name = bottom;
position = "{448, 0}";
},
{
name = ogonek;
position = "{679, 41}";
},
{
name = top;
position = "{448, 1400}";
},
{
name = topright;
position = "{728, 1400}";
}
);
layerId = "C5C974ED-4386-41E8-AA57-C40E24C26BBD";
paths = (
{
closed = 1;
nodes = (
"656 -22 OFFCURVE",
"838 90 OFFCURVE",
"838 356 CURVE SMOOTH",
"838 1400 LINE",
"502 1400 LINE",
"502 380 LINE SMOOTH",
"502 270 OFFCURVE",
"488 234 OFFCURVE",
"450 234 CURVE SMOOTH",
"412 234 OFFCURVE",
"396 270 OFFCURVE",
"396 380 CURVE SMOOTH",
"396 1400 LINE",
"60 1400 LINE",
"60 356 LINE SMOOTH",
"60 90 OFFCURVE",
"244 -22 OFFCURVE",
"450 -22 CURVE SMOOTH"
);
}
);
width = 900;
},
{
anchors = (
{
name = bottom;
position = "{1048, 0}";
},
{
name = ogonek;
position = "{1548, 73}";
},
{
name = top;
position = "{1048, 1400}";
},
{
name = topright;
position = "{1643, 1400}";
}
);
layerId = "DF71BB49-08D0-48AB-8F46-D55A70C0C2BD";
paths = (
{
closed = 1;
nodes = (
"1555 -22 OFFCURVE",
"1933 197 OFFCURVE",
"1933 607 CURVE SMOOTH",
"1933 1400 LINE",
"1499 1400 LINE",
"1499 633 LINE SMOOTH",
"1499 403 OFFCURVE",
"1328 302 OFFCURVE",
"1052 302 CURVE SMOOTH",
"775 302 OFFCURVE",
"600 403 OFFCURVE",
"600 628 CURVE SMOOTH",
"600 1400 LINE",
"166 1400 LINE",
"166 607 LINE SMOOTH",
"166 197 OFFCURVE",
"550 -22 OFFCURVE",
"1052 -22 CURVE SMOOTH"
);
}
);
width = 2100;
}
);
leftKerningGroup = U;
rightKerningGroup = U;
unicode = 0055;
},
{
glyphname = Uhorn;
lastChange = "2022-02-14 18:39:19 +0000";
layers = (
{
anchors = (
{
name = bottom;
position = "{448, 0}";
},
{
name = ogonek;
position = "{679, 41}";
},
{
name = top;
position = "{448, 1400}";
},
{
name = topright;
position = "{728, 1400}";
}
);
components = (
{
name = horncomb;
transform = "{1, 0, 0, 1, 435, 259}";
}
);
layerId = "C5C974ED-4386-41E8-AA57-C40E24C26BBD";
paths = (
{
closed = 1;
nodes = (
"656 -22 OFFCURVE",
"838 90 OFFCURVE",
"838 356 CURVE SMOOTH",
"838 1400 LINE",
"502 1400 LINE",
"502 380 LINE SMOOTH",
"502 270 OFFCURVE",
"488 234 OFFCURVE",
"450 234 CURVE SMOOTH",
"412 234 OFFCURVE",
"396 270 OFFCURVE",
"396 380 CURVE SMOOTH",
"396 1400 LINE",
"60 1400 LINE",
"60 356 LINE SMOOTH",
"60 90 OFFCURVE",
"244 -22 OFFCURVE",
"450 -22 CURVE SMOOTH"
);
}
);
width = 900;
},
{
anchors = (
{
name = bottom;
position = "{450, 0}";
},
{
name = ogonek;
position = "{621, 41}";
},
{
name = top;
position = "{450, 1400}";
},
{
name = topright;
position = "{698, 1400}";
}
);
components = (
{
name = horncomb;
transform = "{1, 0, 0, 1, 357, 251}";
}
);
layerId = "2E286313-D5BF-4FB4-A4B7-BD9BC13B574E";
paths = (
{
closed = 1;
nodes = (
"616 -22 OFFCURVE",
"740 98 OFFCURVE",
"740 416 CURVE SMOOTH",
"740 1400 LINE",
"674 1400 LINE",
"674 416 LINE SMOOTH",
"674 146 OFFCURVE",
"588 44 OFFCURVE",
"452 44 CURVE SMOOTH",
"318 44 OFFCURVE",
"228 146 OFFCURVE",
"228 420 CURVE SMOOTH",
"228 1400 LINE",
"162 1400 LINE",
"162 416 LINE SMOOTH",
"162 98 OFFCURVE",
"290 -22 OFFCURVE",
"452 -22 CURVE SMOOTH"
);
}
);
width = 900;
},
{
anchors = (
{
name = bottom;
position = "{1050, 0}";
},
{
name = ogonek;
position = "{1472, 73}";
},
{
name = top;
position = "{1050, 1400}";
},
{
name = topright;
position = "{1742, 1400}";
}
);
components = (
{
name = horncomb;
transform = "{1, 0, 0, 1, 790, 251}";
}
);
layerId = "E338D14E-1DA5-418D-88BC-8956EEA80AB9";
paths = (
{
closed = 1;
nodes = (
"1534 -22 OFFCURVE",
"1800 224 OFFCURVE",
"1800 698 CURVE SMOOTH",
"1800 1400 LINE",
"1732 1400 LINE",
"1732 692 LINE SMOOTH",
"1732 268 OFFCURVE",
"1496 44 OFFCURVE",
"1054 44 CURVE SMOOTH",
"614 44 OFFCURVE",
"372 268 OFFCURVE",
"372 692 CURVE SMOOTH",
"372 1400 LINE",
"304 1400 LINE",
"304 698 LINE SMOOTH",
"304 224 OFFCURVE",
"578 -22 OFFCURVE",
"1054 -22 CURVE SMOOTH"
);
}
);
width = 2100;
},
{
anchors = (
{
name = bottom;
position = "{1048, 0}";
},
{
name = ogonek;
position = "{1548, 73}";
},
{
name = top;
position = "{1048, 1400}";
},
{
name = topright;
position = "{1643, 1400}";
}
);
components = (
{
name = horncomb;
transform = "{1, 0, 0, 1, 756, 262}";
}
);
layerId = "DF71BB49-08D0-48AB-8F46-D55A70C0C2BD";
paths = (
{
closed = 1;
nodes = (
"1555 -22 OFFCURVE",
"1933 197 OFFCURVE",
"1933 607 CURVE SMOOTH",
"1933 1400 LINE",
"1499 1400 LINE",
"1499 633 LINE SMOOTH",
"1499 403 OFFCURVE",
"1328 302 OFFCURVE",
"1052 302 CURVE SMOOTH",
"775 302 OFFCURVE",
"600 403 OFFCURVE",
"600 628 CURVE SMOOTH",
"600 1400 LINE",
"166 1400 LINE",
"166 607 LINE SMOOTH",
"166 197 OFFCURVE",
"550 -22 OFFCURVE",
"1052 -22 CURVE SMOOTH"
);
}
);
width = 2100;
}
);
unicode = 01AF;
},
{
color = 4;
glyphname = V;
lastChange = "2022-02-14 18:30:27 +0000";
layers = (
{
anchors = (
{
name = bottom;
position = "{438, 0}";
},
{
name = top;
position = "{438, 1400}";
}
);
layerId = "2E286313-D5BF-4FB4-A4B7-BD9BC13B574E";
paths = (
{
closed = 1;
nodes = (
"446 64 LINE",
"444 64 LINE",
"240 1400 LINE",
"174 1400 LINE",
"386 0 LINE",
"502 0 LINE",
"734 1400 LINE",
"668 1400 LINE"
);
}
);
width = 900;
},
{
anchors = (
{
name = bottom;
position = "{1050, 0}";
},
{
name = top;
position = "{1050, 1400}";
}
);
layerId = "E338D14E-1DA5-418D-88BC-8956EEA80AB9";
paths = (
{
closed = 1;
nodes = (
"1134 64 LINE",
"988 64 LINE",
"404 1400 LINE",
"324 1400 LINE",
"934 0 LINE",
"1188 0 LINE",
"1796 1400 LINE",
"1718 1400 LINE"
);
}
);
width = 2100;
},
{
anchors = (
{
name = bottom;
position = "{404, 0}";
},
{
name = top;
position = "{404, 1400}";
}
);
layerId = "C5C974ED-4386-41E8-AA57-C40E24C26BBD";
paths = (
{
closed = 1;
nodes = (
"404 223 LINE",
"416 223 LINE",
"356 1400 LINE",
"10 1400 LINE",
"176 0 LINE",
"642 0 LINE",
"818 1400 LINE",
"472 1400 LINE"
);
}
);
width = 900;
},
{
anchors = (
{
name = bottom;
position = "{1003, 0}";
},
{
name = top;
position = "{1003, 1400}";
}
);
layerId = "DF71BB49-08D0-48AB-8F46-D55A70C0C2BD";
paths = (
{
closed = 1;
nodes = (
"1063 321 LINE",
"963 321 LINE",
"561 1400 LINE",
"101 1400 LINE",
"655 0 LINE",
"1371 0 LINE",
"1910 1400 LINE",
"1452 1400 LINE"
);
}
);
width = 2100;
}
);
leftKerningGroup = V;
rightKerningGroup = V;
unicode = 0056;
},
{
color = 4;
glyphname = W;
lastChange = "2022-02-14 19:04:58 +0000";
layers = (
{
anchors = (
{
name = bottom;
position = "{456, 0}";
},
{
name = top;
position = "{456, 1400}";
}
);
layerId = "2E286313-D5BF-4FB4-A4B7-BD9BC13B574E";
paths = (
{
closed = 1;
nodes = (
"680 0 LINE",
"810 1400 LINE",
"744 1400 LINE",
"626 68 LINE",
"622 0 LINE"
);
},
{
closed = 1;
nodes = (
"278 0 LINE",
"272 68 LINE",
"156 1400 LINE",
"90 1400 LINE",
"220 0 LINE"
);
},
{
closed = 1;
nodes = (
"318 0 LINE",
"466 1238 LINE",
"460 1324 LINE",
"422 1324 LINE",
"274 106 LINE",
"262 0 LINE"
);
},
{
closed = 1;
nodes = (
"638 0 LINE",
"626 106 LINE",
"478 1324 LINE",
"440 1324 LINE",
"434 1238 LINE",
"582 0 LINE"
);
}
);
width = 900;
},
{
anchors = (
{
name = bottom;
position = "{1050, 0}";
},
{
name = top;
position = "{1050, 1400}";
}
);
layerId = "E338D14E-1DA5-418D-88BC-8956EEA80AB9";
paths = (
{
closed = 1;
nodes = (
"1555 0 LINE",
"1876 1400 LINE",
"1794 1400 LINE",
"1500 98 LINE",
"1482 0 LINE"
);
},
{
closed = 1;
nodes = (
"616 0 LINE",
"598 98 LINE",
"306 1400 LINE",
"224 1400 LINE",
"543 0 LINE"
);
},
{
closed = 1;
nodes = (
"640 0 LINE",
"1060 1254 LINE",
"1084 1324 LINE",
"1002 1324 LINE",
"574 56 LINE",
"552 0 LINE"
);
},
{
closed = 1;
nodes = (
"1548 0 LINE",
"1526 66 LINE",
"1100 1324 LINE",
"1020 1324 LINE",
"1044 1254 LINE",
"1460 0 LINE"
);
}
);
width = 2100;
},
{
anchors = (
{
name = bottom;
position = "{454, 0}";
},
{
name = top;
position = "{454, 1400}";
}
);
layerId = "C5C974ED-4386-41E8-AA57-C40E24C26BBD";
paths = (
{
closed = 1;
nodes = (
"808 0 LINE",
"900 1400 LINE",
"592 1400 LINE",
"606 520 LINE",
"608 0 LINE"
);
},
{
closed = 1;
nodes = (
"298 0 LINE",
"290 520 LINE",
"308 1400 LINE",
"0 1400 LINE",
"92 0 LINE"
);
},
{
closed = 1;
nodes = (
"372 0 LINE",
"460 688 LINE",
"484 1224 LINE",
"378 1224 LINE",
"282 542 LINE",
"280 0 LINE"
);
},
{
closed = 1;
nodes = (
"624 0 LINE",
"614 540 LINE",
"522 1224 LINE",
"416 1224 LINE",
"448 688 LINE",
"528 0 LINE"
);
}
);
width = 900;
},
{
anchors = (
{
name = bottom;
position = "{1045, 0}";
},
{
name = top;
position = "{1045, 1400}";
}
);
layerId = "DF71BB49-08D0-48AB-8F46-D55A70C0C2BD";
paths = (
{
closed = 1;
nodes = (
"1763 0 LINE",
"2062 1400 LINE",
"1621 1400 LINE",
"1469 285 LINE",
"1457 0 LINE"
);
},
{
closed = 1;
nodes = (
"644 0 LINE",
"621 285 LINE",
"474 1400 LINE",
"33 1400 LINE",
"330 0 LINE"
);
},
{
closed = 1;
nodes = (
"760 0 LINE",
"1066 724 LINE",
"1104 1228 LINE",
"930 1228 LINE",
"532 300 LINE",
"557 0 LINE"
);
},
{
closed = 1;
nodes = (
"1543 0 LINE",
"1557 307 LINE",
"1167 1228 LINE",
"995 1228 LINE",
"1043 724 LINE",
"1336 0 LINE"
);
}
);
width = 2100;
}
);
leftKerningGroup = W;
rightKerningGroup = W;
unicode = 0057;
},
{
color = 4;
glyphname = X;
lastChange = "2022-02-14 19:05:21 +0000";
layers = (
{
anchors = (
{
name = bottom;
position = "{439, 0}";
},
{
name = top;
position = "{439, 1400}";
}
);
layerId = "2E286313-D5BF-4FB4-A4B7-BD9BC13B574E";
paths = (
{
closed = 1;
nodes = (
"455 716 LINE",
"499 666 LINE",
"755 1400 LINE",
"685 1400 LINE"
);
},
{
closed = 1;
nodes = (
"755 0 LINE",
"497 716 LINE",
"429 716 LINE",
"685 0 LINE"
);
},
{
closed = 1;
nodes = (
"397 724 LINE",
"397 660 LINE",
"495 660 LINE",
"495 724 LINE"
);
},
{
closed = 1;
nodes = (
"147 1400 LINE",
"403 666 LINE",
"447 716 LINE",
"217 1400 LINE"
);
},
{
closed = 1;
nodes = (
"473 716 LINE",
"405 716 LINE",
"147 0 LINE",
"217 0 LINE"
);
}
);
width = 900;
},
{
anchors = (
{
name = bottom;
position = "{1050, 0}";
},
{
name = top;
position = "{1050, 1400}";
}
);
layerId = "E338D14E-1DA5-418D-88BC-8956EEA80AB9";
paths = (
{
closed = 1;
nodes = (
"1124 716 LINE",
"1178 666 LINE",
"1764 1400 LINE",
"1670 1400 LINE"
);
},
{
closed = 1;
nodes = (
"1764 0 LINE",
"1174 716 LINE",
"1080 716 LINE",
"1670 0 LINE"
);
},
{
closed = 1;
nodes = (
"894 724 LINE",
"894 660 LINE",
"1162 660 LINE",
"1162 724 LINE"
);
},
{
closed = 1;
nodes = (
"326 1400 LINE",
"912 666 LINE",
"966 716 LINE",
"420 1400 LINE"
);
},
{
closed = 1;
nodes = (
"1008 716 LINE",
"916 716 LINE",
"326 0 LINE",
"420 0 LINE"
);
}
);
width = 2100;
},
{
anchors = (
{
name = bottom;
position = "{442, 0}";
},
{
name = top;
position = "{442, 1400}";
}
);
layerId = "C5C974ED-4386-41E8-AA57-C40E24C26BBD";
paths = (
{
closed = 1;
nodes = (
"398 712 LINE",
"662 666 LINE",
"872 1400 LINE",
"546 1400 LINE"
);
},
{
closed = 1;
nodes = (
"872 0 LINE",
"652 732 LINE",
"362 752 LINE",
"546 0 LINE"
);
},
{
closed = 1;
nodes = (
"352 804 LINE",
"352 580 LINE",
"578 580 LINE",
"578 804 LINE"
);
},
{
closed = 1;
nodes = (
"28 1400 LINE",
"238 666 LINE",
"502 712 LINE",
"352 1400 LINE"
);
},
{
closed = 1;
nodes = (
"538 752 LINE",
"248 732 LINE",
"28 0 LINE",
"352 0 LINE"
);
}
);
width = 900;
},
{
anchors = (
{
name = bottom;
position = "{1007, 0}";
},
{
name = top;
position = "{1007, 1400}";
}
);
layerId = "DF71BB49-08D0-48AB-8F46-D55A70C0C2BD";
paths = (
{
closed = 1;
nodes = (
"1002 738 LINE",
"1358 666 LINE",
"1913 1400 LINE",
"1461 1400 LINE"
);
},
{
closed = 1;
nodes = (
"1913 0 LINE",
"1343 738 LINE",
"945 738 LINE",
"1461 0 LINE"
);
},
{
closed = 1;
nodes = (
"759 848 LINE",
"759 526 LINE",
"1256 526 LINE",
"1256 848 LINE"
);
},
{
closed = 1;
nodes = (
"80 1400 LINE",
"634 666 LINE",
"990 738 LINE",
"529 1400 LINE"
);
},
{
closed = 1;
nodes = (
"1046 738 LINE",
"649 738 LINE",
"80 0 LINE",
"529 0 LINE"
);
}
);
width = 2100;
}
);
leftKerningGroup = X;
rightKerningGroup = X;
unicode = 0058;
},
{
color = 4;
glyphname = Y;
lastChange = "2022-02-14 18:30:27 +0000";
layers = (
{
anchors = (
{
name = bottom;
position = "{596, 0}";
},
{
name = top;
position = "{450, 1400}";
},
{
name = topleft;
position = "{36, 1400}";
}
);
layerId = "2E286313-D5BF-4FB4-A4B7-BD9BC13B574E";
paths = (
{
closed = 1;
nodes = (
"452 656 LINE",
"484 574 LINE",
"750 1400 LINE",
"686 1400 LINE"
);
},
{
closed = 1;
nodes = (
"150 1400 LINE",
"418 574 LINE",
"450 656 LINE",
"214 1400 LINE"
);
},
{
closed = 1;
nodes = (
"484 0 LINE",
"484 656 LINE",
"418 656 LINE",
"418 0 LINE"
);
}
);
width = 900;
},
{
anchors = (
{
name = bottom;
position = "{1050, 0}";
},
{
name = top;
position = "{1050, 1400}";
},
{
name = topleft;
position = "{70, 1400}";
}
);
layerId = "E338D14E-1DA5-418D-88BC-8956EEA80AB9";
paths = (
{
closed = 1;
nodes = (
"1040 626 LINE",
"1090 574 LINE",
"1794 1400 LINE",
"1692 1400 LINE"
);
},
{
closed = 1;
nodes = (
"306 1400 LINE",
"1014 574 LINE",
"1064 626 LINE",
"410 1400 LINE"
);
},
{
closed = 1;
nodes = (
"1090 0 LINE",
"1090 638 LINE",
"1014 638 LINE",
"1014 0 LINE"
);
}
);
width = 2100;
},
{
anchors = (
{
name = bottom;
position = "{516, 0}";
},
{
name = top;
position = "{450, 1400}";
},
{
name = topleft;
position = "{72, 1400}";
}
);
layerId = "C5C974ED-4386-41E8-AA57-C40E24C26BBD";
paths = (
{
closed = 1;
nodes = (
"436 810 LINE",
"602 554 LINE",
"872 1400 LINE",
"550 1400 LINE"
);
},
{
closed = 1;
nodes = (
"28 1400 LINE",
"300 554 LINE",
"464 810 LINE",
"350 1400 LINE"
);
},
{
closed = 1;
nodes = (
"602 0 LINE",
"602 826 LINE",
"300 826 LINE",
"300 0 LINE"
);
}
);
width = 900;
},
{
anchors = (
{
name = bottom;
position = "{942, 0}";
},
{
name = top;
position = "{1051, 1400}";
},
{
name = topleft;
position = "{120, 1400}";
}
);
layerId = "DF71BB49-08D0-48AB-8F46-D55A70C0C2BD";
paths = (
{
closed = 1;
nodes = (
"1019 785 LINE",
"1251 547 LINE",
"1947 1400 LINE",
"1495 1400 LINE"
);
},
{
closed = 1;
nodes = (
"155 1400 LINE",
"855 547 LINE",
"1084 785 LINE",
"609 1400 LINE"
);
},
{
closed = 1;
nodes = (
"1251 0 LINE",
"1251 833 LINE",
"855 833 LINE",
"855 0 LINE"
);
}
);
width = 2100;
}
);
leftKerningGroup = Y;
rightKerningGroup = Y;
unicode = 0059;
},
{
color = 4;
glyphname = Z;
lastChange = "2022-02-14 18:30:27 +0000";
layers = (
{
anchors = (
{
name = bottom;
position = "{444, 0}";
},
{
name = top;
position = "{444, 1400}";
}
);
layerId = "2E286313-D5BF-4FB4-A4B7-BD9BC13B574E";
paths = (
{
closed = 1;
nodes = (
"708 1336 LINE",
"708 1400 LINE",
"184 1400 LINE",
"184 1336 LINE",
"646 1336 LINE",
"168 64 LINE",
"168 0 LINE",
"732 0 LINE",
"732 64 LINE",
"232 64 LINE"
);
}
);
width = 900;
},
{
anchors = (
{
name = bottom;
position = "{1020, 0}";
},
{
name = top;
position = "{1020, 1400}";
}
);
layerId = "E338D14E-1DA5-418D-88BC-8956EEA80AB9";
paths = (
{
closed = 1;
nodes = (
"1728 1336 LINE",
"1728 1400 LINE",
"356 1400 LINE",
"356 1336 LINE",
"1626 1336 LINE",
"328 64 LINE",
"328 0 LINE",
"1770 0 LINE",
"1770 64 LINE",
"438 64 LINE"
);
}
);
width = 2100;
},
{
anchors = (
{
name = bottom;
position = "{446, 0}";
},
{
name = top;
position = "{446, 1400}";
}
);
layerId = "C5C974ED-4386-41E8-AA57-C40E24C26BBD";
paths = (
{
closed = 1;
nodes = (
"724 1156 LINE",
"724 1400 LINE",
"158 1400 LINE",
"158 1156 LINE",
"404 1156 LINE",
"146 244 LINE",
"146 0 LINE",
"762 0 LINE",
"762 244 LINE",
"470 244 LINE"
);
}
);
width = 900;
},
{
anchors = (
{
name = bottom;
position = "{1015, 0}";
},
{
name = top;
position = "{1015, 1400}";
}
);
layerId = "DF71BB49-08D0-48AB-8F46-D55A70C0C2BD";
paths = (
{
closed = 1;
nodes = (
"1742 1092 LINE",
"1742 1400 LINE",
"313 1400 LINE",
"313 1092 LINE",
"1249 1092 LINE",
"290 308 LINE",
"290 0 LINE",
"1803 0 LINE",
"1803 308 LINE",
"793 308 LINE"
);
}
);
width = 2100;
}
);
leftKerningGroup = Z;
rightKerningGroup = Z;
unicode = 005A;
},
{
color = 4;
glyphname = a;
lastChange = "2022-02-14 19:06:36 +0000";
layers = (
{
anchors = (
{
name = bottom;
position = "{450, 0}";
},
{
name = ogonek;
position = "{806, 24}";
},
{
name = top;
position = "{450, 1000}";
}
);
layerId = "2E286313-D5BF-4FB4-A4B7-BD9BC13B574E";
paths = (
{
closed = 1;
nodes = (
"842 24 LINE",
"700 207 LINE",
"665 137 LINE",
"779 -19 LINE"
);
},
{
closed = 1;
nodes = (
"652 126 OFFCURVE",
"563 42 OFFCURVE",
"447 42 CURVE SMOOTH",
"325 42 OFFCURVE",
"218 100 OFFCURVE",
"218 296 CURVE SMOOTH",
"218 484 OFFCURVE",
"364 538 OFFCURVE",
"508 538 CURVE SMOOTH",
"674 538 LINE",
"674 602 LINE",
"506 602 LINE SMOOTH",
"318 602 OFFCURVE",
"150 508 OFFCURVE",
"150 296 CURVE SMOOTH",
"150 82 OFFCURVE",
"275 -22 OFFCURVE",
"429 -22 CURVE SMOOTH",
"605 -22 OFFCURVE",
"684 80 OFFCURVE",
"714 148 CURVE",
"664 210 LINE"
);
},
{
closed = 1;
nodes = (
"318 1024 OFFCURVE",
"218 962 OFFCURVE",
"168 894 CURVE",
"224 844 LINE",
"262 900 OFFCURVE",
"344 958 OFFCURVE",
"440 958 CURVE SMOOTH",
"558 958 OFFCURVE",
"658 904 OFFCURVE",
"658 746 CURVE SMOOTH",
"658 160 LINE",
"728 142 LINE",
"728 762 LINE SMOOTH",
"728 944 OFFCURVE",
"584 1024 OFFCURVE",
"452 1024 CURVE SMOOTH"
);
}
);
width = 900;
},
{
anchors = (
{
name = bottom;
position = "{1050, 0}";
},
{
name = ogonek;
position = "{1775, 22}";
},
{
name = top;
position = "{1050, 1000}";
}
);
layerId = "E338D14E-1DA5-418D-88BC-8956EEA80AB9";
paths = (
{
closed = 1;
nodes = (
"1812 22 LINE",
"1608 260 LINE",
"1580 192 LINE",
"1749 -18 LINE"
);
},
{
closed = 1;
nodes = (
"1550 181 OFFCURVE",
"1322 42 OFFCURVE",
"941 42 CURVE SMOOTH",
"665 42 OFFCURVE",
"440 91 OFFCURVE",
"440 287 CURVE SMOOTH",
"440 465 OFFCURVE",
"707 518 OFFCURVE",
"1033 518 CURVE SMOOTH",
"1598 518 LINE",
"1598 582 LINE",
"1014 582 LINE SMOOTH",
"672 582 OFFCURVE",
"364 509 OFFCURVE",
"364 287 CURVE SMOOTH",
"364 63 OFFCURVE",
"574 -22 OFFCURVE",
"926 -22 CURVE SMOOTH",
"1416 -22 OFFCURVE",
"1612 179 OFFCURVE",
"1649 230 CURVE",
"1606 278 LINE"
);
},
{
closed = 1;
nodes = (
"720 1024 OFFCURVE",
"492 920 OFFCURVE",
"404 832 CURVE",
"450 776 LINE",
"528 852 OFFCURVE",
"724 960 OFFCURVE",
"996 960 CURVE SMOOTH",
"1283 960 OFFCURVE",
"1582 884 OFFCURVE",
"1582 626 CURVE SMOOTH",
"1582 220 LINE",
"1650 202 LINE",
"1650 642 LINE SMOOTH",
"1650 924 OFFCURVE",
"1332 1024 OFFCURVE",
"1022 1024 CURVE SMOOTH"
);
}
);
width = 2100;
},
{
anchors = (
{
name = bottom;
position = "{428, 0}";
},
{
name = ogonek;
position = "{775, 130}";
},
{
name = top;
position = "{428, 1000}";
}
);
layerId = "C5C974ED-4386-41E8-AA57-C40E24C26BBD";
paths = (
{
closed = 1;
nodes = (
"896 128 LINE",
"700 378 LINE",
"506 170 LINE",
"662 -38 LINE"
);
},
{
closed = 1;
nodes = (
"475 262 OFFCURVE",
"466 214 OFFCURVE",
"420 214 CURVE SMOOTH",
"379 214 OFFCURVE",
"362 250 OFFCURVE",
"362 308 CURVE SMOOTH",
"362 360 OFFCURVE",
"380 402 OFFCURVE",
"426 402 CURVE SMOOTH",
"505 402 LINE",
"505 638 LINE",
"406 638 LINE SMOOTH",
"182 638 OFFCURVE",
"38 510 OFFCURVE",
"38 322 CURVE SMOOTH",
"38 102 OFFCURVE",
"182 -22 OFFCURVE",
"372 -22 CURVE SMOOTH",
"532 -22 OFFCURVE",
"598 88 OFFCURVE",
"626 170 CURVE",
"480 334 LINE"
);
},
{
closed = 1;
nodes = (
"220 1024 OFFCURVE",
"78 929 OFFCURVE",
"44 827 CURVE",
"325 668 LINE",
"335 705 OFFCURVE",
"359 766 OFFCURVE",
"415 766 CURVE SMOOTH",
"465 766 OFFCURVE",
"474 716 OFFCURVE",
"474 654 CURVE SMOOTH",
"474 226 LINE",
"800 172 LINE",
"800 710 LINE SMOOTH",
"800 896 OFFCURVE",
"648 1024 OFFCURVE",
"420 1024 CURVE SMOOTH"
);
}
);
width = 900;
},
{
anchors = (
{
name = bottom;
position = "{1021, 0}";
},
{
name = ogonek;
position = "{1699, 167}";
},
{
name = top;
position = "{1021, 1000}";
}
);
layerId = "DF71BB49-08D0-48AB-8F46-D55A70C0C2BD";
paths = (
{
closed = 1;
nodes = (
"1917 163 LINE",
"1627 471 LINE",
"1386 223 LINE",
"1617 -48 LINE"
);
},
{
closed = 1;
nodes = (
"1344 308 OFFCURVE",
"1122 255 OFFCURVE",
"922 255 CURVE SMOOTH",
"717 255 OFFCURVE",
"649 280 OFFCURVE",
"649 320 CURVE SMOOTH",
"649 354 OFFCURVE",
"712 373 OFFCURVE",
"994 373 CURVE SMOOTH",
"1369 373 LINE",
"1369 610 LINE",
"966 610 LINE SMOOTH",
"462 610 OFFCURVE",
"226 526 OFFCURVE",
"226 312 CURVE SMOOTH",
"226 93 OFFCURVE",
"461 -22 OFFCURVE",
"878 -22 CURVE SMOOTH",
"1324 -22 OFFCURVE",
"1515 147 OFFCURVE",
"1532 194 CURVE",
"1384 396 LINE"
);
},
{
closed = 1;
nodes = (
"607 1024 OFFCURVE",
"342 930 OFFCURVE",
"246 873 CURVE",
"577 634 LINE",
"644 679 OFFCURVE",
"799 718 OFFCURVE",
"973 718 CURVE SMOOTH",
"1163 718 OFFCURVE",
"1343 679 OFFCURVE",
"1343 591 CURVE SMOOTH",
"1343 270 LINE",
"1748 203 LINE",
"1748 631 LINE SMOOTH",
"1748 879 OFFCURVE",
"1428 1024 OFFCURVE",
"989 1024 CURVE SMOOTH"
);
}
);
width = 2100;
}
);
unicode = 0061;
},
{
glyphname = a.ss01;
lastChange = "2022-02-14 18:19:46 +0000";
layers = (
{
anchors = (
{
name = bottom;
position = "{450, 0}";
},
{
name = ogonek;
position = "{734, 0}";
},
{
name = top;
position = "{450, 1000}";
}
);
layerId = "2E286313-D5BF-4FB4-A4B7-BD9BC13B574E";
paths = (
{
closed = 1;
nodes = (
"734 1000 LINE",
"664 1000 LINE",
"664 142 LINE",
"664 0 LINE",
"734 0 LINE"
);
},
{
closed = 1;
nodes = (
"270 1022 OFFCURVE",
"136 868 OFFCURVE",
"136 502 CURVE SMOOTH",
"136 136 OFFCURVE",
"286 -22 OFFCURVE",
"430 -22 CURVE SMOOTH",
"626 -22 OFFCURVE",
"720 168 OFFCURVE",
"720 392 CURVE",
"668 390 LINE",
"652 204 OFFCURVE",
"576 44 OFFCURVE",
"438 44 CURVE SMOOTH",
"310 44 OFFCURVE",
"204 178 OFFCURVE",
"204 502 CURVE SMOOTH",
"204 832 OFFCURVE",
"296 956 OFFCURVE",
"426 956 CURVE SMOOTH",
"564 956 OFFCURVE",
"650 750 OFFCURVE",
"668 594 CURVE",
"720 594 LINE",
"720 818 OFFCURVE",
"602 1022 OFFCURVE",
"414 1022 CURVE SMOOTH"
);
}
);
width = 900;
},
{
anchors = (
{
name = bottom;
position = "{1050, 0}";
},
{
name = ogonek;
position = "{1638, 0}";
},
{
name = top;
position = "{1050, 1000}";
}
);
layerId = "E338D14E-1DA5-418D-88BC-8956EEA80AB9";
paths = (
{
closed = 1;
nodes = (
"1638 1000 LINE",
"1566 1000 LINE",
"1566 301 LINE",
"1566 0 LINE",
"1638 0 LINE"
);
},
{
closed = 1;
nodes = (
"650 1022 OFFCURVE",
"352 868 OFFCURVE",
"352 502 CURVE SMOOTH",
"352 136 OFFCURVE",
"686 -22 OFFCURVE",
"1022 -22 CURVE SMOOTH",
"1440 -22 OFFCURVE",
"1634 248 OFFCURVE",
"1634 472 CURVE",
"1572 460 LINE",
"1554 264 OFFCURVE",
"1364 44 OFFCURVE",
"1042 44 CURVE SMOOTH",
"732 44 OFFCURVE",
"430 178 OFFCURVE",
"430 502 CURVE SMOOTH",
"430 832 OFFCURVE",
"700 956 OFFCURVE",
"1012 956 CURVE SMOOTH",
"1334 956 OFFCURVE",
"1548 750 OFFCURVE",
"1572 574 CURVE",
"1634 554 LINE",
"1634 778 OFFCURVE",
"1404 1022 OFFCURVE",
"986 1022 CURVE SMOOTH"
);
}
);
width = 2100;
},
{
anchors = (
{
name = bottom;
position = "{460, 0}";
},
{
name = ogonek;
position = "{847, 0}";
},
{
name = top;
position = "{460, 1000}";
}
);
layerId = "C5C974ED-4386-41E8-AA57-C40E24C26BBD";
paths = (
{
closed = 1;
nodes = (
"847 1000 LINE",
"512 1000 LINE",
"512 142 LINE",
"542 0 LINE",
"847 0 LINE"
);
},
{
closed = 1;
nodes = (
"126 1022 OFFCURVE",
"44 848 OFFCURVE",
"44 502 CURVE SMOOTH",
"44 156 OFFCURVE",
"130 -22 OFFCURVE",
"342 -22 CURVE SMOOTH",
"492 -22 OFFCURVE",
"636 190 OFFCURVE",
"636 414 CURVE",
"512 474 LINE",
"512 348 OFFCURVE",
"502 234 OFFCURVE",
"448 234 CURVE SMOOTH",
"382 234 OFFCURVE",
"378 344 OFFCURVE",
"378 502 CURVE SMOOTH",
"378 660 OFFCURVE",
"386 766 OFFCURVE",
"452 766 CURVE SMOOTH",
"496 766 OFFCURVE",
"512 668 OFFCURVE",
"512 532 CURVE",
"636 592 LINE",
"636 770 OFFCURVE",
"498 1022 OFFCURVE",
"338 1022 CURVE SMOOTH"
);
}
);
width = 900;
},
{
anchors = (
{
name = bottom;
position = "{1050, 0}";
},
{
name = ogonek;
position = "{1779, 0}";
},
{
name = top;
position = "{1050, 1000}";
}
);
layerId = "DF71BB49-08D0-48AB-8F46-D55A70C0C2BD";
paths = (
{
closed = 1;
nodes = (
"1779 1000 LINE",
"1346 1000 LINE",
"1346 142 LINE",
"1428 0 LINE",
"1779 0 LINE"
);
},
{
closed = 1;
nodes = (
"521 1022 OFFCURVE",
"229 841 OFFCURVE",
"229 502 CURVE SMOOTH",
"229 163 OFFCURVE",
"528 -22 OFFCURVE",
"925 -22 CURVE SMOOTH",
"1308 -22 OFFCURVE",
"1512 238 OFFCURVE",
"1512 462 CURVE",
"1352 460 LINE",
"1314 334 OFFCURVE",
"1212 275 OFFCURVE",
"991 275 CURVE SMOOTH",
"769 275 OFFCURVE",
"682 376 OFFCURVE",
"682 502 CURVE SMOOTH",
"682 626 OFFCURVE",
"791 725 OFFCURVE",
"986 725 CURVE SMOOTH",
"1206 725 OFFCURVE",
"1308 659 OFFCURVE",
"1352 526 CURVE",
"1512 526 LINE",
"1512 753 OFFCURVE",
"1313 1022 OFFCURVE",
"919 1022 CURVE SMOOTH"
);
}
);
width = 2100;
}
);
},
{
glyphname = ae;
lastChange = "2022-02-14 18:40:30 +0000";
layers = (
{
anchors = (
{
name = bottom;
position = "{450, 0}";
},
{
name = top;
position = "{450, 1000}";
}
);
layerId = "2E286313-D5BF-4FB4-A4B7-BD9BC13B574E";
paths = (
{
closed = 1;
nodes = (
"450 -22 OFFCURVE",
"500 150 OFFCURVE",
"500 152 CURVE",
"450 218 LINE",
"440 150 OFFCURVE",
"380 42 OFFCURVE",
"276 42 CURVE SMOOTH",
"168 42 OFFCURVE",
"114 106 OFFCURVE",
"114 266 CURVE SMOOTH",
"114 460 OFFCURVE",
"252 498 OFFCURVE",
"358 498 CURVE SMOOTH",
"424 498 LINE",
"424 562 LINE",
"340 562 LINE SMOOTH",
"194 562 OFFCURVE",
"46 488 OFFCURVE",
"46 266 CURVE SMOOTH",
"46 82 OFFCURVE",
"122 -22 OFFCURVE",
"272 -22 CURVE SMOOTH"
);
},
{
closed = 1;
nodes = (
"98 876 LINE",
"126 910 OFFCURVE",
"168 958 OFFCURVE",
"260 958 CURVE",
"368 958 OFFCURVE",
"418 800 OFFCURVE",
"418 682 CURVE",
"472 710 LINE",
"472 894 OFFCURVE",
"388 1024 OFFCURVE",
"260 1024 CURVE",
"152 1024 OFFCURVE",
"80 962 OFFCURVE",
"58 936 CURVE"
);
},
{
closed = 1;
nodes = (
"486 510 LINE",
"476 722 LINE",
"418 682 LINE",
"418 514 LINE"
);
},
{
closed = 1;
nodes = (
"822 214 LINE",
"806 154 OFFCURVE",
"768 44 OFFCURVE",
"664 44 CURVE SMOOTH",
"512 44 OFFCURVE",
"490 224 OFFCURVE",
"490 502 CURVE SMOOTH",
"490 788 OFFCURVE",
"532 958 OFFCURVE",
"656 958 CURVE SMOOTH",
"798 958 OFFCURVE",
"820 740 OFFCURVE",
"820 562 CURVE",
"892 498 LINE",
"892 838 OFFCURVE",
"824 1024 OFFCURVE",
"656 1024 CURVE SMOOTH",
"526 1024 OFFCURVE",
"418 908 OFFCURVE",
"418 514 CURVE SMOOTH",
"418 128 OFFCURVE",
"506 -22 OFFCURVE",
"662 -22 CURVE SMOOTH",
"752 -22 OFFCURVE",
"842 38 OFFCURVE",
"888 186 CURVE"
);
},
{
closed = 1;
nodes = (
"484 498 LINE",
"892 498 LINE",
"826 562 LINE",
"484 562 LINE"
);
}
);
width = 900;
},
{
anchors = (
{
name = bottom;
position = "{1050, 0}";
},
{
name = top;
position = "{1050, 1000}";
}
);
layerId = "E338D14E-1DA5-418D-88BC-8956EEA80AB9";
paths = (
{
closed = 1;
nodes = (
"954 -22 OFFCURVE",
"1102 210 OFFCURVE",
"1103 212 CURVE",
"1059 282 LINE",
"1035 214 OFFCURVE",
"902 42 OFFCURVE",
"618 42 CURVE SMOOTH",
"386 42 OFFCURVE",
"188 106 OFFCURVE",
"188 286 CURVE SMOOTH",
"188 470 OFFCURVE",
"442 498 OFFCURVE",
"590 498 CURVE SMOOTH",
"1036 498 LINE",
"1036 562 LINE",
"568 562 LINE SMOOTH",
"348 562 OFFCURVE",
"112 498 OFFCURVE",
"112 286 CURVE SMOOTH",
"112 82 OFFCURVE",
"280 -22 OFFCURVE",
"608 -22 CURVE SMOOTH"
);
},
{
closed = 1;
nodes = (
"212 836 LINE",
"262 870 OFFCURVE",
"392 958 OFFCURVE",
"606 958 CURVE",
"940 958 OFFCURVE",
"1022 700 OFFCURVE",
"1022 582 CURVE",
"1092 590 LINE",
"1092 774 OFFCURVE",
"986 1024 OFFCURVE",
"606 1024 CURVE",
"354 1024 OFFCURVE",
"196 922 OFFCURVE",
"160 896 CURVE"
);
},
{
closed = 1;
nodes = (
"1096 510 LINE",
"1096 602 LINE",
"1022 582 LINE",
"1022 514 LINE"
);
},
{
closed = 1;
nodes = (
"1942 214 LINE",
"1904 154 OFFCURVE",
"1796 44 OFFCURVE",
"1554 44 CURVE SMOOTH",
"1198 44 OFFCURVE",
"1104 224 OFFCURVE",
"1104 502 CURVE SMOOTH",
"1104 788 OFFCURVE",
"1246 958 OFFCURVE",
"1536 958 CURVE SMOOTH",
"1866 958 OFFCURVE",
"1956 740 OFFCURVE",
"1956 562 CURVE",
"2036 498 LINE",
"2036 798 OFFCURVE",
"1926 1024 OFFCURVE",
"1536 1024 CURVE SMOOTH",
"1232 1024 OFFCURVE",
"1022 868 OFFCURVE",
"1022 514 CURVE SMOOTH",
"1022 168 OFFCURVE",
"1162 -22 OFFCURVE",
"1548 -22 CURVE SMOOTH",
"1760 -22 OFFCURVE",
"1912 38 OFFCURVE",
"2010 186 CURVE"
);
},
{
closed = 1;
nodes = (
"1090 498 LINE",
"2036 498 LINE",
"1970 562 LINE",
"1090 562 LINE"
);
}
);
width = 2100;
},
{
anchors = (
{
name = bottom;
position = "{408, 0}";
},
{
name = top;
position = "{408, 1000}";
}
);
layerId = "C5C974ED-4386-41E8-AA57-C40E24C26BBD";
paths = (
{
closed = 1;
nodes = (
"376 -22 OFFCURVE",
"437 74 OFFCURVE",
"446 146 CURVE",
"364 318 LINE",
"354 250 OFFCURVE",
"334 202 OFFCURVE",
"287 202 CURVE SMOOTH",
"249 202 OFFCURVE",
"240 250 OFFCURVE",
"240 330 CURVE SMOOTH",
"240 432 OFFCURVE",
"282 448 OFFCURVE",
"332 448 CURVE SMOOTH",
"444 448 LINE",
"444 616 LINE",
"346 616 LINE SMOOTH",
"122 616 OFFCURVE",
"2 548 OFFCURVE",
"2 326 CURVE SMOOTH",
"2 102 OFFCURVE",
"104 -22 OFFCURVE",
"240 -22 CURVE SMOOTH"
);
},
{
closed = 1;
nodes = (
"144 708 LINE",
"166 751 OFFCURVE",
"194 798 OFFCURVE",
"250 798 CURVE SMOOTH",
"298 798 OFFCURVE",
"314 768 OFFCURVE",
"314 670 CURVE",
"496 704 LINE",
"496 914 OFFCURVE",
"393 1024 OFFCURVE",
"240 1024 CURVE",
"116 1024 OFFCURVE",
"34 950 OFFCURVE",
"-7 876 CURVE"
);
},
{
closed = 1;
nodes = (
"504 458 LINE",
"498 716 LINE",
"314 670 LINE",
"318 458 LINE"
);
},
{
closed = 1;
nodes = (
"622 322 LINE",
"616 282 OFFCURVE",
"603 202 OFFCURVE",
"575 202 CURVE SMOOTH",
"551 202 OFFCURVE",
"538 264 OFFCURVE",
"538 502 CURVE SMOOTH",
"538 708 OFFCURVE",
"540 798 OFFCURVE",
"570 798 CURVE SMOOTH",
"598 798 OFFCURVE",
"602 690 OFFCURVE",
"602 612 CURVE",
"820 448 LINE",
"820 800 OFFCURVE",
"768 1024 OFFCURVE",
"596 1024 CURVE SMOOTH",
"430 1024 OFFCURVE",
"314 900 OFFCURVE",
"314 494 CURVE SMOOTH",
"314 96 OFFCURVE",
"424 -22 OFFCURVE",
"580 -22 CURVE SMOOTH",
"670 -22 OFFCURVE",
"786 62 OFFCURVE",
"826 224 CURVE"
);
},
{
closed = 1;
nodes = (
"500 448 LINE",
"820 448 LINE",
"700 612 LINE",
"500 612 LINE"
);
}
);
width = 900;
},
{
anchors = (
{
name = bottom;
position = "{993, 0}";
},
{
name = top;
position = "{993, 1000}";
}
);
layerId = "DF71BB49-08D0-48AB-8F46-D55A70C0C2BD";
paths = (
{
closed = 1;
nodes = (
"853 -22 OFFCURVE",
"1063 111 OFFCURVE",
"1097 221 CURVE",
"894 399 LINE",
"870 331 OFFCURVE",
"764 259 OFFCURVE",
"622 259 CURVE SMOOTH",
"506 259 OFFCURVE",
"427 291 OFFCURVE",
"427 342 CURVE SMOOTH",
"427 421 OFFCURVE",
"546 430 OFFCURVE",
"645 430 CURVE SMOOTH",
"1063 430 LINE",
"1063 635 LINE",
"667 635 LINE SMOOTH",
"341 635 OFFCURVE",
"52 549 OFFCURVE",
"52 327 CURVE SMOOTH",
"52 99 OFFCURVE",
"265 -22 OFFCURVE",
"594 -22 CURVE SMOOTH"
);
},
{
closed = 1;
nodes = (
"261 608 LINE",
"312 668 OFFCURVE",
"426 741 OFFCURVE",
"592 741 CURVE",
"791 741 OFFCURVE",
"881 657 OFFCURVE",
"881 566 CURVE",
"1124 582 LINE",
"1124 855 OFFCURVE",
"913 1024 OFFCURVE",
"579 1024 CURVE",
"306 1024 OFFCURVE",
"112 906 OFFCURVE",
"35 815 CURVE"
);
},
{
closed = 1;
nodes = (
"1120 439 LINE",
"1126 594 LINE",
"881 566 LINE",
"886 438 LINE"
);
},
{
closed = 1;
nodes = (
"1650 361 LINE",
"1626 328 OFFCURVE",
"1572 258 OFFCURVE",
"1445 258 CURVE SMOOTH",
"1277 258 OFFCURVE",
"1193 318 OFFCURVE",
"1193 502 CURVE SMOOTH",
"1193 679 OFFCURVE",
"1290 741 OFFCURVE",
"1434 741 CURVE SMOOTH",
"1546 741 OFFCURVE",
"1616 672 OFFCURVE",
"1616 630 CURVE",
"1938 430 LINE",
"1938 742 OFFCURVE",
"1795 1024 OFFCURVE",
"1434 1024 CURVE SMOOTH",
"1094 1024 OFFCURVE",
"887 857 OFFCURVE",
"887 487 CURVE SMOOTH",
"887 125 OFFCURVE",
"1064 -22 OFFCURVE",
"1437 -22 CURVE SMOOTH",
"1650 -22 OFFCURVE",
"1837 72 OFFCURVE",
"1936 238 CURVE"
);
},
{
closed = 1;
nodes = (
"1112 430 LINE",
"1938 430 LINE",
"1799 630 LINE",
"1112 630 LINE"
);
}
);
width = 2100;
}
);
unicode = 00E6;
},
{
color = 4;
glyphname = b;
lastChange = "2022-02-14 18:30:27 +0000";
layers = (
{
anchors = (
{
name = bottom;
position = "{450, 0}";
},
{
name = top;
position = "{450, 1000}";
}
);
layerId = "2E286313-D5BF-4FB4-A4B7-BD9BC13B574E";
paths = (
{
closed = 1;
nodes = (
"240 0 LINE",
"240 142 LINE",
"240 1600 LINE",
"170 1600 LINE",
"170 0 LINE"
);
},
{
closed = 1;
nodes = (
"302 1022 OFFCURVE",
"184 808 OFFCURVE",
"184 584 CURVE",
"236 624 LINE",
"254 770 OFFCURVE",
"340 956 OFFCURVE",
"478 956 CURVE SMOOTH",
"608 956 OFFCURVE",
"700 832 OFFCURVE",
"700 502 CURVE SMOOTH",
"700 178 OFFCURVE",
"594 44 OFFCURVE",
"466 44 CURVE SMOOTH",
"328 44 OFFCURVE",
"252 234 OFFCURVE",
"236 400 CURVE",
"184 432 LINE",
"184 208 OFFCURVE",
"278 -22 OFFCURVE",
"474 -22 CURVE SMOOTH",
"618 -22 OFFCURVE",
"768 136 OFFCURVE",
"768 502 CURVE SMOOTH",
"768 868 OFFCURVE",
"634 1022 OFFCURVE",
"490 1022 CURVE SMOOTH"
);
}
);
width = 900;
},
{
anchors = (
{
name = bottom;
position = "{1050, 0}";
},
{
name = top;
position = "{1050, 1000}";
}
);
layerId = "E338D14E-1DA5-418D-88BC-8956EEA80AB9";
paths = (
{
closed = 1;
nodes = (
"540 0 LINE",
"540 274 LINE",
"540 1600 LINE",
"468 1600 LINE",
"468 0 LINE"
);
},
{
closed = 1;
nodes = (
"712 1022 OFFCURVE",
"472 798 OFFCURVE",
"472 574 CURVE",
"534 614 LINE",
"578 760 OFFCURVE",
"782 956 OFFCURVE",
"1104 956 CURVE SMOOTH",
"1416 956 OFFCURVE",
"1698 832 OFFCURVE",
"1698 502 CURVE SMOOTH",
"1698 178 OFFCURVE",
"1416 44 OFFCURVE",
"1104 44 CURVE SMOOTH",
"782 44 OFFCURVE",
"572 224 OFFCURVE",
"534 390 CURVE",
"472 422 LINE",
"472 198 OFFCURVE",
"712 -22 OFFCURVE",
"1130 -22 CURVE SMOOTH",
"1466 -22 OFFCURVE",
"1774 136 OFFCURVE",
"1774 502 CURVE SMOOTH",
"1774 868 OFFCURVE",
"1466 1022 OFFCURVE",
"1130 1022 CURVE SMOOTH"
);
}
);
width = 2100;
},
{
anchors = (
{
name = bottom;
position = "{430, 0}";
},
{
name = top;
position = "{430, 1000}";
}
);
layerId = "C5C974ED-4386-41E8-AA57-C40E24C26BBD";
paths = (
{
closed = 1;
nodes = (
"306 0 LINE",
"376 142 LINE",
"376 1600 LINE",
"40 1600 LINE",
"40 0 LINE"
);
},
{
closed = 1;
nodes = (
"366 1022 OFFCURVE",
"288 828 OFFCURVE",
"288 604 CURVE",
"375 584 LINE",
"375 688 OFFCURVE",
"388 766 OFFCURVE",
"430 766 CURVE SMOOTH",
"482 766 OFFCURVE",
"486 660 OFFCURVE",
"486 502 CURVE SMOOTH",
"486 344 OFFCURVE",
"478 234 OFFCURVE",
"426 234 CURVE SMOOTH",
"376 234 OFFCURVE",
"375 336 OFFCURVE",
"375 440 CURVE",
"288 420 LINE",
"288 196 OFFCURVE",
"330 -22 OFFCURVE",
"532 -22 CURVE SMOOTH",
"742 -22 OFFCURVE",
"838 156 OFFCURVE",
"838 502 CURVE SMOOTH",
"838 848 OFFCURVE",
"746 1022 OFFCURVE",
"546 1022 CURVE SMOOTH"
);
}
);
width = 900;
},
{
anchors = (
{
name = bottom;
position = "{1023, 0}";
},
{
name = top;
position = "{1023, 1000}";
}
);
layerId = "DF71BB49-08D0-48AB-8F46-D55A70C0C2BD";
paths = (
{
closed = 1;
nodes = (
"637 0 LINE",
"725 201 LINE",
"725 1600 LINE",
"292 1600 LINE",
"292 0 LINE"
);
},
{
closed = 1;
nodes = (
"799 1022 OFFCURVE",
"574 852 OFFCURVE",
"574 601 CURVE",
"723 520 LINE",
"743 610 OFFCURVE",
"898 698 OFFCURVE",
"1086 698 CURVE SMOOTH",
"1297 698 OFFCURVE",
"1408 625 OFFCURVE",
"1408 502 CURVE SMOOTH",
"1408 376 OFFCURVE",
"1310 302 OFFCURVE",
"1097 302 CURVE SMOOTH",
"894 302 OFFCURVE",
"739 393 OFFCURVE",
"723 474 CURVE",
"574 416 LINE",
"574 165 OFFCURVE",
"810 -22 OFFCURVE",
"1209 -22 CURVE SMOOTH",
"1624 -22 OFFCURVE",
"1869 163 OFFCURVE",
"1869 502 CURVE SMOOTH",
"1869 841 OFFCURVE",
"1608 1022 OFFCURVE",
"1206 1022 CURVE SMOOTH"
);
}
);
width = 2100;
}
);
leftKerningGroup = h;
rightKerningGroup = o;
unicode = 0062;
},
{
color = 4;
glyphname = c;
lastChange = "2022-02-14 18:30:27 +0000";
layers = (
{
anchors = (
{
name = bottom;
position = "{496, 0}";
},
{
name = top;
position = "{496, 1000}";
}
);
layerId = "2E286313-D5BF-4FB4-A4B7-BD9BC13B574E";
paths = (
{
closed = 1;
nodes = (
"698 212 LINE",
"672 138 OFFCURVE",
"628 44 OFFCURVE",
"510 44 CURVE SMOOTH",
"386 44 OFFCURVE",
"264 188 OFFCURVE",
"264 502 CURVE SMOOTH",
"264 820 OFFCURVE",
"386 958 OFFCURVE",
"510 958 CURVE SMOOTH",
"624 958 OFFCURVE",
"662 892 OFFCURVE",
"702 784 CURVE",
"768 816 LINE",
"728 922 OFFCURVE",
"656 1024 OFFCURVE",
"510 1024 CURVE SMOOTH",
"364 1024 OFFCURVE",
"192 888 OFFCURVE",
"192 502 CURVE SMOOTH",
"192 120 OFFCURVE",
"364 -22 OFFCURVE",
"510 -22 CURVE SMOOTH",
"656 -22 OFFCURVE",
"742 104 OFFCURVE",
"768 178 CURVE"
);
}
);
width = 900;
},
{
anchors = (
{
name = bottom;
position = "{1156, 0}";
},
{
name = top;
position = "{1156, 1000}";
}
);
layerId = "E338D14E-1DA5-418D-88BC-8956EEA80AB9";
paths = (
{
closed = 1;
nodes = (
"1722 226 LINE",
"1660 152 OFFCURVE",
"1464 44 OFFCURVE",
"1190 44 CURVE SMOOTH",
"916 44 OFFCURVE",
"546 168 OFFCURVE",
"546 502 CURVE SMOOTH",
"546 840 OFFCURVE",
"916 958 OFFCURVE",
"1190 958 CURVE SMOOTH",
"1464 958 OFFCURVE",
"1638 878 OFFCURVE",
"1730 770 CURVE",
"1782 816 LINE",
"1688 922 OFFCURVE",
"1512 1024 OFFCURVE",
"1190 1024 CURVE SMOOTH",
"868 1024 OFFCURVE",
"468 888 OFFCURVE",
"468 502 CURVE SMOOTH",
"468 120 OFFCURVE",
"868 -22 OFFCURVE",
"1190 -22 CURVE SMOOTH",
"1512 -22 OFFCURVE",
"1720 104 OFFCURVE",
"1782 178 CURVE"
);
}
);
width = 2100;
},
{
anchors = (
{
name = bottom;
position = "{500, 0}";
},
{
name = top;
position = "{500, 1000}";
}
);
layerId = "C5C974ED-4386-41E8-AA57-C40E24C26BBD";
paths = (
{
closed = 1;
nodes = (
"572 398 LINE",
"562 300 OFFCURVE",
"544 230 OFFCURVE",
"496 230 CURVE SMOOTH",
"434 230 OFFCURVE",
"418 308 OFFCURVE",
"418 502 CURVE SMOOTH",
"418 700 OFFCURVE",
"434 772 OFFCURVE",
"496 772 CURVE SMOOTH",
"544 772 OFFCURVE",
"562 700 OFFCURVE",
"572 602 CURVE",
"848 746 LINE",
"810 922 OFFCURVE",
"656 1024 OFFCURVE",
"492 1024 CURVE SMOOTH",
"276 1024 OFFCURVE",
"82 868 OFFCURVE",
"82 502 CURVE SMOOTH",
"82 140 OFFCURVE",
"276 -22 OFFCURVE",
"492 -22 CURVE SMOOTH",
"658 -22 OFFCURVE",
"804 92 OFFCURVE",
"850 256 CURVE"
);
}
);
width = 900;
},
{
anchors = (
{
name = bottom;
position = "{1162, 0}";
},
{
name = top;
position = "{1162, 1000}";
}
);
layerId = "DF71BB49-08D0-48AB-8F46-D55A70C0C2BD";
paths = (
{
closed = 1;
nodes = (
"1541 408 LINE",
"1476 340 OFFCURVE",
"1313 296 OFFCURVE",
"1134 296 CURVE SMOOTH",
"944 296 OFFCURVE",
"755 331 OFFCURVE",
"755 502 CURVE SMOOTH",
"755 677 OFFCURVE",
"944 706 OFFCURVE",
"1134 706 CURVE SMOOTH",
"1318 706 OFFCURVE",
"1475 664 OFFCURVE",
"1544 593 CURVE",
"1891 811 LINE",
"1800 922 OFFCURVE",
"1484 1024 OFFCURVE",
"1139 1024 CURVE SMOOTH",
"742 1024 OFFCURVE",
"319 888 OFFCURVE",
"319 502 CURVE SMOOTH",
"319 120 OFFCURVE",
"742 -22 OFFCURVE",
"1139 -22 CURVE SMOOTH",
"1482 -22 OFFCURVE",
"1803 98 OFFCURVE",
"1894 194 CURVE"
);
}
);
width = 2100;
}
);
leftKerningGroup = o;
rightKerningGroup = c;
unicode = 0063;
},
{
color = 4;
glyphname = d;
lastChange = "2022-02-14 18:30:27 +0000";
layers = (
{
anchors = (
{
name = bottom;
position = "{396, 0}";
},
{
name = center;
position = "{680, 1298}";
},
{
name = top;
position = "{396, 1000}";
},
{
name = topright;
position = "{878, 1400}";
}
);
layerId = "2E286313-D5BF-4FB4-A4B7-BD9BC13B574E";
paths = (
{
closed = 1;
nodes = (
"606 -22 OFFCURVE",
"700 208 OFFCURVE",
"700 432 CURVE",
"648 400 LINE",
"632 234 OFFCURVE",
"556 44 OFFCURVE",
"418 44 CURVE SMOOTH",
"290 44 OFFCURVE",
"184 178 OFFCURVE",
"184 502 CURVE SMOOTH",
"184 832 OFFCURVE",
"276 956 OFFCURVE",
"406 956 CURVE SMOOTH",
"544 956 OFFCURVE",
"630 770 OFFCURVE",
"648 624 CURVE",
"700 584 LINE",
"700 808 OFFCURVE",
"582 1022 OFFCURVE",
"394 1022 CURVE SMOOTH",
"250 1022 OFFCURVE",
"116 868 OFFCURVE",
"116 502 CURVE SMOOTH",
"116 136 OFFCURVE",
"266 -22 OFFCURVE",
"410 -22 CURVE SMOOTH"
);
},
{
closed = 1;
nodes = (
"714 0 LINE",
"714 1600 LINE",
"644 1600 LINE",
"644 142 LINE",
"644 0 LINE"
);
}
);
width = 900;
},
{
anchors = (
{
name = bottom;
position = "{1004, 44}";
},
{
name = center;
position = "{1616, 1298}";
},
{
name = top;
position = "{950, 956}";
},
{
name = topright;
position = "{1890, 1400}";
}
);
layerId = "E338D14E-1DA5-418D-88BC-8956EEA80AB9";
paths = (
{
closed = 1;
nodes = (
"1406 -22 OFFCURVE",
"1646 198 OFFCURVE",
"1646 422 CURVE",
"1584 390 LINE",
"1546 224 OFFCURVE",
"1336 44 OFFCURVE",
"1014 44 CURVE SMOOTH",
"702 44 OFFCURVE",
"420 178 OFFCURVE",
"420 502 CURVE SMOOTH",
"420 832 OFFCURVE",
"702 956 OFFCURVE",
"1014 956 CURVE SMOOTH",
"1336 956 OFFCURVE",
"1540 760 OFFCURVE",
"1584 614 CURVE",
"1646 574 LINE",
"1646 798 OFFCURVE",
"1406 1022 OFFCURVE",
"988 1022 CURVE SMOOTH",
"652 1022 OFFCURVE",
"344 868 OFFCURVE",
"344 502 CURVE SMOOTH",
"344 136 OFFCURVE",
"652 -22 OFFCURVE",
"988 -22 CURVE SMOOTH"
);
},
{
closed = 1;
nodes = (
"1650 0 LINE",
"1650 1600 LINE",
"1578 1600 LINE",
"1578 274 LINE",
"1578 0 LINE"
);
}
);
width = 2100;
},
{
anchors = (
{
name = bottom;
position = "{408, -12}";
},
{
name = center;
position = "{636, 1298}";
},
{
name = top;
position = "{424, 1012}";
},
{
name = topright;
position = "{926, 1400}";
}
);
layerId = "C5C974ED-4386-41E8-AA57-C40E24C26BBD";
paths = (
{
closed = 1;
nodes = (
"552 -22 OFFCURVE",
"594 196 OFFCURVE",
"594 420 CURVE",
"507 440 LINE",
"507 336 OFFCURVE",
"506 234 OFFCURVE",
"456 234 CURVE SMOOTH",
"404 234 OFFCURVE",
"396 344 OFFCURVE",
"396 502 CURVE SMOOTH",
"396 660 OFFCURVE",
"400 766 OFFCURVE",
"452 766 CURVE SMOOTH",
"494 766 OFFCURVE",
"507 688 OFFCURVE",
"507 584 CURVE",
"594 604 LINE",
"594 828 OFFCURVE",
"516 1022 OFFCURVE",
"336 1022 CURVE SMOOTH",
"136 1022 OFFCURVE",
"44 848 OFFCURVE",
"44 502 CURVE SMOOTH",
"44 156 OFFCURVE",
"140 -22 OFFCURVE",
"350 -22 CURVE SMOOTH"
);
},
{
closed = 1;
nodes = (
"842 0 LINE",
"842 1600 LINE",
"506 1600 LINE",
"506 142 LINE",
"576 0 LINE"
);
}
);
width = 900;
},
{
anchors = (
{
name = bottom;
position = "{986, 32}";
},
{
name = center;
position = "{1542, 1298}";
},
{
name = top;
position = "{948, 968}";
},
{
name = topright;
position = "{1908, 1400}";
}
);
layerId = "DF71BB49-08D0-48AB-8F46-D55A70C0C2BD";
paths = (
{
closed = 1;
nodes = (
"1276 -22 OFFCURVE",
"1472 165 OFFCURVE",
"1472 416 CURVE",
"1363 474 LINE",
"1347 393 OFFCURVE",
"1192 302 OFFCURVE",
"989 302 CURVE SMOOTH",
"756 302 OFFCURVE",
"678 376 OFFCURVE",
"678 502 CURVE SMOOTH",
"678 625 OFFCURVE",
"769 698 OFFCURVE",
"1000 698 CURVE SMOOTH",
"1188 698 OFFCURVE",
"1343 610 OFFCURVE",
"1363 520 CURVE",
"1472 601 LINE",
"1472 852 OFFCURVE",
"1287 1022 OFFCURVE",
"880 1022 CURVE SMOOTH",
"478 1022 OFFCURVE",
"217 841 OFFCURVE",
"217 502 CURVE SMOOTH",
"217 163 OFFCURVE",
"462 -22 OFFCURVE",
"877 -22 CURVE SMOOTH"
);
},
{
closed = 1;
nodes = (
"1794 0 LINE",
"1794 1600 LINE",
"1361 1600 LINE",
"1361 201 LINE",
"1449 0 LINE"
);
}
);
width = 2100;
}
);
leftKerningGroup = o;
rightKerningGroup = l;
unicode = 0064;
},
{
glyphname = eth;
lastChange = "2022-02-14 18:42:30 +0000";
layers = (
{
layerId = "2E286313-D5BF-4FB4-A4B7-BD9BC13B574E";
paths = (
{
closed = 1;
nodes = (
"292 44 OFFCURVE",
"218 228 OFFCURVE",
"218 502 CURVE SMOOTH",
"218 780 OFFCURVE",
"284 958 OFFCURVE",
"430 958 CURVE SMOOTH",
"572 958 OFFCURVE",
"668 706 OFFCURVE",
"674 582 CURVE",
"718 628 LINE",
"706 742 OFFCURVE",
"626 1024 OFFCURVE",
"436 1024 CURVE SMOOTH",
"226 1024 OFFCURVE",
"148 808 OFFCURVE",
"148 502 CURVE SMOOTH",
"148 200 OFFCURVE",
"244 -22 OFFCURVE",
"438 -22 CURVE",
"438 44 LINE"
);
},
{
closed = 1;
nodes = (
"212 1504 LINE",
"410 1482 OFFCURVE",
"674 1132 OFFCURVE",
"674 616 CURVE SMOOTH",
"674 138 OFFCURVE",
"578 44 OFFCURVE",
"438 44 CURVE",
"438 -22 LINE",
"614 -22 OFFCURVE",
"746 110 OFFCURVE",
"746 616 CURVE SMOOTH",
"746 1112 OFFCURVE",
"508 1520 OFFCURVE",
"244 1570 CURVE"
);
},
{
closed = 1;
nodes = (
"296 1344 LINE",
"348 1288 LINE",
"586 1460 LINE",
"532 1524 LINE"
);
}
);
width = 900;
},
{
layerId = "E338D14E-1DA5-418D-88BC-8956EEA80AB9";
paths = (
{
closed = 1;
nodes = (
"680 44 OFFCURVE",
"399 202 OFFCURVE",
"399 502 CURVE SMOOTH",
"399 808 OFFCURVE",
"662 958 OFFCURVE",
"1004 958 CURVE SMOOTH",
"1354 958 OFFCURVE",
"1624 696 OFFCURVE",
"1640 572 CURVE",
"1705 608 LINE",
"1677 722 OFFCURVE",
"1460 1024 OFFCURVE",
"1016 1024 CURVE SMOOTH",
"526 1024 OFFCURVE",
"318 808 OFFCURVE",
"318 502 CURVE SMOOTH",
"318 200 OFFCURVE",
"568 -22 OFFCURVE",
"1022 -22 CURVE",
"1022 44 LINE"
);
},
{
closed = 1;
nodes = (
"574 1524 LINE",
"1046 1502 OFFCURVE",
"1638 1112 OFFCURVE",
"1638 596 CURVE SMOOTH",
"1638 178 OFFCURVE",
"1348 44 OFFCURVE",
"1022 44 CURVE",
"1022 -22 LINE",
"1432 -22 OFFCURVE",
"1720 156 OFFCURVE",
"1720 602 CURVE SMOOTH",
"1720 1102 OFFCURVE",
"1228 1530 OFFCURVE",
"638 1590 CURVE"
);
},
{
closed = 1;
nodes = (
"756 1314 LINE",
"810 1258 LINE",
"1248 1530 LINE",
"1204 1596 LINE"
);
}
);
width = 2100;
},
{
layerId = "C5C974ED-4386-41E8-AA57-C40E24C26BBD";
paths = (
{
closed = 1;
nodes = (
"354 214 OFFCURVE",
"344 348 OFFCURVE",
"344 502 CURVE SMOOTH",
"344 660 OFFCURVE",
"358 788 OFFCURVE",
"420 788 CURVE SMOOTH",
"484 788 OFFCURVE",
"491 670 OFFCURVE",
"495 566 CURVE",
"615 684 LINE",
"562 894 OFFCURVE",
"476 1024 OFFCURVE",
"374 1024 CURVE SMOOTH",
"190 1024 OFFCURVE",
"30 868 OFFCURVE",
"30 502 CURVE SMOOTH",
"30 140 OFFCURVE",
"206 -22 OFFCURVE",
"398 -22 CURVE",
"408 214 LINE"
);
},
{
closed = 1;
nodes = (
"126 1424 LINE",
"396 1356 OFFCURVE",
"488 1030 OFFCURVE",
"488 654 CURVE SMOOTH",
"488 280 OFFCURVE",
"484 214 OFFCURVE",
"408 214 CURVE",
"398 -22 LINE",
"616 -22 OFFCURVE",
"802 70 OFFCURVE",
"802 654 CURVE SMOOTH",
"802 1212 OFFCURVE",
"454 1536 OFFCURVE",
"218 1606 CURVE"
);
},
{
closed = 1;
nodes = (
"160 1282 LINE",
"286 1140 LINE",
"662 1410 LINE",
"554 1554 LINE"
);
}
);
width = 900;
},
{
layerId = "DF71BB49-08D0-48AB-8F46-D55A70C0C2BD";
paths = (
{
closed = 1;
nodes = (
"737 275 OFFCURVE",
"565 337 OFFCURVE",
"565 502 CURVE SMOOTH",
"565 670 OFFCURVE",
"722 727 OFFCURVE",
"950 727 CURVE SMOOTH",
"1192 727 OFFCURVE",
"1338 667 OFFCURVE",
"1420 514 CURVE",
"1678 598 LINE",
"1578 853 OFFCURVE",
"1263 1024 OFFCURVE",
"932 1024 CURVE SMOOTH",
"497 1024 OFFCURVE",
"158 869 OFFCURVE",
"158 502 CURVE SMOOTH",
"158 139 OFFCURVE",
"536 -22 OFFCURVE",
"968 -22 CURVE",
"968 275 LINE"
);
},
{
closed = 1;
nodes = (
"457 1415 LINE",
"1027 1331 OFFCURVE",
"1386 973 OFFCURVE",
"1386 648 CURVE SMOOTH",
"1386 371 OFFCURVE",
"1197 275 OFFCURVE",
"968 275 CURVE",
"968 -22 LINE",
"1379 -22 OFFCURVE",
"1796 102 OFFCURVE",
"1796 654 CURVE SMOOTH",
"1796 1237 OFFCURVE",
"1155 1552 OFFCURVE",
"603 1639 CURVE"
);
},
{
closed = 1;
nodes = (
"544 1284 LINE",
"699 1111 LINE",
"1324 1516 LINE",
"1207 1691 LINE"
);
}
);
width = 2100;
}
);
unicode = 00F0;
},
{
color = 4;
glyphname = e;
lastChange = "2022-02-14 18:30:27 +0000";
layers = (
{
anchors = (
{
name = bottom;
position = "{456, 0}";
},
{
name = ogonek;
position = "{666, 81}";
},
{
name = top;
position = "{456, 1000}";
}
);
layerId = "2E286313-D5BF-4FB4-A4B7-BD9BC13B574E";
paths = (
{
closed = 1;
nodes = (
"186 498 LINE",
"750 498 LINE",
"750 778 OFFCURVE",
"666 1024 OFFCURVE",
"456 1024 CURVE SMOOTH",
"294 1024 OFFCURVE",
"140 868 OFFCURVE",
"140 502 CURVE SMOOTH",
"140 140 OFFCURVE",
"272 -22 OFFCURVE",
"450 -22 CURVE SMOOTH",
"626 -22 OFFCURVE",
"712 128 OFFCURVE",
"734 184 CURVE",
"672 218 LINE",
"656 166 OFFCURVE",
"602 44 OFFCURVE",
"450 44 CURVE SMOOTH",
"292 44 OFFCURVE",
"210 212 OFFCURVE",
"210 502 CURVE SMOOTH",
"210 816 OFFCURVE",
"312 958 OFFCURVE",
"452 958 CURVE SMOOTH",
"624 958 OFFCURVE",
"680 746 OFFCURVE",
"680 562 CURVE",
"186 562 LINE"
);
}
);
width = 900;
},
{
anchors = (
{
name = bottom;
position = "{1076, 0}";
},
{
name = ogonek;
position = "{1578, 97}";
},
{
name = top;
position = "{1076, 1000}";
}
);
layerId = "E338D14E-1DA5-418D-88BC-8956EEA80AB9";
paths = (
{
closed = 1;
nodes = (
"420 498 LINE",
"1734 498 LINE",
"1734 820 OFFCURVE",
"1458 1024 OFFCURVE",
"1068 1024 CURVE SMOOTH",
"690 1024 OFFCURVE",
"356 854 OFFCURVE",
"356 510 CURVE SMOOTH",
"356 168 OFFCURVE",
"668 -22 OFFCURVE",
"1064 -22 CURVE SMOOTH",
"1406 -22 OFFCURVE",
"1638 110 OFFCURVE",
"1718 184 CURVE",
"1656 238 LINE",
"1590 168 OFFCURVE",
"1390 44 OFFCURVE",
"1064 44 CURVE SMOOTH",
"670 44 OFFCURVE",
"432 232 OFFCURVE",
"432 502 CURVE SMOOTH",
"432 816 OFFCURVE",
"722 958 OFFCURVE",
"1068 958 CURVE SMOOTH",
"1448 958 OFFCURVE",
"1648 752 OFFCURVE",
"1648 562 CURVE",
"420 562 LINE"
);
}
);
width = 2100;
},
{
anchors = (
{
name = bottom;
position = "{424, 0}";
},
{
name = ogonek;
position = "{734, 98}";
},
{
name = top;
position = "{424, 1000}";
}
);
layerId = "C5C974ED-4386-41E8-AA57-C40E24C26BBD";
paths = (
{
closed = 1;
nodes = (
"314 458 LINE",
"840 458 LINE",
"840 858 OFFCURVE",
"684 1024 OFFCURVE",
"442 1024 CURVE SMOOTH",
"210 1024 OFFCURVE",
"30 830 OFFCURVE",
"30 500 CURVE SMOOTH",
"30 170 OFFCURVE",
"210 -22 OFFCURVE",
"446 -22 CURVE SMOOTH",
"662 -22 OFFCURVE",
"782 112 OFFCURVE",
"812 228 CURVE",
"530 356 LINE",
"518 282 OFFCURVE",
"484 234 OFFCURVE",
"446 234 CURVE SMOOTH",
"386 234 OFFCURVE",
"364 302 OFFCURVE",
"364 492 CURVE SMOOTH",
"364 694 OFFCURVE",
"388 776 OFFCURVE",
"448 776 CURVE SMOOTH",
"508 776 OFFCURVE",
"522 694 OFFCURVE",
"522 642 CURVE",
"314 642 LINE"
);
}
);
width = 900;
},
{
anchors = (
{
name = bottom;
position = "{1032, 0}";
},
{
name = ogonek;
position = "{1607, 63}";
},
{
name = top;
position = "{1032, 1000}";
}
);
layerId = "DF71BB49-08D0-48AB-8F46-D55A70C0C2BD";
paths = (
{
closed = 1;
nodes = (
"593 423 LINE",
"1869 423 LINE",
"1869 873 OFFCURVE",
"1471 1024 OFFCURVE",
"1049 1024 CURVE SMOOTH",
"606 1024 OFFCURVE",
"201 870 OFFCURVE",
"201 507 CURVE SMOOTH",
"201 141 OFFCURVE",
"604 -22 OFFCURVE",
"1058 -22 CURVE SMOOTH",
"1453 -22 OFFCURVE",
"1678 79 OFFCURVE",
"1794 141 CURVE",
"1445 378 LINE",
"1385 328 OFFCURVE",
"1231 284 OFFCURVE",
"1058 284 CURVE SMOOTH",
"811 284 OFFCURVE",
"641 368 OFFCURVE",
"641 502 CURVE SMOOTH",
"641 664 OFFCURVE",
"825 731 OFFCURVE",
"1062 731 CURVE SMOOTH",
"1288 731 OFFCURVE",
"1391 654 OFFCURVE",
"1400 631 CURVE",
"593 631 LINE"
);
}
);
width = 2100;
}
);
leftKerningGroup = o;
rightKerningGroup = e;
unicode = 0065;
},
{
glyphname = schwa;
lastChange = "2022-02-14 18:45:41 +0000";
layers = (
{
anchors = (
{
name = bottom;
position = "{476, 0}";
},
{
name = ogonek;
position = "{166.421, 901.902}";
},
{
name = top;
position = "{476, 1000}";
}
);
layerId = "C5C974ED-4386-41E8-AA57-C40E24C26BBD";
paths = (
{
closed = 1;
nodes = (
"586 542 LINE",
"60 542 LINE",
"60 142 OFFCURVE",
"216 -24 OFFCURVE",
"458 -24 CURVE SMOOTH",
"690 -24 OFFCURVE",
"870 170 OFFCURVE",
"870 500 CURVE SMOOTH",
"870 830 OFFCURVE",
"690 1022 OFFCURVE",
"454 1022 CURVE SMOOTH",
"238 1022 OFFCURVE",
"118 888 OFFCURVE",
"88 772 CURVE",
"370 644 LINE",
"382 718 OFFCURVE",
"416 766 OFFCURVE",
"454 766 CURVE SMOOTH",
"514 766 OFFCURVE",
"536 698 OFFCURVE",
"536 508 CURVE SMOOTH",
"536 306 OFFCURVE",
"512 224 OFFCURVE",
"452 224 CURVE SMOOTH",
"392 224 OFFCURVE",
"378 306 OFFCURVE",
"378 358 CURVE",
"586 358 LINE"
);
}
);
width = 900;
},
{
anchors = (
{
name = bottom;
position = "{444, 0}";
},
{
name = ogonek;
position = "{234, 918.878}";
},
{
name = top;
position = "{444, 1000}";
}
);
layerId = "2E286313-D5BF-4FB4-A4B7-BD9BC13B574E";
paths = (
{
closed = 1;
nodes = (
"714 502 LINE",
"150 502 LINE",
"150 222 OFFCURVE",
"234 -24 OFFCURVE",
"444 -24 CURVE SMOOTH",
"606 -24 OFFCURVE",
"760 132 OFFCURVE",
"760 498 CURVE SMOOTH",
"760 860 OFFCURVE",
"628 1022 OFFCURVE",
"450 1022 CURVE SMOOTH",
"274 1022 OFFCURVE",
"188 872 OFFCURVE",
"166 816 CURVE",
"228 782 LINE",
"244 834 OFFCURVE",
"298 956 OFFCURVE",
"450 956 CURVE SMOOTH",
"608 956 OFFCURVE",
"690 788 OFFCURVE",
"690 498 CURVE SMOOTH",
"690 184 OFFCURVE",
"588 42 OFFCURVE",
"448 42 CURVE SMOOTH",
"276 42 OFFCURVE",
"220 254 OFFCURVE",
"220 438 CURVE",
"714 438 LINE"
);
}
);
width = 900;
},
{
anchors = (
{
name = bottom;
position = "{1024, 0}";
},
{
name = ogonek;
position = "{521.659, 902.826}";
},
{
name = top;
position = "{1024, 1000}";
}
);
layerId = "E338D14E-1DA5-418D-88BC-8956EEA80AB9";
paths = (
{
closed = 1;
nodes = (
"1680 502 LINE",
"366 502 LINE",
"366 180 OFFCURVE",
"642 -24 OFFCURVE",
"1032 -24 CURVE SMOOTH",
"1410 -24 OFFCURVE",
"1744 146 OFFCURVE",
"1744 490 CURVE SMOOTH",
"1744 832 OFFCURVE",
"1432 1022 OFFCURVE",
"1036 1022 CURVE SMOOTH",
"694 1022 OFFCURVE",
"462 890 OFFCURVE",
"382 816 CURVE",
"444 762 LINE",
"510 832 OFFCURVE",
"710 956 OFFCURVE",
"1036 956 CURVE SMOOTH",
"1430 956 OFFCURVE",
"1668 768 OFFCURVE",
"1668 498 CURVE SMOOTH",
"1668 184 OFFCURVE",
"1378 42 OFFCURVE",
"1032 42 CURVE SMOOTH",
"652 42 OFFCURVE",
"452 248 OFFCURVE",
"452 438 CURVE",
"1680 438 LINE"
);
}
);
width = 2100;
},
{
anchors = (
{
name = bottom;
position = "{1068, 0}";
},
{
name = ogonek;
position = "{493.382, 937.384}";
},
{
name = top;
position = "{1068, 1000}";
}
);
layerId = "DF71BB49-08D0-48AB-8F46-D55A70C0C2BD";
paths = (
{
closed = 1;
nodes = (
"1507 577 LINE",
"231 577 LINE",
"231 127 OFFCURVE",
"629 -24 OFFCURVE",
"1051 -24 CURVE SMOOTH",
"1494 -24 OFFCURVE",
"1899 130 OFFCURVE",
"1899 493 CURVE SMOOTH",
"1899 859 OFFCURVE",
"1496 1022 OFFCURVE",
"1042 1022 CURVE SMOOTH",
"647 1022 OFFCURVE",
"422 921 OFFCURVE",
"306 859 CURVE",
"655 622 LINE",
"715 672 OFFCURVE",
"869 716 OFFCURVE",
"1042 716 CURVE SMOOTH",
"1289 716 OFFCURVE",
"1459 632 OFFCURVE",
"1459 498 CURVE SMOOTH",
"1459 336 OFFCURVE",
"1275 269 OFFCURVE",
"1038 269 CURVE SMOOTH",
"812 269 OFFCURVE",
"709 346 OFFCURVE",
"700 369 CURVE",
"1507 369 LINE"
);
}
);
width = 2100;
}
);
unicode = 0259;
},
{
color = 4;
glyphname = f;
lastChange = "2022-02-14 18:30:27 +0000";
layers = (
{
layerId = "2E286313-D5BF-4FB4-A4B7-BD9BC13B574E";
paths = (
{
closed = 1;
nodes = (
"160 936 LINE",
"778 936 LINE",
"778 1000 LINE",
"160 1000 LINE"
);
},
{
closed = 1;
nodes = (
"478 1614 OFFCURVE",
"376 1488 OFFCURVE",
"376 1252 CURVE SMOOTH",
"376 0 LINE",
"446 0 LINE",
"446 1236 LINE SMOOTH",
"446 1468 OFFCURVE",
"522 1548 OFFCURVE",
"654 1548 CURVE SMOOTH",
"756 1548 OFFCURVE",
"798 1470 OFFCURVE",
"808 1448 CURVE",
"858 1488 LINE",
"844 1522 OFFCURVE",
"778 1614 OFFCURVE",
"652 1614 CURVE SMOOTH"
);
}
);
width = 900;
},
{
layerId = "E338D14E-1DA5-418D-88BC-8956EEA80AB9";
paths = (
{
closed = 1;
nodes = (
"286 936 LINE",
"1631 936 LINE",
"1631 1000 LINE",
"286 1000 LINE"
);
},
{
closed = 1;
nodes = (
"1066 1614 OFFCURVE",
"838 1444 OFFCURVE",
"838 1088 CURVE SMOOTH",
"838 0 LINE",
"914 0 LINE",
"914 1072 LINE SMOOTH",
"914 1444 OFFCURVE",
"1170 1548 OFFCURVE",
"1418 1548 CURVE SMOOTH",
"1636 1548 OFFCURVE",
"1732 1480 OFFCURVE",
"1768 1446 CURVE",
"1822 1492 LINE",
"1798 1520 OFFCURVE",
"1684 1614 OFFCURVE",
"1412 1614 CURVE SMOOTH"
);
}
);
width = 2100;
},
{
layerId = "C5C974ED-4386-41E8-AA57-C40E24C26BBD";
paths = (
{
closed = 1;
nodes = (
"84 756 LINE",
"800 756 LINE",
"800 1000 LINE",
"84 1000 LINE"
);
},
{
closed = 1;
nodes = (
"398 1614 OFFCURVE",
"230 1484 OFFCURVE",
"230 1252 CURVE SMOOTH",
"230 0 LINE",
"554 0 LINE",
"554 1190 LINE SMOOTH",
"554 1318 OFFCURVE",
"580 1358 OFFCURVE",
"636 1358 CURVE SMOOTH",
"682 1358 OFFCURVE",
"706 1312 OFFCURVE",
"720 1268 CURVE",
"922 1448 LINE",
"898 1502 OFFCURVE",
"798 1614 OFFCURVE",
"616 1614 CURVE SMOOTH"
);
}
);
width = 900;
},
{
layerId = "DF71BB49-08D0-48AB-8F46-D55A70C0C2BD";
paths = (
{
closed = 1;
nodes = (
"183 692 LINE",
"1673 692 LINE",
"1673 1000 LINE",
"183 1000 LINE"
);
},
{
closed = 1;
nodes = (
"969 1614 OFFCURVE",
"640 1449 OFFCURVE",
"640 1098 CURVE SMOOTH",
"640 0 LINE",
"1061 0 LINE",
"1061 1078 LINE SMOOTH",
"1061 1282 OFFCURVE",
"1239 1321 OFFCURVE",
"1374 1321 CURVE SMOOTH",
"1508 1321 OFFCURVE",
"1607 1255 OFFCURVE",
"1649 1202 CURVE",
"1909 1428 LINE",
"1820 1509 OFFCURVE",
"1694 1614 OFFCURVE",
"1353 1614 CURVE SMOOTH"
);
}
);
width = 2100;
}
);
leftKerningGroup = f;
rightKerningGroup = f;
unicode = 0066;
},
{
color = 4;
glyphname = g;
lastChange = "2022-02-14 19:07:15 +0000";
layers = (
{
anchors = (
{
name = bottom;
position = "{450, 0}";
},
{
name = top;
position = "{450, 1000}";
}
);
layerId = "2E286313-D5BF-4FB4-A4B7-BD9BC13B574E";
paths = (
{
closed = 1;
nodes = (
"614 298 OFFCURVE",
"756 416 OFFCURVE",
"756 662 CURVE SMOOTH",
"756 906 OFFCURVE",
"620 1024 OFFCURVE",
"452 1024 CURVE SMOOTH",
"282 1024 OFFCURVE",
"146 906 OFFCURVE",
"146 662 CURVE SMOOTH",
"146 416 OFFCURVE",
"290 298 OFFCURVE",
"452 298 CURVE SMOOTH"
);
},
{
closed = 1;
nodes = (
"312 364 OFFCURVE",
"216 474 OFFCURVE",
"216 662 CURVE SMOOTH",
"216 848 OFFCURVE",
"298 960 OFFCURVE",
"452 960 CURVE SMOOTH",
"604 960 OFFCURVE",
"686 848 OFFCURVE",
"686 662 CURVE SMOOTH",
"686 474 OFFCURVE",
"590 364 OFFCURVE",
"452 364 CURVE SMOOTH"
);
},
{
closed = 1;
nodes = (
"814 1020 LINE",
"766 1066 LINE",
"628 918 LINE",
"676 870 LINE"
);
},
{
closed = 1;
nodes = (
"350 64 LINE SMOOTH",
"286 64 OFFCURVE",
"202 96 OFFCURVE",
"202 196 CURVE SMOOTH",
"202 280 OFFCURVE",
"284 332 OFFCURVE",
"332 354 CURVE",
"286 396 LINE",
"240 373 OFFCURVE",
"132 306 OFFCURVE",
"132 192 CURVE SMOOTH",
"132 72 OFFCURVE",
"246 -2 OFFCURVE",
"304 -2 CURVE SMOOTH",
"554 -2 LINE SMOOTH",
"696 -2 OFFCURVE",
"738 -60 OFFCURVE",
"738 -166 CURVE SMOOTH",
"738 -294 OFFCURVE",
"612 -340 OFFCURVE",
"450 -340 CURVE SMOOTH",
"280 -340 OFFCURVE",
"180 -270 OFFCURVE",
"180 -166 CURVE SMOOTH",
"180 -30 OFFCURVE",
"304 0 OFFCURVE",
"392 18 CURVE",
"332 50 LINE",
"264 38 OFFCURVE",
"112 -8 OFFCURVE",
"112 -166 CURVE SMOOTH",
"112 -312 OFFCURVE",
"238 -402 OFFCURVE",
"450 -402 CURVE SMOOTH",
"658 -402 OFFCURVE",
"806 -314 OFFCURVE",
"806 -162 CURVE SMOOTH",
"806 -18 OFFCURVE",
"716 64 OFFCURVE",
"558 64 CURVE SMOOTH"
);
}
);
width = 900;
},
{
anchors = (
{
name = bottom;
position = "{1050, 0}";
},
{
name = top;
position = "{1050, 1000}";
}
);
layerId = "E338D14E-1DA5-418D-88BC-8956EEA80AB9";
paths = (
{
closed = 1;
nodes = (
"1408 298 OFFCURVE",
"1718 396 OFFCURVE",
"1718 662 CURVE SMOOTH",
"1718 926 OFFCURVE",
"1424 1024 OFFCURVE",
"1054 1024 CURVE SMOOTH",
"680 1024 OFFCURVE",
"386 926 OFFCURVE",
"386 662 CURVE SMOOTH",
"386 396 OFFCURVE",
"700 298 OFFCURVE",
"1054 298 CURVE SMOOTH"
);
},
{
closed = 1;
nodes = (
"728 364 OFFCURVE",
"464 454 OFFCURVE",
"464 662 CURVE SMOOTH",
"464 868 OFFCURVE",
"694 960 OFFCURVE",
"1054 960 CURVE SMOOTH",
"1410 960 OFFCURVE",
"1640 868 OFFCURVE",
"1640 662 CURVE SMOOTH",
"1640 454 OFFCURVE",
"1376 364 OFFCURVE",
"1054 364 CURVE SMOOTH"
);
},
{
closed = 1;
nodes = (
"1789 1072 LINE",
"1742 1122 LINE",
"1504 916 LINE",
"1552 878 LINE"
);
},
{
closed = 1;
nodes = (
"704 64 LINE SMOOTH",
"582 64 OFFCURVE",
"486 100 OFFCURVE",
"486 194 CURVE SMOOTH",
"486 302 OFFCURVE",
"654 350 OFFCURVE",
"758 380 CURVE",
"670 406 LINE",
"572 378 OFFCURVE",
"414 318 OFFCURVE",
"414 192 CURVE SMOOTH",
"414 80 OFFCURVE",
"512 -2 OFFCURVE",
"706 -2 CURVE SMOOTH",
"1318 -2 LINE SMOOTH",
"1626 -2 OFFCURVE",
"1682 -64 OFFCURVE",
"1682 -148 CURVE SMOOTH",
"1682 -258 OFFCURVE",
"1516 -358 OFFCURVE",
"1044 -358 CURVE SMOOTH",
"557 -358 OFFCURVE",
"424 -274 OFFCURVE",
"424 -170 CURVE SMOOTH",
"424 -54 OFFCURVE",
"550 5 OFFCURVE",
"636 28 CURVE",
"553 55 LINE",
"493 43 OFFCURVE",
"352 -30 OFFCURVE",
"352 -166 CURVE SMOOTH",
"352 -302 OFFCURVE",
"471 -422 OFFCURVE",
"1044 -422 CURVE SMOOTH",
"1622 -422 OFFCURVE",
"1758 -280 OFFCURVE",
"1758 -146 CURVE SMOOTH",
"1758 -30 OFFCURVE",
"1656 64 OFFCURVE",
"1336 64 CURVE SMOOTH"
);
}
);
width = 2100;
},
{
anchors = (
{
name = bottom;
position = "{428, 0}";
},
{
name = top;
position = "{428, 1000}";
}
);
layerId = "C5C974ED-4386-41E8-AA57-C40E24C26BBD";
paths = (
{
closed = 1;
nodes = (
"600 298 OFFCURVE",
"814 404 OFFCURVE",
"814 662 CURVE SMOOTH",
"814 918 OFFCURVE",
"618 1024 OFFCURVE",
"430 1024 CURVE SMOOTH",
"240 1024 OFFCURVE",
"44 918 OFFCURVE",
"44 662 CURVE SMOOTH",
"44 404 OFFCURVE",
"236 298 OFFCURVE",
"430 298 CURVE SMOOTH"
);
},
{
closed = 1;
nodes = (
"386 540 OFFCURVE",
"378 582 OFFCURVE",
"378 662 CURVE SMOOTH",
"378 740 OFFCURVE",
"386 782 OFFCURVE",
"430 782 CURVE SMOOTH",
"472 782 OFFCURVE",
"482 740 OFFCURVE",
"482 662 CURVE SMOOTH",
"482 582 OFFCURVE",
"474 540 OFFCURVE",
"430 540 CURVE SMOOTH"
);
},
{
closed = 1;
nodes = (
"896 1018 LINE",
"710 1188 LINE",
"499 902 LINE",
"622 786 LINE"
);
},
{
closed = 1;
nodes = (
"418 232 LINE SMOOTH",
"354 232 OFFCURVE",
"326 252 OFFCURVE",
"326 282 CURVE SMOOTH",
"326 306 OFFCURVE",
"346 340 OFFCURVE",
"374 362 CURVE",
"220 440 LINE",
"176 417 OFFCURVE",
"62 348 OFFCURVE",
"62 218 CURVE SMOOTH",
"62 80 OFFCURVE",
"218 -2 OFFCURVE",
"302 -2 CURVE SMOOTH",
"484 -2 LINE SMOOTH",
"536 -2 OFFCURVE",
"572 -34 OFFCURVE",
"572 -84 CURVE SMOOTH",
"572 -144 OFFCURVE",
"518 -168 OFFCURVE",
"440 -168 CURVE SMOOTH",
"360 -168 OFFCURVE",
"318 -137 OFFCURVE",
"318 -86 CURVE SMOOTH",
"318 -38 OFFCURVE",
"348 20 OFFCURVE",
"392 34 CURVE",
"244 114 LINE",
"184 89 OFFCURVE",
"30 15 OFFCURVE",
"30 -131 CURVE SMOOTH",
"30 -305 OFFCURVE",
"206 -400 OFFCURVE",
"428 -400 CURVE SMOOTH",
"662 -400 OFFCURVE",
"862 -307 OFFCURVE",
"862 -76 CURVE SMOOTH",
"862 158 OFFCURVE",
"718 232 OFFCURVE",
"538 232 CURVE SMOOTH"
);
}
);
width = 900;
},
{
anchors = (
{
name = bottom;
position = "{1020, 0}";
},
{
name = top;
position = "{1020, 1000}";
}
);
layerId = "DF71BB49-08D0-48AB-8F46-D55A70C0C2BD";
paths = (
{
closed = 1;
nodes = (
"1390 318 OFFCURVE",
"1797 380 OFFCURVE",
"1797 662 CURVE SMOOTH",
"1797 942 OFFCURVE",
"1422 1024 OFFCURVE",
"1024 1024 CURVE SMOOTH",
"623 1024 OFFCURVE",
"248 942 OFFCURVE",
"248 662 CURVE SMOOTH",
"248 380 OFFCURVE",
"627 318 OFFCURVE",
"1024 318 CURVE SMOOTH"
);
},
{
closed = 1;
nodes = (
"845 613 OFFCURVE",
"684 625 OFFCURVE",
"684 667 CURVE SMOOTH",
"684 716 OFFCURVE",
"830 728 OFFCURVE",
"1024 728 CURVE SMOOTH",
"1215 728 OFFCURVE",
"1363 716 OFFCURVE",
"1363 667 CURVE SMOOTH",
"1363 625 OFFCURVE",
"1202 613 OFFCURVE",
"1024 613 CURVE SMOOTH"
);
},
{
closed = 1;
nodes = (
"1948 1039 LINE",
"1715 1259 LINE",
"1409 916 LINE",
"1549 760 LINE"
);
},
{
closed = 1;
nodes = (
"785 262 LINE SMOOTH",
"668 262 OFFCURVE",
"653 278 OFFCURVE",
"653 308 CURVE SMOOTH",
"653 337 OFFCURVE",
"722 402 OFFCURVE",
"774 434 CURVE",
"571 495 LINE",
"489 458 OFFCURVE",
"307 375 OFFCURVE",
"307 247 CURVE SMOOTH",
"307 117 OFFCURVE",
"461 -2 OFFCURVE",
"668 -2 CURVE SMOOTH",
"1262 -2 LINE SMOOTH",
"1407 -2 OFFCURVE",
"1484 -10 OFFCURVE",
"1484 -44 CURVE SMOOTH",
"1484 -72 OFFCURVE",
"1387 -110 OFFCURVE",
"1021 -110 CURVE SMOOTH",
"677 -110 OFFCURVE",
"552 -93 OFFCURVE",
"552 -41 CURVE SMOOTH",
"552 -14 OFFCURVE",
"605 44 OFFCURVE",
"664 48 CURVE",
"483 116 LINE",
"414 108 OFFCURVE",
"201 24 OFFCURVE",
"201 -119 CURVE SMOOTH",
"201 -302 OFFCURVE",
"436 -404 OFFCURVE",
"1018 -404 CURVE SMOOTH",
"1630 -404 OFFCURVE",
"1875 -241 OFFCURVE",
"1875 -27 CURVE SMOOTH",
"1875 181 OFFCURVE",
"1644 262 OFFCURVE",
"1363 262 CURVE SMOOTH"
);
}
);
width = 2100;
}
);
unicode = 0067;
},
{
glyphname = g.ss01;
lastChange = "2022-02-14 18:24:09 +0000";
layers = (
{
layerId = "2E286313-D5BF-4FB4-A4B7-BD9BC13B574E";
paths = (
{
closed = 1;
nodes = (
"626 -22 OFFCURVE",
"720 148 OFFCURVE",
"720 372 CURVE",
"668 340 LINE",
"652 174 OFFCURVE",
"576 44 OFFCURVE",
"438 44 CURVE SMOOTH",
"310 44 OFFCURVE",
"204 178 OFFCURVE",
"204 502 CURVE SMOOTH",
"204 832 OFFCURVE",
"296 956 OFFCURVE",
"426 956 CURVE SMOOTH",
"564 956 OFFCURVE",
"650 790 OFFCURVE",
"668 644 CURVE",
"720 604 LINE",
"720 828 OFFCURVE",
"602 1022 OFFCURVE",
"414 1022 CURVE SMOOTH",
"270 1022 OFFCURVE",
"136 868 OFFCURVE",
"136 502 CURVE SMOOTH",
"136 136 OFFCURVE",
"286 -22 OFFCURVE",
"430 -22 CURVE SMOOTH"
);
},
{
closed = 1;
nodes = (
"666 -404 OFFCURVE",
"734 -220 OFFCURVE",
"734 16 CURVE SMOOTH",
"734 234 LINE",
"664 170 LINE",
"664 56 LINE SMOOTH",
"664 -176 OFFCURVE",
"648 -338 OFFCURVE",
"434 -338 CURVE SMOOTH",
"292 -338 OFFCURVE",
"237 -242 OFFCURVE",
"214 -196 CURVE",
"166 -239 LINE",
"189 -287 OFFCURVE",
"276 -404 OFFCURVE",
"430 -404 CURVE SMOOTH"
);
},
{
closed = 1;
nodes = (
"734 78 LINE",
"734 1000 LINE",
"664 1000 LINE",
"664 142 LINE",
"664 78 LINE"
);
}
);
width = 900;
},
{
layerId = "E338D14E-1DA5-418D-88BC-8956EEA80AB9";
paths = (
{
closed = 1;
nodes = (
"1440 -22 OFFCURVE",
"1634 208 OFFCURVE",
"1634 432 CURVE",
"1572 400 LINE",
"1534 234 OFFCURVE",
"1364 44 OFFCURVE",
"1042 44 CURVE SMOOTH",
"732 44 OFFCURVE",
"440 178 OFFCURVE",
"440 502 CURVE SMOOTH",
"440 832 OFFCURVE",
"700 956 OFFCURVE",
"1012 956 CURVE SMOOTH",
"1334 956 OFFCURVE",
"1528 750 OFFCURVE",
"1572 604 CURVE",
"1634 564 LINE",
"1634 788 OFFCURVE",
"1404 1022 OFFCURVE",
"986 1022 CURVE SMOOTH",
"650 1022 OFFCURVE",
"362 868 OFFCURVE",
"362 502 CURVE SMOOTH",
"362 136 OFFCURVE",
"686 -22 OFFCURVE",
"1022 -22 CURVE SMOOTH"
);
},
{
closed = 1;
nodes = (
"1338 -384 OFFCURVE",
"1638 -252 OFFCURVE",
"1638 54 CURVE SMOOTH",
"1638 108 LINE",
"1566 108 LINE",
"1566 80 LINE SMOOTH",
"1566 -212 OFFCURVE",
"1302 -318 OFFCURVE",
"1006 -318 CURVE SMOOTH",
"684 -318 OFFCURVE",
"510 -233 OFFCURVE",
"456 -182 CURVE",
"400 -224 LINE",
"440 -268 OFFCURVE",
"664 -384 OFFCURVE",
"1006 -384 CURVE SMOOTH"
);
},
{
closed = 1;
nodes = (
"1638 88 LINE",
"1638 1000 LINE",
"1566 1000 LINE",
"1566 122 LINE",
"1566 88 LINE"
);
}
);
width = 2100;
},
{
layerId = "C5C974ED-4386-41E8-AA57-C40E24C26BBD";
paths = (
{
closed = 1;
nodes = (
"456 -22 OFFCURVE",
"550 170 OFFCURVE",
"550 394 CURVE",
"466 454 LINE",
"466 308 OFFCURVE",
"464 214 OFFCURVE",
"400 214 CURVE SMOOTH",
"324 214 OFFCURVE",
"322 324 OFFCURVE",
"322 502 CURVE SMOOTH",
"322 680 OFFCURVE",
"340 786 OFFCURVE",
"396 786 CURVE SMOOTH",
"460 786 OFFCURVE",
"466 690 OFFCURVE",
"466 552 CURVE",
"550 612 LINE",
"550 790 OFFCURVE",
"462 1022 OFFCURVE",
"322 1022 CURVE SMOOTH",
"110 1022 OFFCURVE",
"18 848 OFFCURVE",
"18 502 CURVE SMOOTH",
"18 156 OFFCURVE",
"104 -22 OFFCURVE",
"316 -22 CURVE SMOOTH"
);
},
{
closed = 1;
nodes = (
"579 -396 OFFCURVE",
"768 -271 OFFCURVE",
"768 5 CURVE SMOOTH",
"768 264 LINE",
"462 206 LINE",
"462 24 LINE SMOOTH",
"462 -74 OFFCURVE",
"416 -148 OFFCURVE",
"316 -148 CURVE SMOOTH",
"240 -148 OFFCURVE",
"196 -120 OFFCURVE",
"174 -82 CURVE",
"-4 -272 LINE",
"34 -312 OFFCURVE",
"169 -396 OFFCURVE",
"320 -396 CURVE SMOOTH"
);
},
{
closed = 1;
nodes = (
"768 48 LINE",
"768 1000 LINE",
"462 1000 LINE",
"462 142 LINE",
"462 34 LINE"
);
}
);
width = 900;
},
{
layerId = "DF71BB49-08D0-48AB-8F46-D55A70C0C2BD";
paths = (
{
closed = 1;
nodes = (
"1391 -22 OFFCURVE",
"1595 238 OFFCURVE",
"1595 462 CURVE",
"1435 460 LINE",
"1397 334 OFFCURVE",
"1315 275 OFFCURVE",
"1094 275 CURVE SMOOTH",
"871 275 OFFCURVE",
"765 357 OFFCURVE",
"765 502 CURVE SMOOTH",
"765 646 OFFCURVE",
"894 725 OFFCURVE",
"1089 725 CURVE SMOOTH",
"1309 725 OFFCURVE",
"1391 659 OFFCURVE",
"1435 526 CURVE",
"1595 595 LINE",
"1595 756 OFFCURVE",
"1396 1022 OFFCURVE",
"1002 1022 CURVE SMOOTH",
"574 1022 OFFCURVE",
"312 841 OFFCURVE",
"312 502 CURVE SMOOTH",
"312 163 OFFCURVE",
"581 -22 OFFCURVE",
"1008 -22 CURVE SMOOTH"
);
},
{
closed = 1;
nodes = (
"1389 -403 OFFCURVE",
"1818 -301 OFFCURVE",
"1818 79 CURVE SMOOTH",
"1818 169 LINE",
"1426 177 LINE",
"1426 57 LINE SMOOTH",
"1426 -74 OFFCURVE",
"1206 -116 OFFCURVE",
"1020 -116 CURVE SMOOTH",
"786 -116 OFFCURVE",
"620 -62 OFFCURVE",
"576 -41 CURVE",
"313 -298 LINE",
"369 -333 OFFCURVE",
"691 -403 OFFCURVE",
"990 -403 CURVE SMOOTH"
);
},
{
closed = 1;
nodes = (
"1818 67 LINE",
"1818 1000 LINE",
"1426 1000 LINE",
"1426 142 LINE",
"1426 48 LINE"
);
}
);
width = 2100;
}
);
leftKerningGroup = g;
rightKerningGroup = g;
},
{
color = 4;
glyphname = h;
lastChange = "2022-02-14 18:30:27 +0000";
layers = (
{
anchors = (
{
name = bottom;
position = "{490, 0}";
},
{
name = center;
position = "{234, 1298}";
},
{
name = top;
position = "{490, 1539}";
}
);
layerId = "2E286313-D5BF-4FB4-A4B7-BD9BC13B574E";
paths = (
{
closed = 1;
nodes = (
"766 0 LINE",
"766 624 LINE SMOOTH",
"766 910 OFFCURVE",
"682 1024 OFFCURVE",
"526 1024 CURVE SMOOTH",
"340 1024 OFFCURVE",
"220 806 OFFCURVE",
"218 604 CURVE",
"279 604 LINE",
"285 796 OFFCURVE",
"394 958 OFFCURVE",
"520 958 CURVE SMOOTH",
"656 958 OFFCURVE",
"696 838 OFFCURVE",
"696 604 CURVE SMOOTH",
"696 0 LINE"
);
},
{
closed = 1;
nodes = (
"282 0 LINE",
"282 1600 LINE",
"212 1600 LINE",
"212 0 LINE"
);
}
);
width = 900;
},
{
anchors = (
{
name = bottom;
position = "{1070, 0}";
},
{
name = center;
position = "{472, 1298}";
},
{
name = top;
position = "{1124, 1539}";
}
);
layerId = "E338D14E-1DA5-418D-88BC-8956EEA80AB9";
paths = (
{
closed = 1;
nodes = (
"1694 0 LINE",
"1694 554 LINE SMOOTH",
"1694 890 OFFCURVE",
"1492 1024 OFFCURVE",
"1140 1024 CURVE SMOOTH",
"734 1024 OFFCURVE",
"456 746 OFFCURVE",
"452 464 CURVE",
"514 464 LINE",
"528 736 OFFCURVE",
"840 958 OFFCURVE",
"1126 958 CURVE SMOOTH",
"1448 958 OFFCURVE",
"1623 850 OFFCURVE",
"1623 540 CURVE SMOOTH",
"1623 0 LINE"
);
},
{
closed = 1;
nodes = (
"518 0 LINE",
"518 1600 LINE",
"447 1600 LINE",
"447 0 LINE"
);
}
);
width = 2100;
},
{
anchors = (
{
name = bottom;
position = "{469, 0}";
},
{
name = center;
position = "{235, 1298}";
},
{
name = top;
position = "{490, 1539}";
}
);
layerId = "C5C974ED-4386-41E8-AA57-C40E24C26BBD";
paths = (
{
closed = 1;
nodes = (
"837 0 LINE",
"837 650 LINE SMOOTH",
"837 918 OFFCURVE",
"730 1022 OFFCURVE",
"584 1022 CURVE SMOOTH",
"432 1022 OFFCURVE",
"265 857 OFFCURVE",
"265 632 CURVE",
"381 592 LINE",
"381 688 OFFCURVE",
"392 766 OFFCURVE",
"443 766 CURVE SMOOTH",
"485 766 OFFCURVE",
"501 699 OFFCURVE",
"501 601 CURVE SMOOTH",
"501 0 LINE"
);
},
{
closed = 1;
nodes = (
"381 0 LINE",
"381 1600 LINE",
"47 1600 LINE",
"47 0 LINE"
);
}
);
width = 900;
},
{
anchors = (
{
name = bottom;
position = "{1041, 0}";
},
{
name = center;
position = "{473, 1298}";
},
{
name = top;
position = "{1124, 1539}";
}
);
layerId = "DF71BB49-08D0-48AB-8F46-D55A70C0C2BD";
paths = (
{
closed = 1;
nodes = (
"1790 0 LINE",
"1790 519 LINE SMOOTH",
"1790 863 OFFCURVE",
"1566 1021 OFFCURVE",
"1179 1021 CURVE SMOOTH",
"778 1021 OFFCURVE",
"445 746 OFFCURVE",
"444 436 CURVE",
"652 395 LINE",
"664 543 OFFCURVE",
"841 697 OFFCURVE",
"1041 697 CURVE SMOOTH",
"1221 697 OFFCURVE",
"1356 638 OFFCURVE",
"1356 467 CURVE SMOOTH",
"1356 0 LINE"
);
},
{
closed = 1;
nodes = (
"652 0 LINE",
"652 1600 LINE",
"228 1600 LINE",
"228 0 LINE"
);
}
);
width = 2100;
}
);
leftKerningGroup = h;
rightKerningGroup = n;
unicode = 0068;
},
{
color = 4;
glyphname = i;
lastChange = "2022-02-14 18:30:27 +0000";
layers = (
{
anchors = (
{
name = bottom;
position = "{450, 0}";
}
);
layerId = "2E286313-D5BF-4FB4-A4B7-BD9BC13B574E";
paths = (
{
closed = 1;
nodes = (
"494 1306 OFFCURVE",
"534 1346 OFFCURVE",
"534 1396 CURVE SMOOTH",
"534 1446 OFFCURVE",
"494 1486 OFFCURVE",
"444 1486 CURVE SMOOTH",
"394 1486 OFFCURVE",
"354 1446 OFFCURVE",
"354 1396 CURVE SMOOTH",
"354 1346 OFFCURVE",
"394 1306 OFFCURVE",
"444 1306 CURVE SMOOTH"
);
},
{
closed = 1;
nodes = (
"478 1000 LINE",
"154 1000 LINE",
"154 936 LINE",
"408 936 LINE",
"408 0 LINE",
"726 0 LINE",
"726 64 LINE",
"478 64 LINE"
);
}
);
width = 900;
},
{
anchors = (
{
name = bottom;
position = "{1050, 0}";
}
);
layerId = "E338D14E-1DA5-418D-88BC-8956EEA80AB9";
paths = (
{
closed = 1;
nodes = (
"1086 1306 OFFCURVE",
"1126 1346 OFFCURVE",
"1126 1396 CURVE SMOOTH",
"1126 1446 OFFCURVE",
"1086 1486 OFFCURVE",
"1036 1486 CURVE SMOOTH",
"986 1486 OFFCURVE",
"946 1446 OFFCURVE",
"946 1396 CURVE SMOOTH",
"946 1346 OFFCURVE",
"986 1306 OFFCURVE",
"1036 1306 CURVE SMOOTH"
);
},
{
closed = 1;
nodes = (
"1070 1000 LINE",
"382 1000 LINE",
"382 936 LINE",
"1000 936 LINE",
"1000 0 LINE",
"1704 0 LINE",
"1704 64 LINE",
"1070 64 LINE"
);
}
);
width = 2100;
},
{
anchors = (
{
name = bottom;
position = "{408, 0}";
}
);
layerId = "C5C974ED-4386-41E8-AA57-C40E24C26BBD";
paths = (
{
closed = 1;
nodes = (
"566 1174 OFFCURVE",
"664 1272 OFFCURVE",
"664 1396 CURVE SMOOTH",
"664 1520 OFFCURVE",
"566 1618 OFFCURVE",
"442 1618 CURVE SMOOTH",
"318 1618 OFFCURVE",
"220 1520 OFFCURVE",
"220 1396 CURVE SMOOTH",
"220 1272 OFFCURVE",
"318 1174 OFFCURVE",
"442 1174 CURVE SMOOTH"
);
},
{
closed = 1;
nodes = (
"611 1000 LINE",
"75 1000 LINE",
"75 756 LINE",
"273 756 LINE",
"273 0 LINE",
"812 0 LINE",
"812 244 LINE",
"611 244 LINE"
);
}
);
width = 900;
},
{
anchors = (
{
name = bottom;
position = "{993, 0}";
}
);
layerId = "DF71BB49-08D0-48AB-8F46-D55A70C0C2BD";
paths = (
{
closed = 1;
nodes = (
"1167 1176 OFFCURVE",
"1264 1273 OFFCURVE",
"1264 1396 CURVE SMOOTH",
"1264 1519 OFFCURVE",
"1167 1616 OFFCURVE",
"1044 1616 CURVE SMOOTH",
"921 1616 OFFCURVE",
"824 1519 OFFCURVE",
"824 1396 CURVE SMOOTH",
"824 1273 OFFCURVE",
"921 1176 OFFCURVE",
"1044 1176 CURVE SMOOTH"
);
},
{
closed = 1;
nodes = (
"1251 1000 LINE",
"275 1000 LINE",
"275 692 LINE",
"817 692 LINE",
"817 0 LINE",
"1821 0 LINE",
"1821 308 LINE",
"1251 308 LINE"
);
}
);
width = 2100;
}
);
leftKerningGroup = i;
rightKerningGroup = i;
unicode = 0069;
},
{
glyphname = i.ss01;
lastChange = "2022-02-14 18:25:26 +0000";
layers = (
{
anchors = (
{
name = bottom;
position = "{450, 0}";
}
);
layerId = "2E286313-D5BF-4FB4-A4B7-BD9BC13B574E";
paths = (
{
closed = 1;
nodes = (
"484 1306 OFFCURVE",
"524 1346 OFFCURVE",
"524 1396 CURVE SMOOTH",
"524 1446 OFFCURVE",
"484 1486 OFFCURVE",
"434 1486 CURVE SMOOTH",
"384 1486 OFFCURVE",
"344 1446 OFFCURVE",
"344 1396 CURVE SMOOTH",
"344 1346 OFFCURVE",
"384 1306 OFFCURVE",
"434 1306 CURVE SMOOTH"
);
},
{
closed = 1;
nodes = (
"520 40 OFFCURVE",
"464 60 OFFCURVE",
"464 246 CURVE SMOOTH",
"464 1000 LINE",
"166 1000 LINE",
"166 936 LINE",
"394 936 LINE",
"394 234 LINE SMOOTH",
"394 28 OFFCURVE",
"460 -22 OFFCURVE",
"562 -22 CURVE SMOOTH",
"644 -22 OFFCURVE",
"715 -4 OFFCURVE",
"726 0 CURVE",
"726 64 LINE",
"715 60 OFFCURVE",
"642 40 OFFCURVE",
"576 40 CURVE SMOOTH"
);
}
);
width = 900;
},
{
anchors = (
{
name = bottom;
position = "{1050, 0}";
}
);
layerId = "E338D14E-1DA5-418D-88BC-8956EEA80AB9";
paths = (
{
closed = 1;
nodes = (
"1052 1306 OFFCURVE",
"1092 1346 OFFCURVE",
"1092 1396 CURVE SMOOTH",
"1092 1446 OFFCURVE",
"1052 1486 OFFCURVE",
"1002 1486 CURVE SMOOTH",
"952 1486 OFFCURVE",
"912 1446 OFFCURVE",
"912 1396 CURVE SMOOTH",
"912 1346 OFFCURVE",
"952 1306 OFFCURVE",
"1002 1306 CURVE SMOOTH"
);
},
{
closed = 1;
nodes = (
"1150 40 OFFCURVE",
"1038 60 OFFCURVE",
"1038 246 CURVE SMOOTH",
"1038 1000 LINE",
"388 1000 LINE",
"388 936 LINE",
"962 936 LINE",
"962 234 LINE SMOOTH",
"962 28 OFFCURVE",
"1096 -22 OFFCURVE",
"1312 -22 CURVE SMOOTH",
"1502 -22 OFFCURVE",
"1664 18 OFFCURVE",
"1694 30 CURVE",
"1694 94 LINE",
"1666 82 OFFCURVE",
"1498 40 OFFCURVE",
"1344 40 CURVE SMOOTH"
);
}
);
width = 2100;
},
{
anchors = (
{
name = bottom;
position = "{408, 0}";
}
);
layerId = "C5C974ED-4386-41E8-AA57-C40E24C26BBD";
paths = (
{
closed = 1;
nodes = (
"532 1210 OFFCURVE",
"614 1292 OFFCURVE",
"614 1396 CURVE SMOOTH",
"614 1500 OFFCURVE",
"532 1582 OFFCURVE",
"428 1582 CURVE SMOOTH",
"324 1582 OFFCURVE",
"242 1500 OFFCURVE",
"242 1396 CURVE SMOOTH",
"242 1292 OFFCURVE",
"324 1210 OFFCURVE",
"428 1210 CURVE SMOOTH"
);
},
{
closed = 1;
nodes = (
"604 212 OFFCURVE",
"582 257 OFFCURVE",
"582 344 CURVE SMOOTH",
"582 1000 LINE",
"132 1000 LINE",
"132 756 LINE",
"276 756 LINE",
"276 244 LINE SMOOTH",
"276 18 OFFCURVE",
"422 -22 OFFCURVE",
"570 -22 CURVE SMOOTH",
"670 -22 OFFCURVE",
"738 0 OFFCURVE",
"758 10 CURVE",
"758 246 LINE",
"738 233 OFFCURVE",
"694 212 OFFCURVE",
"644 212 CURVE SMOOTH"
);
}
);
width = 900;
},
{
anchors = (
{
name = bottom;
position = "{993, 0}";
}
);
layerId = "DF71BB49-08D0-48AB-8F46-D55A70C0C2BD";
paths = (
{
closed = 1;
nodes = (
"1117 1176 OFFCURVE",
"1214 1273 OFFCURVE",
"1214 1396 CURVE SMOOTH",
"1214 1519 OFFCURVE",
"1117 1616 OFFCURVE",
"994 1616 CURVE SMOOTH",
"871 1616 OFFCURVE",
"774 1519 OFFCURVE",
"774 1396 CURVE SMOOTH",
"774 1273 OFFCURVE",
"871 1176 OFFCURVE",
"994 1176 CURVE SMOOTH"
);
},
{
closed = 1;
nodes = (
"1266 273 OFFCURVE",
"1198 309 OFFCURVE",
"1198 403 CURVE SMOOTH",
"1198 1000 LINE",
"342 1000 LINE",
"342 692 LINE",
"802 692 LINE",
"802 248 LINE SMOOTH",
"802 29 OFFCURVE",
"1010 -22 OFFCURVE",
"1323 -22 CURVE SMOOTH",
"1533 -22 OFFCURVE",
"1692 24 OFFCURVE",
"1738 40 CURVE",
"1738 341 LINE",
"1702 325 OFFCURVE",
"1527 273 OFFCURVE",
"1396 273 CURVE SMOOTH"
);
}
);
width = 2100;
}
);
},
{
glyphname = idotless;
lastChange = "2020-04-30 15:52:17 +0000";
layers = (
{
anchors = (
{
name = bottom;
position = "{600, 0}";
},
{
name = ogonek;
position = "{476, 0}";
},
{
name = top;
position = "{444, 1000}";
}
);
layerId = "2E286313-D5BF-4FB4-A4B7-BD9BC13B574E";
paths = (
{
closed = 1;
nodes = (
"478 1000 LINE",
"134 1000 LINE",
"134 936 LINE",
"408 936 LINE",
"408 0 LINE",
"726 0 LINE",
"726 64 LINE",
"478 64 LINE"
);
}
);
width = 900;
},
{
anchors = (
{
name = bottom;
position = "{600, 0}";
},
{
name = ogonek;
position = "{1052, 0}";
},
{
name = top;
position = "{1020, 1000}";
}
);
layerId = "E338D14E-1DA5-418D-88BC-8956EEA80AB9";
paths = (
{
closed = 1;
nodes = (
"1072 1000 LINE",
"318 1000 LINE",
"318 936 LINE",
"996 936 LINE",
"996 0 LINE",
"1704 0 LINE",
"1704 64 LINE",
"1072 64 LINE"
);
}
);
width = 2100;
},
{
anchors = (
{
name = bottom;
position = "{600, 0}";
},
{
name = ogonek;
position = "{422, 0}";
},
{
name = top;
position = "{418, 1000}";
}
);
layerId = "C5C974ED-4386-41E8-AA57-C40E24C26BBD";
paths = (
{
closed = 1;
nodes = (
"594 1000 LINE",
"152 1000 LINE",
"152 756 LINE",
"290 756 LINE",
"290 0 LINE",
"718 0 LINE",
"718 244 LINE",
"594 244 LINE"
);
}
);
width = 900;
},
{
anchors = (
{
name = bottom;
position = "{600, 0}";
},
{
name = ogonek;
position = "{978, 0}";
},
{
name = top;
position = "{984, 1000}";
}
);
layerId = "DF71BB49-08D0-48AB-8F46-D55A70C0C2BD";
paths = (
{
closed = 1;
nodes = (
"1229 1000 LINE",
"342 1000 LINE",
"342 692 LINE",
"835 692 LINE",
"835 0 LINE",
"1693 0 LINE",
"1693 308 LINE",
"1229 308 LINE"
);
}
);
width = 2100;
}
);
unicode = 0131;
},
{
color = 4;
glyphname = j;
lastChange = "2022-02-14 18:30:27 +0000";
layers = (
{
layerId = "2E286313-D5BF-4FB4-A4B7-BD9BC13B574E";
paths = (
{
closed = 1;
nodes = (
"672 1306 OFFCURVE",
"712 1346 OFFCURVE",
"712 1396 CURVE SMOOTH",
"712 1446 OFFCURVE",
"672 1486 OFFCURVE",
"622 1486 CURVE SMOOTH",
"572 1486 OFFCURVE",
"532 1446 OFFCURVE",
"532 1396 CURVE SMOOTH",
"532 1346 OFFCURVE",
"572 1306 OFFCURVE",
"622 1306 CURVE SMOOTH"
);
},
{
closed = 1;
nodes = (
"288 1000 LINE",
"288 936 LINE",
"592 936 LINE",
"592 -14 LINE SMOOTH",
"592 -186 OFFCURVE",
"531 -318 OFFCURVE",
"394 -318 CURVE SMOOTH",
"298 -318 OFFCURVE",
"240 -256 OFFCURVE",
"212 -212 CURVE",
"168 -272 LINE",
"200 -316 OFFCURVE",
"270 -384 OFFCURVE",
"394 -384 CURVE SMOOTH",
"542 -384 OFFCURVE",
"662 -254 OFFCURVE",
"662 -24 CURVE SMOOTH",
"662 1000 LINE"
);
}
);
width = 900;
},
{
layerId = "E338D14E-1DA5-418D-88BC-8956EEA80AB9";
paths = (
{
closed = 1;
nodes = (
"1532 1306 OFFCURVE",
"1572 1346 OFFCURVE",
"1572 1396 CURVE SMOOTH",
"1572 1446 OFFCURVE",
"1532 1486 OFFCURVE",
"1482 1486 CURVE SMOOTH",
"1432 1486 OFFCURVE",
"1392 1448 OFFCURVE",
"1392 1396 CURVE SMOOTH",
"1392 1346 OFFCURVE",
"1432 1306 OFFCURVE",
"1482 1306 CURVE SMOOTH"
);
},
{
closed = 1;
nodes = (
"558 1000 LINE",
"558 936 LINE",
"1460 936 LINE",
"1460 36 LINE SMOOTH",
"1460 -234 OFFCURVE",
"1214 -318 OFFCURVE",
"918 -318 CURVE SMOOTH",
"664 -318 OFFCURVE",
"512 -212 OFFCURVE",
"458 -152 CURVE",
"412 -214 LINE",
"470 -272 OFFCURVE",
"644 -384 OFFCURVE",
"918 -384 CURVE SMOOTH",
"1178 -384 OFFCURVE",
"1528 -298 OFFCURVE",
"1528 16 CURVE SMOOTH",
"1528 1000 LINE"
);
}
);
width = 2100;
},
{
layerId = "C5C974ED-4386-41E8-AA57-C40E24C26BBD";
paths = (
{
closed = 1;
nodes = (
"680 1174 OFFCURVE",
"778 1272 OFFCURVE",
"778 1396 CURVE SMOOTH",
"778 1520 OFFCURVE",
"680 1618 OFFCURVE",
"556 1618 CURVE SMOOTH",
"432 1618 OFFCURVE",
"334 1520 OFFCURVE",
"334 1396 CURVE SMOOTH",
"334 1272 OFFCURVE",
"432 1174 OFFCURVE",
"556 1174 CURVE SMOOTH"
);
},
{
closed = 1;
nodes = (
"169 1000 LINE",
"169 756 LINE",
"395 756 LINE",
"395 -4 LINE SMOOTH",
"395 -88 OFFCURVE",
"371 -128 OFFCURVE",
"331 -128 CURVE SMOOTH",
"297 -128 OFFCURVE",
"261 -79 OFFCURVE",
"235 -30 CURVE",
"33 -228 LINE",
"93 -326 OFFCURVE",
"201 -384 OFFCURVE",
"337 -384 CURVE SMOOTH",
"569 -384 OFFCURVE",
"733 -276 OFFCURVE",
"733 -36 CURVE SMOOTH",
"733 1000 LINE"
);
}
);
width = 900;
},
{
layerId = "DF71BB49-08D0-48AB-8F46-D55A70C0C2BD";
paths = (
{
closed = 1;
nodes = (
"1556 1176 OFFCURVE",
"1653 1273 OFFCURVE",
"1653 1396 CURVE SMOOTH",
"1653 1519 OFFCURVE",
"1556 1616 OFFCURVE",
"1433 1616 CURVE SMOOTH",
"1310 1616 OFFCURVE",
"1213 1519 OFFCURVE",
"1213 1396 CURVE SMOOTH",
"1213 1273 OFFCURVE",
"1310 1176 OFFCURVE",
"1433 1176 CURVE SMOOTH"
);
},
{
closed = 1;
nodes = (
"493 1000 LINE",
"493 692 LINE",
"1213 692 LINE",
"1213 106 LINE SMOOTH",
"1213 -45 OFFCURVE",
"1098 -79 OFFCURVE",
"943 -79 CURVE SMOOTH",
"757 -79 OFFCURVE",
"599 -22 OFFCURVE",
"532 40 CURVE",
"294 -244 LINE",
"374 -302 OFFCURVE",
"639 -403 OFFCURVE",
"925 -403 CURVE SMOOTH",
"1310 -403 OFFCURVE",
"1645 -267 OFFCURVE",
"1645 20 CURVE SMOOTH",
"1645 1000 LINE"
);
}
);
width = 2100;
}
);
leftKerningGroup = j;
rightKerningGroup = j;
unicode = 006A;
},
{
glyphname = jdotless;
lastChange = "2020-04-30 16:06:13 +0000";
layers = (
{
anchors = (
{
name = bottom;
position = "{450, -400}";
},
{
name = top;
position = "{471, 1000}";
}
);
layerId = "C5C974ED-4386-41E8-AA57-C40E24C26BBD";
paths = (
{
closed = 1;
nodes = (
"109 1000 LINE",
"109 756 LINE",
"305 756 LINE",
"305 -4 LINE SMOOTH",
"305 -88 OFFCURVE",
"281 -128 OFFCURVE",
"241 -128 CURVE SMOOTH",
"215 -128 OFFCURVE",
"191 -108 OFFCURVE",
"175 -90 CURVE",
"15 -328 LINE",
"43 -350 OFFCURVE",
"128 -384 OFFCURVE",
"228 -384 CURVE SMOOTH",
"504 -384 OFFCURVE",
"643 -246 OFFCURVE",
"643 -36 CURVE SMOOTH",
"643 1000 LINE"
);
}
);
width = 900;
},
{
anchors = (
{
name = bottom;
position = "{450, -400}";
},
{
name = top;
position = "{562, 1000}";
}
);
layerId = "2E286313-D5BF-4FB4-A4B7-BD9BC13B574E";
paths = (
{
closed = 1;
nodes = (
"228 1000 LINE",
"228 936 LINE",
"532 936 LINE",
"532 -4 LINE SMOOTH",
"532 -176 OFFCURVE",
"466 -318 OFFCURVE",
"324 -318 CURVE SMOOTH",
"248 -318 OFFCURVE",
"210 -296 OFFCURVE",
"192 -282 CURVE",
"148 -344 LINE",
"170 -358 OFFCURVE",
"220 -384 OFFCURVE",
"324 -384 CURVE SMOOTH",
"472 -384 OFFCURVE",
"602 -254 OFFCURVE",
"602 -24 CURVE SMOOTH",
"602 1000 LINE"
);
}
);
width = 900;
},
{
anchors = (
{
name = bottom;
position = "{1050, -400}";
},
{
name = top;
position = "{1308, 1000}";
}
);
layerId = "E338D14E-1DA5-418D-88BC-8956EEA80AB9";
paths = (
{
closed = 1;
nodes = (
"442 1000 LINE",
"442 936 LINE",
"1268 936 LINE",
"1268 56 LINE SMOOTH",
"1268 -214 OFFCURVE",
"1098 -318 OFFCURVE",
"802 -318 CURVE SMOOTH",
"548 -318 OFFCURVE",
"376 -252 OFFCURVE",
"342 -222 CURVE",
"296 -284 LINE",
"334 -312 OFFCURVE",
"528 -384 OFFCURVE",
"802 -384 CURVE SMOOTH",
"1062 -384 OFFCURVE",
"1336 -298 OFFCURVE",
"1336 16 CURVE SMOOTH",
"1336 1000 LINE"
);
}
);
width = 2100;
},
{
anchors = (
{
name = bottom;
position = "{1051, -400}";
},
{
name = top;
position = "{1185, 1000}";
}
);
layerId = "DF71BB49-08D0-48AB-8F46-D55A70C0C2BD";
paths = (
{
closed = 1;
nodes = (
"240 1000 LINE",
"240 692 LINE",
"960 692 LINE",
"960 126 LINE SMOOTH",
"960 -25 OFFCURVE",
"845 -60 OFFCURVE",
"690 -60 CURVE SMOOTH",
"504 -60 OFFCURVE",
"351 3 OFFCURVE",
"319 39 CURVE",
"116 -262 LINE",
"162 -301 OFFCURVE",
"404 -394 OFFCURVE",
"672 -394 CURVE SMOOTH",
"1106 -394 OFFCURVE",
"1392 -287 OFFCURVE",
"1392 0 CURVE SMOOTH",
"1392 1000 LINE"
);
}
);
width = 2100;
}
);
unicode = 0237;
},
{
color = 4;
glyphname = k;
lastChange = "2022-02-14 18:30:27 +0000";
layers = (
{
anchors = (
{
name = bottom;
position = "{450, 0}";
},
{
name = top;
position = "{450, 1000}";
}
);
layerId = "2E286313-D5BF-4FB4-A4B7-BD9BC13B574E";
paths = (
{
closed = 1;
nodes = (
"334 536 LINE",
"384 492 LINE",
"764 1000 LINE",
"688 1000 LINE"
);
},
{
closed = 1;
nodes = (
"786 0 LINE",
"392 540 LINE",
"316 540 LINE",
"708 0 LINE"
);
},
{
closed = 1;
nodes = (
"298 550 LINE",
"298 1600 LINE",
"228 1600 LINE",
"228 0 LINE",
"298 0 LINE",
"298 486 LINE",
"370 486 LINE",
"370 550 LINE"
);
}
);
width = 900;
},
{
anchors = (
{
name = bottom;
position = "{1050, 0}";
},
{
name = top;
position = "{1050, 1000}";
}
);
layerId = "E338D14E-1DA5-418D-88BC-8956EEA80AB9";
paths = (
{
closed = 1;
nodes = (
"1108 536 LINE",
"1162 492 LINE",
"1764 1000 LINE",
"1652 1000 LINE"
);
},
{
closed = 1;
nodes = (
"1816 0 LINE",
"1182 540 LINE",
"1084 520 LINE",
"1704 0 LINE"
);
},
{
closed = 1;
nodes = (
"620 550 LINE",
"620 1600 LINE",
"552 1600 LINE",
"552 0 LINE",
"620 0 LINE",
"620 486 LINE",
"1168 486 LINE",
"1168 550 LINE"
);
}
);
width = 2100;
},
{
anchors = (
{
name = bottom;
position = "{448, 0}";
},
{
name = top;
position = "{448, 1000}";
}
);
layerId = "C5C974ED-4386-41E8-AA57-C40E24C26BBD";
paths = (
{
closed = 1;
nodes = (
"358 558 LINE",
"618 490 LINE",
"884 1000 LINE",
"534 1000 LINE"
);
},
{
closed = 1;
nodes = (
"908 0 LINE",
"614 558 LINE",
"306 564 LINE",
"558 0 LINE"
);
},
{
closed = 1;
nodes = (
"388 630 LINE",
"388 1600 LINE",
"52 1600 LINE",
"52 0 LINE",
"388 0 LINE",
"388 406 LINE",
"456 406 LINE",
"456 630 LINE"
);
}
);
width = 900;
},
{
anchors = (
{
name = bottom;
position = "{1047, 0}";
},
{
name = top;
position = "{1047, 1000}";
}
);
layerId = "DF71BB49-08D0-48AB-8F46-D55A70C0C2BD";
paths = (
{
closed = 1;
nodes = (
"933 566 LINE",
"1330 489 LINE",
"1927 1000 LINE",
"1437 1000 LINE"
);
},
{
closed = 1;
nodes = (
"1981 0 LINE",
"1334 564 LINE",
"863 553 LINE",
"1495 0 LINE"
);
},
{
closed = 1;
nodes = (
"742 659 LINE",
"742 1600 LINE",
"313 1600 LINE",
"313 0 LINE",
"742 0 LINE",
"742 377 LINE",
"1108 377 LINE",
"1108 659 LINE"
);
}
);
width = 2100;
}
);
leftKerningGroup = h;
rightKerningGroup = k;
unicode = 006B;
},
{
glyphname = kgreenlandic;
lastChange = "2020-04-30 16:06:33 +0000";
layers = (
{
anchors = (
{
name = bottom;
position = "{490, 0}";
},
{
name = top;
position = "{457, 1000}";
}
);
layerId = "C5C974ED-4386-41E8-AA57-C40E24C26BBD";
paths = (
{
closed = 1;
nodes = (
"884 0 LINE",
"674 511 LINE",
"856 1000 LINE",
"504 1000 LINE",
"414 593 LINE",
"412 593 LINE",
"412 1000 LINE",
"76 1000 LINE",
"76 0 LINE",
"412 0 LINE",
"412 433 LINE",
"414 433 LINE",
"530 0 LINE"
);
}
);
width = 900;
},
{
anchors = (
{
name = bottom;
position = "{480, 0}";
},
{
name = top;
position = "{480, 1000}";
}
);
layerId = "2E286313-D5BF-4FB4-A4B7-BD9BC13B574E";
paths = (
{
closed = 1;
nodes = (
"774 0 LINE",
"462 497 LINE",
"740 1000 LINE",
"668 1000 LINE",
"412 535 LINE",
"332 535 LINE",
"332 1000 LINE",
"266 1000 LINE",
"266 0 LINE",
"332 0 LINE",
"332 471 LINE",
"402 471 LINE",
"702 0 LINE"
);
}
);
width = 900;
},
{
anchors = (
{
name = bottom;
position = "{1090, 0}";
},
{
name = top;
position = "{1090, 1000}";
}
);
layerId = "E338D14E-1DA5-418D-88BC-8956EEA80AB9";
paths = (
{
closed = 1;
nodes = (
"1758 0 LINE",
"966 551 LINE",
"1700 1000 LINE",
"1588 1000 LINE",
"906 585 LINE",
"622 585 LINE",
"622 1000 LINE",
"554 1000 LINE",
"554 0 LINE",
"622 0 LINE",
"622 521 LINE",
"894 521 LINE",
"1646 0 LINE"
);
}
);
width = 2100;
},
{
anchors = (
{
name = bottom;
position = "{1103, 0}";
},
{
name = top;
position = "{1059, 1000}";
}
);
layerId = "DF71BB49-08D0-48AB-8F46-D55A70C0C2BD";
paths = (
{
closed = 1;
nodes = (
"1907 0 LINE",
"1196 500 LINE",
"1857 1000 LINE",
"1365 1000 LINE",
"909 654 LINE",
"730 654 LINE",
"730 1000 LINE",
"296 1000 LINE",
"296 0 LINE",
"730 0 LINE",
"730 339 LINE",
"910 339 LINE",
"1412 0 LINE"
);
}
);
width = 2100;
}
);
unicode = 0138;
},
{
color = 4;
glyphname = l;
lastChange = "2022-02-14 18:30:27 +0000";
layers = (
{
anchors = (
{
name = bottom;
position = "{450, 0}";
},
{
name = center;
position = "{384, 756}";
},
{
name = top;
position = "{382, 1600}";
},
{
name = topright;
position = "{870, 1400}";
}
);
layerId = "2E286313-D5BF-4FB4-A4B7-BD9BC13B574E";
paths = (
{
closed = 1;
nodes = (
"420 1600 LINE",
"142 1600 LINE",
"142 1536 LINE",
"350 1536 LINE",
"350 0 LINE",
"676 0 LINE",
"676 64 LINE",
"420 64 LINE"
);
}
);
width = 900;
},
{
anchors = (
{
name = bottom;
position = "{1050, 0}";
},
{
name = center;
position = "{892, 756}";
},
{
name = top;
position = "{892, 1600}";
},
{
name = topright;
position = "{2030, 1400}";
}
);
layerId = "E338D14E-1DA5-418D-88BC-8956EEA80AB9";
paths = (
{
closed = 1;
nodes = (
"932 1600 LINE",
"288 1600 LINE",
"288 1536 LINE",
"864 1536 LINE",
"864 0 LINE",
"1600 0 LINE",
"1600 64 LINE",
"932 64 LINE"
);
}
);
width = 2100;
},
{
anchors = (
{
name = bottom;
position = "{438, 0}";
},
{
name = center;
position = "{478, 756}";
},
{
name = top;
position = "{448, 1600}";
},
{
name = topright;
position = "{820, 1400}";
}
);
layerId = "C5C974ED-4386-41E8-AA57-C40E24C26BBD";
paths = (
{
closed = 1;
nodes = (
"598 1600 LINE",
"64 1600 LINE",
"64 1356 LINE",
"262 1356 LINE",
"262 0 LINE",
"784 0 LINE",
"784 244 LINE",
"598 244 LINE"
);
}
);
width = 900;
},
{
anchors = (
{
name = bottom;
position = "{1034, 0}";
},
{
name = center;
position = "{1019, 756}";
},
{
name = top;
position = "{981, 1600}";
},
{
name = topright;
position = "{1962, 1400}";
}
);
layerId = "DF71BB49-08D0-48AB-8F46-D55A70C0C2BD";
paths = (
{
closed = 1;
nodes = (
"1173 1600 LINE",
"182 1600 LINE",
"182 1292 LINE",
"744 1292 LINE",
"744 0 LINE",
"1746 0 LINE",
"1746 308 LINE",
"1173 308 LINE"
);
}
);
width = 2100;
}
);
unicode = 006C;
},
{
glyphname = l.ss01;
lastChange = "2022-02-14 18:26:15 +0000";
layers = (
{
anchors = (
{
name = bottom;
position = "{534, -2}";
},
{
name = center;
position = "{418, 782}";
},
{
name = top;
position = "{418, 1600}";
},
{
name = topright;
position = "{782, 1000}";
}
);
layerId = "2E286313-D5BF-4FB4-A4B7-BD9BC13B574E";
paths = (
{
closed = 1;
nodes = (
"520 40 OFFCURVE",
"464 60 OFFCURVE",
"464 246 CURVE SMOOTH",
"464 1600 LINE",
"166 1600 LINE",
"166 1536 LINE",
"394 1536 LINE",
"394 234 LINE SMOOTH",
"394 28 OFFCURVE",
"460 -22 OFFCURVE",
"562 -22 CURVE SMOOTH",
"644 -22 OFFCURVE",
"715 -4 OFFCURVE",
"726 0 CURVE",
"726 64 LINE",
"715 60 OFFCURVE",
"642 40 OFFCURVE",
"576 40 CURVE SMOOTH"
);
}
);
width = 900;
},
{
anchors = (
{
name = bottom;
position = "{1246, -2}";
},
{
name = center;
position = "{974, 782}";
},
{
name = top;
position = "{974, 1600}";
},
{
name = topright;
position = "{2030, 1000}";
}
);
layerId = "E338D14E-1DA5-418D-88BC-8956EEA80AB9";
paths = (
{
closed = 1;
nodes = (
"1145 40 OFFCURVE",
"1033 60 OFFCURVE",
"1033 246 CURVE SMOOTH",
"1033 1600 LINE",
"383 1600 LINE",
"383 1536 LINE",
"957 1536 LINE",
"957 234 LINE SMOOTH",
"957 28 OFFCURVE",
"1091 -22 OFFCURVE",
"1307 -22 CURVE SMOOTH",
"1497 -22 OFFCURVE",
"1659 18 OFFCURVE",
"1689 30 CURVE",
"1689 94 LINE",
"1661 82 OFFCURVE",
"1493 40 OFFCURVE",
"1339 40 CURVE SMOOTH"
);
}
);
width = 2100;
},
{
anchors = (
{
name = bottom;
position = "{484, -2}";
},
{
name = center;
position = "{422, 782}";
},
{
name = top;
position = "{422, 1600}";
},
{
name = topright;
position = "{750, 1000}";
}
);
layerId = "C5C974ED-4386-41E8-AA57-C40E24C26BBD";
paths = (
{
closed = 1;
nodes = (
"604 212 OFFCURVE",
"582 257 OFFCURVE",
"582 344 CURVE SMOOTH",
"582 1600 LINE",
"132 1600 LINE",
"132 1356 LINE",
"276 1356 LINE",
"276 244 LINE SMOOTH",
"276 18 OFFCURVE",
"422 -22 OFFCURVE",
"570 -22 CURVE SMOOTH",
"670 -22 OFFCURVE",
"738 0 OFFCURVE",
"758 10 CURVE",
"758 246 LINE",
"738 233 OFFCURVE",
"694 212 OFFCURVE",
"644 212 CURVE SMOOTH"
);
}
);
width = 900;
},
{
anchors = (
{
name = bottom;
position = "{1178, -2}";
},
{
name = center;
position = "{980, 782}";
},
{
name = top;
position = "{980, 1600}";
},
{
name = topright;
position = "{1987, 1000}";
}
);
layerId = "DF71BB49-08D0-48AB-8F46-D55A70C0C2BD";
paths = (
{
closed = 1;
nodes = (
"1266 273 OFFCURVE",
"1198 309 OFFCURVE",
"1198 403 CURVE SMOOTH",
"1198 1600 LINE",
"342 1600 LINE",
"342 1292 LINE",
"802 1292 LINE",
"802 248 LINE SMOOTH",
"802 29 OFFCURVE",
"1010 -22 OFFCURVE",
"1323 -22 CURVE SMOOTH",
"1533 -22 OFFCURVE",
"1692 24 OFFCURVE",
"1738 40 CURVE",
"1738 341 LINE",
"1702 325 OFFCURVE",
"1527 273 OFFCURVE",
"1396 273 CURVE SMOOTH"
);
}
);
width = 2100;
}
);
leftKerningGroup = h;
rightKerningGroup = l;
},
{
glyphname = lslash;
lastChange = "2022-02-14 18:37:57 +0000";
layers = (
{
components = (
{
name = l;
}
);
layerId = "2E286313-D5BF-4FB4-A4B7-BD9BC13B574E";
paths = (
{
closed = 1;
nodes = (
"174 406 LINE",
"590 822 LINE",
"590 904 LINE",
"174 486 LINE"
);
}
);
width = 900;
},
{
components = (
{
name = l;
}
);
layerId = "E338D14E-1DA5-418D-88BC-8956EEA80AB9";
paths = (
{
closed = 1;
nodes = (
"512 406 LINE",
"1272 822 LINE",
"1272 904 LINE",
"512 486 LINE"
);
}
);
width = 2100;
},
{
components = (
{
alignment = -1;
name = l;
}
);
layerId = "C5C974ED-4386-41E8-AA57-C40E24C26BBD";
paths = (
{
closed = 1;
nodes = (
"156 266 LINE",
"726 890 LINE",
"726 1152 LINE",
"156 526 LINE"
);
}
);
width = 900;
},
{
components = (
{
alignment = -1;
name = l;
}
);
layerId = "DF71BB49-08D0-48AB-8F46-D55A70C0C2BD";
paths = (
{
closed = 1;
nodes = (
"488 216 LINE",
"1403 914 LINE",
"1403 1241 LINE",
"488 540 LINE"
);
}
);
width = 2100;
}
);
unicode = 0142;
},
{
color = 4;
glyphname = m;
lastChange = "2022-02-14 18:30:27 +0000";
layers = (
{
anchors = (
{
name = bottom;
position = "{450, 0}";
},
{
name = top;
position = "{450, 1000}";
}
);
layerId = "2E286313-D5BF-4FB4-A4B7-BD9BC13B574E";
paths = (
{
closed = 1;
nodes = (
"846 0 LINE",
"846 744 LINE SMOOTH",
"846 870 OFFCURVE",
"820 1022 OFFCURVE",
"670 1022 CURVE SMOOTH",
"522 1022 OFFCURVE",
"433 858 OFFCURVE",
"433 634 CURVE",
"479 678 LINE",
"483 798 OFFCURVE",
"560 956 OFFCURVE",
"648 956 CURVE SMOOTH",
"742 956 OFFCURVE",
"776 902 OFFCURVE",
"776 684 CURVE SMOOTH",
"776 0 LINE"
);
},
{
closed = 1;
nodes = (
"126 0 LINE",
"126 824 LINE",
"126 1000 LINE",
"56 1000 LINE",
"56 0 LINE"
);
},
{
closed = 1;
nodes = (
"482 0 LINE",
"482 774 LINE",
"482 950 OFFCURVE",
"408 1022 OFFCURVE",
"306 1022 CURVE SMOOTH",
"182 1022 OFFCURVE",
"81 876 OFFCURVE",
"81 652 CURVE",
"123 692 LINE",
"125 790 OFFCURVE",
"204 956 OFFCURVE",
"292 956 CURVE SMOOTH",
"374 956 OFFCURVE",
"414 902 OFFCURVE",
"414 684 CURVE SMOOTH",
"414 0 LINE"
);
}
);
width = 900;
},
{
anchors = (
{
name = bottom;
position = "{1050, 0}";
},
{
name = top;
position = "{1050, 1000}";
}
);
layerId = "E338D14E-1DA5-418D-88BC-8956EEA80AB9";
paths = (
{
closed = 1;
nodes = (
"1872 0 LINE",
"1872 604 LINE SMOOTH",
"1872 880 OFFCURVE",
"1734 1022 OFFCURVE",
"1492 1022 CURVE SMOOTH",
"1226 1022 OFFCURVE",
"1032 782 OFFCURVE",
"1032 598 CURVE",
"1078 632 LINE",
"1102 710 OFFCURVE",
"1250 956 OFFCURVE",
"1478 956 CURVE SMOOTH",
"1670 956 OFFCURVE",
"1804 862 OFFCURVE",
"1804 604 CURVE SMOOTH",
"1804 0 LINE"
);
},
{
closed = 1;
nodes = (
"318 0 LINE",
"318 784 LINE",
"318 1000 LINE",
"250 1000 LINE",
"250 0 LINE"
);
},
{
closed = 1;
nodes = (
"1082 0 LINE",
"1082 702 LINE",
"1082 868 OFFCURVE",
"936 1022 OFFCURVE",
"722 1022 CURVE SMOOTH",
"472 1022 OFFCURVE",
"268 788 OFFCURVE",
"268 604 CURVE",
"314 624 LINE",
"338 698 OFFCURVE",
"482 956 OFFCURVE",
"708 956 CURVE SMOOTH",
"900 956 OFFCURVE",
"1014 862 OFFCURVE",
"1014 604 CURVE SMOOTH",
"1014 0 LINE"
);
}
);
width = 2100;
},
{
anchors = (
{
name = bottom;
position = "{438, 0}";
},
{
name = top;
position = "{438, 1000}";
}
);
layerId = "C5C974ED-4386-41E8-AA57-C40E24C26BBD";
paths = (
{
closed = 1;
nodes = (
"892 0 LINE",
"892 796 LINE SMOOTH",
"892 940 OFFCURVE",
"840 1022 OFFCURVE",
"734 1022 CURVE SMOOTH",
"590 1022 OFFCURVE",
"480 836 OFFCURVE",
"480 620 CURVE",
"558 656 LINE",
"558 750 OFFCURVE",
"570 776 OFFCURVE",
"588 776 CURVE SMOOTH",
"606 776 OFFCURVE",
"616 742 OFFCURVE",
"616 634 CURVE SMOOTH",
"616 0 LINE"
);
},
{
closed = 1;
nodes = (
"290 0 LINE",
"290 872 LINE",
"234 1000 LINE",
"12 1000 LINE",
"12 0 LINE"
);
},
{
closed = 1;
nodes = (
"558 0 LINE",
"558 796 LINE",
"558 940 OFFCURVE",
"532 1022 OFFCURVE",
"432 1022 CURVE SMOOTH",
"304 1022 OFFCURVE",
"214 842 OFFCURVE",
"214 626 CURVE",
"290 664 LINE",
"290 750 OFFCURVE",
"302 776 OFFCURVE",
"320 776 CURVE SMOOTH",
"338 776 OFFCURVE",
"348 742 OFFCURVE",
"348 636 CURVE SMOOTH",
"348 0 LINE"
);
}
);
width = 900;
},
{
anchors = (
{
name = bottom;
position = "{1034, 0}";
},
{
name = top;
position = "{1034, 1000}";
}
);
layerId = "DF71BB49-08D0-48AB-8F46-D55A70C0C2BD";
paths = (
{
closed = 1;
nodes = (
"2016 0 LINE",
"2016 675 LINE SMOOTH",
"2016 876 OFFCURVE",
"1883 1022 OFFCURVE",
"1616 1022 CURVE SMOOTH",
"1336 1022 OFFCURVE",
"1097 719 OFFCURVE",
"1097 546 CURVE",
"1268 542 LINE",
"1273 598 OFFCURVE",
"1350 722 OFFCURVE",
"1448 722 CURVE SMOOTH",
"1559 722 OFFCURVE",
"1587 627 OFFCURVE",
"1587 537 CURVE SMOOTH",
"1587 0 LINE"
);
},
{
closed = 1;
nodes = (
"541 0 LINE",
"541 776 LINE",
"486 1000 LINE",
"109 1000 LINE",
"109 0 LINE"
);
},
{
closed = 1;
nodes = (
"1267 0 LINE",
"1267 683 LINE",
"1267 865 OFFCURVE",
"1141 1022 OFFCURVE",
"890 1022 CURVE SMOOTH",
"615 1022 OFFCURVE",
"399 722 OFFCURVE",
"399 549 CURVE",
"542 553 LINE",
"551 613 OFFCURVE",
"625 722 OFFCURVE",
"723 722 CURVE SMOOTH",
"841 722 OFFCURVE",
"843 632 OFFCURVE",
"843 539 CURVE SMOOTH",
"843 0 LINE"
);
}
);
width = 2100;
}
);
leftKerningGroup = n;
rightKerningGroup = n;
unicode = 006D;
},
{
color = 4;
glyphname = n;
lastChange = "2022-02-14 18:30:27 +0000";
layers = (
{
anchors = (
{
name = bottom;
position = "{466, 0}";
},
{
name = top;
position = "{484, 1000}";
}
);
layerId = "2E286313-D5BF-4FB4-A4B7-BD9BC13B574E";
paths = (
{
closed = 1;
nodes = (
"282 0 LINE",
"282 804 LINE",
"282 1000 LINE",
"214 1000 LINE",
"214 862 OFFCURVE",
"214 870 OFFCURVE",
"214 0 CURVE"
);
},
{
closed = 1;
nodes = (
"728 0 LINE",
"728 644 LINE SMOOTH",
"728 866 OFFCURVE",
"684 1024 OFFCURVE",
"528 1024 CURVE SMOOTH",
"332 1024 OFFCURVE",
"222 806 OFFCURVE",
"220 604 CURVE",
"280 604 LINE",
"286 796 OFFCURVE",
"384 958 OFFCURVE",
"520 958 CURVE SMOOTH",
"636 958 OFFCURVE",
"658 812 OFFCURVE",
"658 642 CURVE SMOOTH",
"658 0 LINE"
);
}
);
width = 900;
},
{
anchors = (
{
name = bottom;
position = "{1086, 0}";
},
{
name = top;
position = "{1086, 1000}";
}
);
layerId = "E338D14E-1DA5-418D-88BC-8956EEA80AB9";
paths = (
{
closed = 1;
nodes = (
"532 0 LINE",
"532 664 LINE",
"532 1000 LINE",
"464 1000 LINE",
"464 862 OFFCURVE",
"464 870 OFFCURVE",
"464 0 CURVE"
);
},
{
closed = 1;
nodes = (
"1710 0 LINE",
"1710 504 LINE SMOOTH",
"1710 890 OFFCURVE",
"1508 1024 OFFCURVE",
"1156 1024 CURVE SMOOTH",
"740 1024 OFFCURVE",
"470 756 OFFCURVE",
"466 474 CURVE",
"530 474 LINE",
"544 746 OFFCURVE",
"856 958 OFFCURVE",
"1142 958 CURVE SMOOTH",
"1464 958 OFFCURVE",
"1634 844 OFFCURVE",
"1634 484 CURVE SMOOTH",
"1634 0 LINE"
);
}
);
width = 2100;
},
{
anchors = (
{
name = bottom;
position = "{452, 0}";
},
{
name = top;
position = "{458, 1000}";
}
);
layerId = "C5C974ED-4386-41E8-AA57-C40E24C26BBD";
paths = (
{
closed = 1;
nodes = (
"408 0 LINE",
"408 814 LINE",
"338 1000 LINE",
"80 1000 LINE",
"80 862 OFFCURVE",
"80 870 OFFCURVE",
"80 0 CURVE"
);
},
{
closed = 1;
nodes = (
"842 0 LINE",
"842 672 LINE SMOOTH",
"842 884 OFFCURVE",
"765 1022 OFFCURVE",
"595 1022 CURVE SMOOTH",
"428 1022 OFFCURVE",
"329 854 OFFCURVE",
"329 652 CURVE",
"407 632 LINE",
"407 678 OFFCURVE",
"413 766 OFFCURVE",
"460 766 CURVE SMOOTH",
"502 766 OFFCURVE",
"508 688 OFFCURVE",
"508 624 CURVE SMOOTH",
"508 0 LINE"
);
}
);
width = 900;
},
{
anchors = (
{
name = bottom;
position = "{1067, 0}";
},
{
name = top;
position = "{1051, 1000}";
}
);
layerId = "DF71BB49-08D0-48AB-8F46-D55A70C0C2BD";
paths = (
{
closed = 1;
nodes = (
"703 0 LINE",
"703 804 LINE",
"621 1000 LINE",
"282 1000 LINE",
"282 862 OFFCURVE",
"282 870 OFFCURVE",
"282 0 CURVE"
);
},
{
closed = 1;
nodes = (
"1865 0 LINE",
"1865 542 LINE SMOOTH",
"1865 881 OFFCURVE",
"1629 1021 OFFCURVE",
"1227 1021 CURVE SMOOTH",
"831 1021 OFFCURVE",
"485 734 OFFCURVE",
"484 452 CURVE",
"702 415 LINE",
"708 489 OFFCURVE",
"883 697 OFFCURVE",
"1118 697 CURVE SMOOTH",
"1274 697 OFFCURVE",
"1430 661 OFFCURVE",
"1430 460 CURVE SMOOTH",
"1430 0 LINE"
);
}
);
width = 2100;
}
);
leftKerningGroup = n;
rightKerningGroup = n;
unicode = 006E;
},
{
glyphname = eng;
lastChange = "2022-02-14 18:59:31 +0000";
layers = (
{
components = (
{
name = n;
}
);
layerId = "2E286313-D5BF-4FB4-A4B7-BD9BC13B574E";
paths = (
{
closed = 1;
nodes = (
"236 -366 LINE",
"264 -374 OFFCURVE",
"316 -384 OFFCURVE",
"400 -384 CURVE",
"552 -384 OFFCURVE",
"728 -260 OFFCURVE",
"728 -4 CURVE",
"728 4 LINE",
"658 0 LINE",
"658 -172 OFFCURVE",
"570 -318 OFFCURVE",
"394 -318 CURVE",
"332 -318 OFFCURVE",
"266 -306 OFFCURVE",
"254 -300 CURVE"
);
}
);
width = 900;
},
{
components = (
{
name = n;
}
);
layerId = "E338D14E-1DA5-418D-88BC-8956EEA80AB9";
paths = (
{
closed = 1;
nodes = (
"1210 -376 LINE",
"1238 -384 OFFCURVE",
"1290 -394 OFFCURVE",
"1374 -394 CURVE",
"1526 -394 OFFCURVE",
"1710 -260 OFFCURVE",
"1710 -4 CURVE",
"1710 4 LINE",
"1634 0 LINE",
"1634 -172 OFFCURVE",
"1544 -328 OFFCURVE",
"1368 -328 CURVE",
"1306 -328 OFFCURVE",
"1240 -316 OFFCURVE",
"1228 -310 CURVE"
);
}
);
width = 2100;
},
{
components = (
{
alignment = -1;
name = n;
}
);
layerId = "C5C974ED-4386-41E8-AA57-C40E24C26BBD";
paths = (
{
closed = 1;
nodes = (
"198 -386 LINE",
"246 -398 OFFCURVE",
"302 -404 OFFCURVE",
"366 -404 CURVE SMOOTH",
"598 -404 OFFCURVE",
"842 -260 OFFCURVE",
"842 -24 CURVE",
"842 44 LINE",
"508 0 LINE",
"508 -36 OFFCURVE",
"488 -142 OFFCURVE",
"352 -142 CURVE SMOOTH",
"310 -142 OFFCURVE",
"278 -140 OFFCURVE",
"262 -132 CURVE"
);
}
);
width = 900;
},
{
components = (
{
alignment = -1;
name = n;
}
);
layerId = "DF71BB49-08D0-48AB-8F46-D55A70C0C2BD";
paths = (
{
closed = 1;
nodes = (
"1036 -386 LINE",
"1093 -400 OFFCURVE",
"1183 -404 OFFCURVE",
"1235 -404 CURVE SMOOTH",
"1496 -404 OFFCURVE",
"1864 -293 OFFCURVE",
"1864 -31 CURVE",
"1864 58 LINE",
"1430 0 LINE",
"1430 -63 OFFCURVE",
"1324 -102 OFFCURVE",
"1229 -102 CURVE SMOOTH",
"1188 -102 OFFCURVE",
"1134 -94 OFFCURVE",
"1116 -85 CURVE"
);
}
);
width = 2100;
}
);
unicode = 014B;
},
{
color = 4;
glyphname = o;
lastChange = "2022-02-14 18:30:27 +0000";
layers = (
{
anchors = (
{
name = bottom;
position = "{446, 0}";
},
{
name = center;
position = "{446, 500}";
},
{
name = ogonek;
position = "{594, 40}";
},
{
name = top;
position = "{446, 1000}";
},
{
name = topright;
position = "{635, 904}";
}
);
layerId = "2E286313-D5BF-4FB4-A4B7-BD9BC13B574E";
paths = (
{
closed = 1;
nodes = (
"590 -22 OFFCURVE",
"722 106 OFFCURVE",
"722 502 CURVE SMOOTH",
"722 896 OFFCURVE",
"590 1024 OFFCURVE",
"450 1024 CURVE SMOOTH",
"310 1024 OFFCURVE",
"178 896 OFFCURVE",
"178 502 CURVE SMOOTH",
"178 106 OFFCURVE",
"310 -22 OFFCURVE",
"450 -22 CURVE SMOOTH"
);
},
{
closed = 1;
nodes = (
"346 44 OFFCURVE",
"248 134 OFFCURVE",
"248 502 CURVE SMOOTH",
"248 864 OFFCURVE",
"346 958 OFFCURVE",
"450 958 CURVE SMOOTH",
"554 958 OFFCURVE",
"652 864 OFFCURVE",
"652 502 CURVE SMOOTH",
"652 134 OFFCURVE",
"554 44 OFFCURVE",
"450 44 CURVE SMOOTH"
);
}
);
width = 900;
},
{
anchors = (
{
name = bottom;
position = "{1042, 0}";
},
{
name = center;
position = "{1042, 500}";
},
{
name = ogonek;
position = "{1400, 40}";
},
{
name = top;
position = "{1042, 1000}";
},
{
name = topright;
position = "{1495, 904}";
}
);
layerId = "E338D14E-1DA5-418D-88BC-8956EEA80AB9";
paths = (
{
closed = 1;
nodes = (
"1472 -22 OFFCURVE",
"1732 170 OFFCURVE",
"1732 502 CURVE SMOOTH",
"1732 834 OFFCURVE",
"1472 1024 OFFCURVE",
"1052 1024 CURVE SMOOTH",
"634 1024 OFFCURVE",
"370 836 OFFCURVE",
"370 502 CURVE SMOOTH",
"370 170 OFFCURVE",
"632 -22 OFFCURVE",
"1052 -22 CURVE SMOOTH"
);
},
{
closed = 1;
nodes = (
"682 44 OFFCURVE",
"448 210 OFFCURVE",
"448 502 CURVE SMOOTH",
"448 794 OFFCURVE",
"684 958 OFFCURVE",
"1052 958 CURVE SMOOTH",
"1422 958 OFFCURVE",
"1654 794 OFFCURVE",
"1654 502 CURVE SMOOTH",
"1654 212 OFFCURVE",
"1424 44 OFFCURVE",
"1052 44 CURVE SMOOTH"
);
}
);
width = 2100;
},
{
anchors = (
{
name = bottom;
position = "{444, 0}";
},
{
name = center;
position = "{444, 500}";
},
{
name = ogonek;
position = "{643, 40}";
},
{
name = top;
position = "{444, 1000}";
},
{
name = topright;
position = "{625, 904}";
}
);
layerId = "C5C974ED-4386-41E8-AA57-C40E24C26BBD";
paths = (
{
closed = 1;
nodes = (
"618 -22 OFFCURVE",
"836 98 OFFCURVE",
"836 502 CURVE SMOOTH",
"836 904 OFFCURVE",
"618 1024 OFFCURVE",
"448 1024 CURVE SMOOTH",
"274 1024 OFFCURVE",
"60 904 OFFCURVE",
"60 502 CURVE SMOOTH",
"60 98 OFFCURVE",
"276 -22 OFFCURVE",
"448 -22 CURVE SMOOTH"
);
},
{
closed = 1;
nodes = (
"418 234 OFFCURVE",
"392 272 OFFCURVE",
"392 502 CURVE SMOOTH",
"392 728 OFFCURVE",
"416 768 OFFCURVE",
"448 768 CURVE SMOOTH",
"476 768 OFFCURVE",
"502 728 OFFCURVE",
"502 502 CURVE SMOOTH",
"502 272 OFFCURVE",
"476 234 OFFCURVE",
"448 234 CURVE SMOOTH"
);
}
);
width = 900;
},
{
anchors = (
{
name = bottom;
position = "{1039, 0}";
},
{
name = center;
position = "{1039, 500}";
},
{
name = ogonek;
position = "{1513, 60}";
},
{
name = top;
position = "{1039, 1000}";
},
{
name = topright;
position = "{1482, 904}";
}
);
layerId = "DF71BB49-08D0-48AB-8F46-D55A70C0C2BD";
paths = (
{
closed = 1;
nodes = (
"1483 -22 OFFCURVE",
"1867 146 OFFCURVE",
"1867 502 CURVE SMOOTH",
"1867 858 OFFCURVE",
"1483 1024 OFFCURVE",
"1049 1024 CURVE SMOOTH",
"612 1024 OFFCURVE",
"230 860 OFFCURVE",
"230 502 CURVE SMOOTH",
"230 146 OFFCURVE",
"613 -22 OFFCURVE",
"1049 -22 CURVE SMOOTH"
);
},
{
closed = 1;
nodes = (
"827 292 OFFCURVE",
"664 364 OFFCURVE",
"664 502 CURVE SMOOTH",
"664 643 OFFCURVE",
"827 710 OFFCURVE",
"1049 710 CURVE SMOOTH",
"1269 710 OFFCURVE",
"1431 643 OFFCURVE",
"1431 502 CURVE SMOOTH",
"1431 366 OFFCURVE",
"1271 292 OFFCURVE",
"1049 292 CURVE SMOOTH"
);
}
);
width = 2100;
}
);
leftKerningGroup = o;
rightKerningGroup = o;
unicode = 006F;
},
{
glyphname = ohorn;
lastChange = "2022-02-14 18:38:47 +0000";
layers = (
{
anchors = (
{
name = bottom;
position = "{444, 0}";
},
{
name = center;
position = "{444, 500}";
},
{
name = ogonek;
position = "{643, 40}";
},
{
name = top;
position = "{444, 1000}";
},
{
name = topright;
position = "{625, 904}";
}
);
components = (
{
name = horncomb;
transform = "{1, 0, 0, 1, 332, -237}";
}
);
layerId = "C5C974ED-4386-41E8-AA57-C40E24C26BBD";
paths = (
{
closed = 1;
nodes = (
"618 -22 OFFCURVE",
"836 98 OFFCURVE",
"836 502 CURVE SMOOTH",
"836 904 OFFCURVE",
"618 1024 OFFCURVE",
"448 1024 CURVE SMOOTH",
"274 1024 OFFCURVE",
"60 904 OFFCURVE",
"60 502 CURVE SMOOTH",
"60 98 OFFCURVE",
"276 -22 OFFCURVE",
"448 -22 CURVE SMOOTH"
);
},
{
closed = 1;
nodes = (
"418 234 OFFCURVE",
"392 272 OFFCURVE",
"392 502 CURVE SMOOTH",
"392 728 OFFCURVE",
"416 768 OFFCURVE",
"448 768 CURVE SMOOTH",
"476 768 OFFCURVE",
"502 728 OFFCURVE",
"502 502 CURVE SMOOTH",
"502 272 OFFCURVE",
"476 234 OFFCURVE",
"448 234 CURVE SMOOTH"
);
}
);
width = 900;
},
{
anchors = (
{
name = bottom;
position = "{446, 0}";
},
{
name = center;
position = "{446, 500}";
},
{
name = ogonek;
position = "{594, 40}";
},
{
name = top;
position = "{446, 1000}";
},
{
name = topright;
position = "{635, 904}";
}
);
components = (
{
name = horncomb;
transform = "{1, 0, 0, 1, 294, -245}";
}
);
layerId = "2E286313-D5BF-4FB4-A4B7-BD9BC13B574E";
paths = (
{
closed = 1;
nodes = (
"590 -22 OFFCURVE",
"722 106 OFFCURVE",
"722 502 CURVE SMOOTH",
"722 896 OFFCURVE",
"590 1024 OFFCURVE",
"450 1024 CURVE SMOOTH",
"310 1024 OFFCURVE",
"178 896 OFFCURVE",
"178 502 CURVE SMOOTH",
"178 106 OFFCURVE",
"310 -22 OFFCURVE",
"450 -22 CURVE SMOOTH"
);
},
{
closed = 1;
nodes = (
"346 44 OFFCURVE",
"248 134 OFFCURVE",
"248 502 CURVE SMOOTH",
"248 864 OFFCURVE",
"346 958 OFFCURVE",
"450 958 CURVE SMOOTH",
"554 958 OFFCURVE",
"652 864 OFFCURVE",
"652 502 CURVE SMOOTH",
"652 134 OFFCURVE",
"554 44 OFFCURVE",
"450 44 CURVE SMOOTH"
);
}
);
width = 900;
},
{
anchors = (
{
name = bottom;
position = "{1042, 0}";
},
{
name = center;
position = "{1042, 500}";
},
{
name = ogonek;
position = "{1400, 40}";
},
{
name = top;
position = "{1042, 1000}";
},
{
name = topright;
position = "{1495, 904}";
}
);
components = (
{
name = horncomb;
transform = "{1, 0, 0, 1, 543, -245}";
}
);
layerId = "E338D14E-1DA5-418D-88BC-8956EEA80AB9";
paths = (
{
closed = 1;
nodes = (
"1472 -22 OFFCURVE",
"1732 170 OFFCURVE",
"1732 502 CURVE SMOOTH",
"1732 834 OFFCURVE",
"1472 1024 OFFCURVE",
"1052 1024 CURVE SMOOTH",
"634 1024 OFFCURVE",
"370 836 OFFCURVE",
"370 502 CURVE SMOOTH",
"370 170 OFFCURVE",
"632 -22 OFFCURVE",
"1052 -22 CURVE SMOOTH"
);
},
{
closed = 1;
nodes = (
"682 44 OFFCURVE",
"448 210 OFFCURVE",
"448 502 CURVE SMOOTH",
"448 794 OFFCURVE",
"684 958 OFFCURVE",
"1052 958 CURVE SMOOTH",
"1422 958 OFFCURVE",
"1654 794 OFFCURVE",
"1654 502 CURVE SMOOTH",
"1654 212 OFFCURVE",
"1424 44 OFFCURVE",
"1052 44 CURVE SMOOTH"
);
}
);
width = 2100;
},
{
anchors = (
{
name = bottom;
position = "{1039, 0}";
},
{
name = center;
position = "{1039, 500}";
},
{
name = ogonek;
position = "{1513, 60}";
},
{
name = top;
position = "{1039, 1000}";
},
{
name = topright;
position = "{1482, 904}";
}
);
components = (
{
name = horncomb;
transform = "{1, 0, 0, 1, 595, -234}";
}
);
layerId = "DF71BB49-08D0-48AB-8F46-D55A70C0C2BD";
paths = (
{
closed = 1;
nodes = (
"1483 -22 OFFCURVE",
"1867 146 OFFCURVE",
"1867 502 CURVE SMOOTH",
"1867 858 OFFCURVE",
"1483 1024 OFFCURVE",
"1049 1024 CURVE SMOOTH",
"612 1024 OFFCURVE",
"230 860 OFFCURVE",
"230 502 CURVE SMOOTH",
"230 146 OFFCURVE",
"613 -22 OFFCURVE",
"1049 -22 CURVE SMOOTH"
);
},
{
closed = 1;
nodes = (
"827 292 OFFCURVE",
"664 364 OFFCURVE",
"664 502 CURVE SMOOTH",
"664 643 OFFCURVE",
"827 710 OFFCURVE",
"1049 710 CURVE SMOOTH",
"1269 710 OFFCURVE",
"1431 643 OFFCURVE",
"1431 502 CURVE SMOOTH",
"1431 366 OFFCURVE",
"1271 292 OFFCURVE",
"1049 292 CURVE SMOOTH"
);
}
);
width = 2100;
}
);
unicode = 01A1;
},
{
glyphname = oslash;
lastChange = "2022-02-14 18:37:49 +0000";
layers = (
{
anchors = (
{
name = _center;
position = "{446, 500}";
}
);
components = (
{
name = o;
}
);
layerId = "2E286313-D5BF-4FB4-A4B7-BD9BC13B574E";
paths = (
{
closed = 1;
nodes = (
"710 1066 LINE",
"82 -68 LINE",
"162 -68 LINE",
"790 1066 LINE"
);
}
);
width = 900;
},
{
anchors = (
{
name = _center;
position = "{1042, 500}";
}
);
components = (
{
name = o;
}
);
layerId = "E338D14E-1DA5-418D-88BC-8956EEA80AB9";
paths = (
{
closed = 1;
nodes = (
"1576 1066 LINE",
"418 -68 LINE",
"508 -68 LINE",
"1666 1066 LINE"
);
}
);
width = 2100;
},
{
anchors = (
{
name = _center;
position = "{444, 500}";
}
);
components = (
{
name = o;
}
);
layerId = "C5C974ED-4386-41E8-AA57-C40E24C26BBD";
paths = (
{
closed = 1;
nodes = (
"630 1106 LINE",
"112 -108 LINE",
"248 -108 LINE",
"766 1106 LINE"
);
}
);
width = 900;
},
{
anchors = (
{
name = _center;
position = "{1039, 500}";
}
);
components = (
{
name = o;
}
);
layerId = "DF71BB49-08D0-48AB-8F46-D55A70C0C2BD";
paths = (
{
closed = 1;
nodes = (
"1393 1120 LINE",
"262 -122 LINE",
"699 -122 LINE",
"1830 1120 LINE"
);
}
);
width = 2100;
}
);
unicode = 00F8;
},
